<svg xmlns="http://www.w3.org/2000/svg" xmlns:xlink="http://www.w3.org/1999/xlink" width="1056" zoomAndPan="magnify" viewBox="0 0 792 611.999999" height="816" preserveAspectRatio="xMidYMid meet" version="1.0"><defs><clipPath id="fe2a098a88"><path d="M 0.0234375 0 L 603.558594 0 L 603.558594 611.988281 L 0.0234375 611.988281 Z M 0.0234375 0 " clip-rule="nonzero"/></clipPath></defs><g clip-path="url(#fe2a098a88)"><path fill="#1676bb" d="M 595.574219 252.730469 C 594.957031 252.691406 594.332031 252.710938 593.699219 252.8125 L 589.585938 247.378906 L 551.136719 171.46875 L 565.710938 157.378906 C 567.757812 158.863281 570.429688 159.433594 573.046875 158.691406 C 573.285156 158.621094 573.519531 158.539062 573.75 158.453125 Z M 592.476562 316.785156 C 591.492188 315.453125 590.144531 314.441406 588.621094 313.863281 L 594.179688 269.714844 C 595.21875 269.820312 596.289062 269.742188 597.351562 269.441406 C 597.453125 269.414062 597.539062 269.375 597.640625 269.34375 Z M 585.285156 382.910156 C 583.632812 382.257812 581.867188 381.898438 580.046875 381.898438 L 586.546875 330.304688 C 587.003906 330.253906 587.472656 330.175781 587.929688 330.042969 C 589.195312 329.683594 590.308594 329.050781 591.230469 328.238281 Z M 576.183594 382.441406 C 574.101562 383.027344 572.261719 384.054688 570.730469 385.390625 L 524.933594 322.121094 C 527.347656 320.597656 528.851562 317.949219 528.914062 315.101562 L 577.125 320.941406 C 577.015625 321.992188 577.089844 323.082031 577.398438 324.160156 C 578.277344 327.265625 580.765625 329.480469 583.703125 330.152344 L 577.140625 382.207031 C 576.824219 382.273438 576.503906 382.347656 576.183594 382.441406 Z M 538.414062 461.394531 L 537.488281 453.164062 L 570.8125 406.917969 C 571.355469 407.382812 571.9375 407.800781 572.542969 408.179688 L 543.949219 463.65625 C 542.390625 462.207031 540.425781 461.375 538.414062 461.394531 Z M 486.902344 525.753906 C 486.578125 525.410156 486.246094 525.070312 485.886719 524.757812 L 526.019531 469.070312 L 531 469.890625 C 531.007812 470.769531 531.132812 471.679688 531.394531 472.578125 C 531.972656 474.621094 533.117188 476.320312 534.5625 477.515625 Z M 424.058594 566.246094 C 423.011719 564.449219 421.355469 563.117188 419.433594 562.460938 L 421.132812 557.492188 L 463.640625 541.507812 C 463.894531 542.039062 464.183594 542.542969 464.492188 543.03125 Z M 332.757812 593.535156 C 332.492188 592.683594 332.15625 591.871094 331.75 591.105469 L 368.183594 577.40625 L 408.265625 571.90625 C 408.316406 572.222656 408.382812 572.542969 408.472656 572.859375 C 408.484375 572.890625 408.492188 572.917969 408.503906 572.949219 Z M 261.988281 594.042969 C 262.042969 593.367188 262.027344 592.675781 261.914062 591.984375 L 312.976562 584.976562 C 308.121094 587.328125 305.058594 592.242188 304.976562 597.550781 Z M 190.554688 574.136719 C 191.703125 571.308594 191.953125 568.089844 191.054688 564.925781 C 190.648438 563.492188 190.035156 562.175781 189.257812 560.988281 L 227.453125 535.257812 L 250.957031 585.199219 C 248.269531 586.039062 246.289062 588.089844 245.433594 590.578125 Z M 159.953125 496.585938 L 195.785156 487.632812 C 195.839844 487.90625 195.898438 488.179688 195.980469 488.457031 C 197.347656 493.289062 201.890625 496.234375 206.121094 495.039062 C 206.839844 494.832031 207.496094 494.515625 208.09375 494.121094 L 226.230469 532.652344 L 187.457031 558.777344 C 184.359375 555.667969 179.90625 554.082031 175.382812 554.730469 Z M 108.378906 502.667969 L 102.445312 497.351562 L 128.269531 388.28125 L 149.039062 466.539062 Z M 157.046875 496.722656 L 113.796875 507.53125 L 108.804688 503.054688 L 149.199219 467.160156 Z M 172.621094 555.410156 C 171.371094 555.851562 170.21875 556.453125 169.179688 557.183594 L 114.3125 507.988281 L 157.191406 497.273438 Z M 106.675781 509.308594 C 106.625 509.042969 106.5625 508.773438 106.488281 508.507812 C 106.234375 507.617188 105.875 506.796875 105.433594 506.050781 L 106.664062 504.957031 L 110.46875 508.363281 Z M 101.273438 502.304688 L 101.699219 500.5 L 106.238281 504.570312 L 105.117188 505.566406 C 104.117188 504.089844 102.773438 502.960938 101.273438 502.304688 Z M 96.34375 501.921875 C 95.566406 502.144531 94.855469 502.492188 94.214844 502.9375 L 83.664062 484.328125 L 101.21875 500.070312 L 100.738281 502.09375 C 99.332031 501.597656 97.824219 501.503906 96.34375 501.921875 Z M 79.257812 476.5625 L 70.613281 461.324219 C 71.128906 459.074219 71.101562 456.667969 70.429688 454.292969 C 69.671875 451.628906 68.207031 449.367188 66.296875 447.636719 L 117.875 381.761719 C 120.527344 383.769531 123.859375 384.824219 127.296875 384.617188 L 127.960938 387.117188 L 101.964844 496.917969 Z M 68.175781 466.625 C 69.179688 465.265625 69.9375 463.738281 70.410156 462.113281 L 77.925781 475.367188 Z M 14.039062 361.550781 C 17.207031 359.933594 19.050781 356.488281 18.617188 352.933594 L 84.058594 332.953125 L 114.996094 362.011719 C 112.496094 365.429688 111.53125 369.917969 112.777344 374.304688 C 113.375 376.417969 114.421875 378.277344 115.78125 379.820312 L 64.007812 445.949219 C 63.109375 445.417969 62.15625 444.980469 61.164062 444.652344 Z M 52.871094 444.492188 C 52.457031 444.609375 52.050781 444.746094 51.65625 444.898438 L 12.480469 362.160156 C 12.484375 362.160156 12.484375 362.160156 12.484375 362.160156 C 12.839844 362.058594 13.183594 361.929688 13.519531 361.789062 L 60.378906 444.425781 C 57.996094 443.792969 55.414062 443.769531 52.871094 444.492188 Z M 11.148438 282.515625 C 13.382812 283.015625 15.769531 282.984375 18.125 282.316406 C 19.390625 281.957031 20.566406 281.433594 21.640625 280.78125 L 11.375 345.515625 C 10.785156 345.429688 10.179688 345.40625 9.566406 345.445312 Z M 34.34375 179.0625 C 35.332031 179.730469 36.425781 180.175781 37.5625 180.351562 L 30.339844 225.890625 L 15.660156 254.488281 C 15.40625 254.464844 15.148438 254.445312 14.886719 254.433594 Z M 93.324219 97.484375 C 93.894531 98.21875 94.53125 98.894531 95.222656 99.492188 L 78.222656 132.613281 L 44.300781 166.152344 C 43.519531 165.039062 42.535156 164.136719 41.4375 163.492188 Z M 172.445312 36.292969 C 172.710938 37.054688 173.070312 37.761719 173.515625 38.394531 L 146.765625 64.84375 L 115.25 79.398438 C 114.816406 78.90625 114.351562 78.445312 113.859375 78.019531 Z M 244.988281 16.765625 C 245.070312 17.210938 245.171875 17.65625 245.300781 18.101562 C 245.402344 18.464844 245.523438 18.824219 245.652344 19.171875 L 217.699219 32.082031 L 188.988281 34.351562 C 189.089844 33.316406 189.011719 32.25 188.710938 31.191406 C 188.546875 30.609375 188.324219 30.054688 188.054688 29.542969 Z M 362.492188 19.179688 C 362.390625 19.660156 362.328125 20.15625 362.3125 20.65625 L 313.453125 24.515625 L 273.101562 15.90625 C 273.160156 15.398438 273.191406 14.886719 273.195312 14.371094 Z M 455.964844 52.238281 C 455.597656 53.042969 455.296875 53.875 455.085938 54.734375 L 383.742188 39.515625 L 376.40625 27.386719 C 377.566406 26.382812 378.429688 25.085938 378.914062 23.648438 Z M 565.644531 143.636719 C 565.246094 143.933594 564.875 144.257812 564.542969 144.613281 L 530.371094 120.390625 C 530.960938 118.769531 531.066406 116.957031 530.558594 115.167969 C 529.277344 110.632812 524.558594 108 520.027344 109.285156 C 519.972656 109.304688 519.917969 109.324219 519.863281 109.339844 L 482.433594 62.453125 C 482.5 62.226562 482.574219 62 482.636719 61.765625 Z M 527.304688 124.433594 C 528.566406 123.53125 529.542969 122.308594 530.152344 120.925781 L 564.160156 145.039062 C 562.425781 147.128906 561.71875 150.003906 562.511719 152.808594 C 563 154.523438 563.980469 155.964844 565.25 157.027344 L 550.867188 170.941406 Z M 547.160156 174.515625 C 543.871094 170.742188 538.710938 168.859375 533.5625 169.925781 L 516.425781 139.179688 L 520.433594 125.804688 C 521.789062 126.121094 523.246094 126.109375 524.679688 125.699219 C 525.457031 125.484375 526.171875 125.152344 526.828125 124.75 L 550.4375 171.351562 Z M 547.875 192.289062 C 550.390625 188.871094 551.359375 184.371094 550.113281 179.96875 C 549.578125 178.082031 548.683594 176.394531 547.53125 174.957031 L 550.707031 171.882812 L 587.65625 244.832031 Z M 586.816406 263.558594 C 586.9375 263.984375 587.097656 264.390625 587.277344 264.785156 L 561.109375 283.601562 L 521.121094 221.460938 L 530.320312 196.679688 C 533.328125 198.117188 536.851562 198.507812 540.316406 197.53125 C 542.472656 196.917969 544.371094 195.835938 545.933594 194.433594 L 590.871094 253.789062 C 587.492188 255.667969 585.71875 259.675781 586.816406 263.558594 Z M 562.648438 285.996094 L 588.871094 267.140625 C 589.605469 267.898438 590.46875 268.511719 591.414062 268.953125 L 585.824219 313.304688 C 584.988281 313.28125 584.125 313.386719 583.277344 313.628906 C 582.476562 313.855469 581.738281 314.195312 581.070312 314.613281 Z M 527.945312 310.949219 L 562.1875 286.328125 L 580.601562 314.9375 C 578.800781 316.242188 577.585938 318.203125 577.207031 320.378906 L 528.898438 314.527344 C 528.875 313.878906 528.777344 313.226562 528.59375 312.582031 C 528.429688 312.003906 528.214844 311.460938 527.945312 310.949219 Z M 510.417969 250.292969 L 520.871094 222.125 L 560.648438 283.933594 L 526.214844 308.691406 C 524.546875 307.125 522.285156 306.265625 519.933594 306.390625 Z M 566.382812 400 C 566.417969 400.128906 566.460938 400.257812 566.503906 400.390625 L 533.449219 417.402344 L 528.757812 375.785156 L 566.21875 392.878906 C 565.683594 395.152344 565.699219 397.589844 566.382812 400 Z M 533.519531 418.003906 L 566.691406 400.9375 C 567.199219 402.367188 567.925781 403.667969 568.816406 404.820312 L 537.011719 448.957031 Z M 477.839844 521.277344 L 476.621094 460.9375 L 522.886719 468.554688 L 483.574219 523.101562 C 481.828125 522.105469 479.875 521.472656 477.839844 521.277344 Z M 434.539062 518.21875 L 463.097656 530.695312 C 462.199219 533.226562 462.007812 536.039062 462.695312 538.828125 L 422.324219 554.007812 Z M 414.785156 556.84375 L 407.816406 506.542969 L 434.019531 517.992188 L 421.632812 554.265625 Z M 415.511719 562.089844 L 415.183594 559.730469 L 420.441406 557.753906 L 418.890625 562.300781 C 417.808594 562.011719 416.667969 561.929688 415.511719 562.089844 Z M 408.75 562.148438 L 410.726562 564.421875 C 408.910156 566.195312 407.941406 568.730469 408.195312 571.34375 L 370.585938 576.503906 Z M 319.214844 583.546875 C 319.140625 583.546875 319.0625 583.546875 318.984375 583.546875 L 324.097656 483.730469 C 326.171875 484.105469 328.355469 484.027344 330.515625 483.417969 C 333.066406 482.695312 335.253906 481.320312 336.949219 479.527344 L 406.761719 559.859375 L 357.867188 578.246094 Z M 321.734375 583.777344 L 355.464844 579.148438 L 330.125 588.675781 C 327.988281 586.113281 325.007812 584.375 321.734375 583.777344 Z M 211.527344 485.109375 L 312.441406 470.535156 C 312.5 471.558594 312.667969 472.589844 312.960938 473.617188 C 313.003906 473.785156 313.0625 473.949219 313.113281 474.113281 L 226.707031 532.332031 L 208.5625 493.777344 C 210.945312 491.90625 212.152344 488.5625 211.527344 485.109375 Z M 151.582031 465.042969 L 208.84375 414.160156 L 226.515625 423.003906 L 206.40625 478.058594 C 204.773438 477.261719 202.941406 477.023438 201.15625 477.527344 C 197.332031 478.613281 195.078125 482.71875 195.695312 487.066406 L 159.804688 496.035156 Z M 138.519531 316.324219 C 139.566406 318.085938 141.203125 319.386719 143.089844 320.035156 L 129.128906 356.460938 C 127.019531 356.054688 124.785156 356.121094 122.578125 356.746094 C 120.390625 357.367188 118.472656 358.464844 116.898438 359.898438 L 87.191406 331.996094 Z M 53.964844 300.78125 L 102.785156 239.648438 C 104.589844 240.507812 106.703125 240.75 108.777344 240.160156 C 108.917969 240.121094 109.046875 240.070312 109.183594 240.023438 L 141.160156 304.824219 C 138.125 306.8125 136.589844 310.609375 137.632812 314.289062 C 137.734375 314.648438 137.863281 314.988281 138.007812 315.320312 L 86.445312 331.289062 Z M 25.214844 277.679688 L 51.769531 302.621094 L 15.84375 347.609375 C 14.738281 346.617188 13.394531 345.925781 11.9375 345.613281 L 22.28125 280.367188 C 23.390625 279.605469 24.378906 278.699219 25.214844 277.679688 Z M 25.03125 259.371094 C 23.304688 257.363281 21.054688 255.882812 18.550781 255.085938 L 28.910156 234.902344 Z M 26.878906 262.101562 L 98.449219 234.882812 C 99.167969 236.851562 100.546875 238.417969 102.269531 239.386719 L 53.550781 300.390625 L 26.8125 275.277344 C 28.464844 272.15625 28.964844 268.421875 27.925781 264.757812 C 27.660156 263.820312 27.308594 262.933594 26.878906 262.101562 Z M 54.019531 185.988281 L 99.253906 227.394531 C 98.386719 228.765625 97.910156 230.371094 97.929688 232.039062 L 25.582031 259.550781 L 29.746094 233.28125 Z M 40.601562 180.175781 C 42.242188 179.710938 43.59375 178.683594 44.554688 177.328125 L 51.847656 183.996094 L 31.171875 224.269531 L 38.125 180.421875 C 38.945312 180.484375 39.777344 180.410156 40.601562 180.175781 Z M 46.039062 170.480469 L 60.808594 166.539062 L 52.113281 183.476562 L 44.875 176.847656 C 45.953125 175.066406 46.402344 172.800781 46.039062 170.480469 Z M 61.160156 165.855469 L 45.933594 169.917969 C 45.886719 169.699219 45.839844 169.476562 45.777344 169.25 C 45.507812 168.300781 45.113281 167.425781 44.621094 166.636719 L 77.390625 134.234375 Z M 106.53125 105.425781 L 106.457031 153.761719 L 64.863281 164.867188 L 83.882812 127.816406 Z M 106.53125 102.824219 L 106.53125 104.625 L 84.714844 126.195312 L 97.574219 101.144531 C 100.230469 102.640625 103.363281 103.277344 106.53125 102.824219 Z M 179.679688 52.773438 L 181.570312 126.066406 C 181.308594 126.113281 181.046875 126.171875 180.78125 126.25 C 178.671875 126.847656 176.984375 128.195312 175.902344 129.914062 L 117.144531 95.3125 C 117.269531 95.070312 117.386719 94.828125 117.5 94.578125 L 142.339844 70.019531 Z M 179.398438 41.972656 L 179.597656 49.679688 L 148.285156 64.144531 L 173.855469 38.859375 C 175.230469 40.574219 177.226562 41.6875 179.398438 41.972656 Z M 200.523438 40.011719 L 188.410156 36.695312 C 188.640625 36.128906 188.808594 35.535156 188.910156 34.925781 L 216.210938 32.769531 Z M 252.652344 29.890625 L 245.167969 52.246094 L 204.78125 41.179688 L 224.390625 32.121094 Z M 253.503906 27.339844 L 252.847656 29.304688 L 225.882812 31.433594 L 246.902344 21.726562 C 248.480469 24.273438 250.808594 26.214844 253.503906 27.339844 Z M 269.976562 27.949219 L 268.109375 25.121094 C 270.144531 23.417969 271.65625 21.175781 272.480469 18.679688 L 303.507812 25.300781 Z M 347.449219 34.679688 L 303.867188 63.300781 C 301.789062 61.65625 298.984375 60.992188 296.242188 61.769531 C 295.144531 62.078125 294.160156 62.597656 293.316406 63.257812 L 270.335938 28.496094 L 305.460938 25.714844 Z M 362.628906 23.265625 C 362.746094 23.667969 362.894531 24.050781 363.058594 24.425781 L 350.792969 32.480469 L 315.402344 24.929688 L 362.320312 21.226562 C 362.34375 21.902344 362.4375 22.585938 362.628906 23.265625 Z M 420.761719 101.851562 L 410.539062 112 C 395.429688 105.816406 374.53125 97.246094 354.003906 88.832031 C 337.363281 82.007812 320.738281 75.191406 307.085938 69.597656 C 307.054688 68.949219 306.960938 68.300781 306.777344 67.652344 C 306.328125 66.066406 305.453125 64.71875 304.320312 63.6875 L 348.230469 34.84375 L 384.996094 42.6875 Z M 456.953125 65.914062 L 421.175781 101.4375 L 385.753906 42.851562 L 454.675781 57.558594 C 454.617188 59.035156 454.777344 60.546875 455.203125 62.046875 C 455.597656 63.453125 456.195312 64.746094 456.953125 65.914062 Z M 472.757812 71.847656 C 473.589844 71.613281 474.378906 71.304688 475.128906 70.9375 L 500.976562 117.308594 L 441.398438 120.085938 C 439.777344 116.128906 435.402344 113.933594 431.191406 115.128906 C 430.699219 115.269531 430.230469 115.457031 429.78125 115.671875 L 422.691406 103.941406 L 458.742188 68.136719 C 462.273438 71.71875 467.589844 73.3125 472.757812 71.847656 Z M 504.460938 117.71875 L 513.820312 117.277344 C 513.800781 118.117188 513.90625 118.972656 514.144531 119.820312 C 514.925781 122.578125 516.980469 124.625 519.488281 125.519531 L 515.8125 138.078125 Z M 522.371094 181.761719 L 504.277344 179.726562 L 515.289062 142.980469 L 530.796875 170.800781 C 526.199219 172.78125 523.085938 176.992188 522.371094 181.761719 Z M 504.621094 195.828125 C 506.691406 193.714844 507.605469 190.585938 506.742188 187.539062 C 506.175781 185.539062 504.941406 183.914062 503.351562 182.828125 L 503.453125 182.496094 L 522.238281 184.609375 C 522.296875 185.640625 522.460938 186.6875 522.753906 187.726562 C 523.632812 190.816406 525.464844 193.375 527.839844 195.175781 L 519.195312 218.46875 Z M 501.519531 197.847656 C 502.53125 197.472656 503.4375 196.914062 504.203125 196.226562 L 518.945312 219.136719 L 509.464844 244.683594 Z M 495.921875 281.171875 L 464.796875 241.152344 C 467.222656 239.054688 468.363281 235.667969 467.433594 232.378906 C 467.058594 231.066406 466.394531 229.917969 465.535156 228.972656 L 493.578125 196.800781 C 495.617188 198.253906 498.265625 198.808594 500.859375 198.074219 C 500.898438 198.0625 500.933594 198.046875 500.972656 198.035156 L 509.066406 245.75 Z M 516.324219 307.410156 L 497.972656 283.8125 L 510.023438 251.359375 L 519.363281 306.445312 C 518.929688 306.496094 518.496094 306.574219 518.058594 306.699219 C 517.441406 306.871094 516.867188 307.117188 516.324219 307.410156 Z M 487.398438 353.433594 C 488.550781 350.601562 488.804688 347.382812 487.902344 344.214844 C 487.558594 342.984375 487.054688 341.84375 486.429688 340.800781 L 514.230469 320.8125 C 516.242188 322.90625 519.261719 323.890625 522.257812 323.21875 L 527.757812 372.011719 Z M 474.632812 362.308594 C 475.78125 362.273438 476.949219 362.101562 478.105469 361.773438 C 481.390625 360.835938 484.078125 358.824219 485.886719 356.226562 L 528.15625 375.507812 L 532.910156 417.679688 L 476.335938 446.796875 Z M 463.316406 453.496094 C 461.882812 451.453125 459.777344 450.117188 457.53125 449.808594 L 470.890625 361.910156 C 471.1875 361.980469 471.480469 362.050781 471.78125 362.101562 L 473.519531 448.242188 Z M 465.136719 458.46875 C 465.074219 457.84375 464.964844 457.214844 464.78125 456.582031 C 464.515625 455.632812 464.117188 454.761719 463.632812 453.972656 L 473.53125 448.878906 L 473.757812 459.886719 Z M 452.464844 465.714844 C 454.46875 467.460938 457.089844 468.222656 459.605469 467.511719 C 463.117188 466.515625 465.296875 462.984375 465.164062 459.046875 L 473.765625 460.464844 L 474.996094 521.296875 C 474.203125 521.378906 473.410156 521.527344 472.617188 521.753906 C 469 522.78125 466.105469 525.125 464.308594 528.121094 L 435.464844 515.515625 Z M 395.167969 415.191406 L 402.597656 409.046875 L 450.082031 453.851562 C 449.046875 455.871094 448.75 458.40625 449.464844 460.929688 C 449.957031 462.660156 450.863281 464.148438 452.003906 465.292969 L 434.941406 515.289062 L 407.359375 503.242188 Z M 340.230469 473.910156 C 341.007812 471.378906 341.09375 468.601562 340.316406 465.859375 C 339.921875 464.453125 339.320312 463.15625 338.5625 461.992188 L 394.652344 415.621094 L 406.75 502.972656 Z M 309.773438 392.332031 L 385.144531 399.105469 C 385.109375 400.117188 385.226562 401.160156 385.523438 402.203125 C 385.796875 403.171875 386.203125 404.054688 386.703125 404.855469 L 336.125 459.152344 C 332.800781 456.175781 328.152344 454.828125 323.539062 455.863281 Z M 247.675781 391.296875 C 248.480469 389.984375 248.925781 388.453125 248.929688 386.871094 L 306.804688 392.066406 L 320.828125 456.761719 C 319.675781 457.277344 318.621094 457.929688 317.675781 458.699219 Z M 228.011719 420.570312 L 237.410156 394.839844 C 239.058594 395.457031 240.90625 395.585938 242.730469 395.066406 C 244.679688 394.515625 246.277344 393.324219 247.363281 391.785156 L 317.242188 459.066406 C 315.816406 460.320312 314.667969 461.84375 313.851562 463.527344 Z M 233.671875 392.09375 C 234.527344 393.195312 235.632812 394.058594 236.882812 394.625 L 227.5 420.316406 L 211.132812 412.128906 Z M 139.429688 376.246094 C 140.703125 373.398438 141.054688 370.125 140.222656 366.886719 L 188.828125 345.804688 L 234.601562 380.609375 C 232.332031 382.722656 231.289062 385.996094 232.195312 389.183594 C 232.449219 390.082031 232.839844 390.902344 233.335938 391.632812 L 210.582031 411.851562 Z M 138.003906 378.714844 L 208.296875 413.886719 L 151.417969 464.425781 L 130.117188 384.160156 C 130.1875 384.140625 130.261719 384.125 130.335938 384.105469 C 133.554688 383.191406 136.195312 381.238281 138.003906 378.714844 Z M 134.660156 358.816406 C 133.789062 358.199219 132.851562 357.6875 131.863281 357.277344 L 140.132812 335.695312 Z M 148.167969 320.167969 C 149.699219 319.734375 151.003906 318.902344 152.027344 317.824219 L 185.988281 343.648438 L 139.164062 364.050781 C 138.195312 362.109375 136.8125 360.460938 135.160156 359.179688 L 141.664062 331.710938 L 145.964844 320.484375 C 146.695312 320.46875 147.433594 320.375 148.167969 320.167969 Z M 114.824219 233.550781 L 176.589844 232.636719 L 149.191406 304.117188 C 147.457031 303.375 145.46875 303.199219 143.511719 303.753906 C 142.847656 303.941406 142.230469 304.210938 141.652344 304.535156 L 109.722656 239.828125 C 112.425781 238.710938 114.296875 236.3125 114.824219 233.550781 Z M 106.351562 223.433594 C 105.613281 223.441406 104.867188 223.535156 104.125 223.75 C 102.222656 224.285156 100.660156 225.4375 99.574219 226.917969 L 54.289062 185.464844 L 64.511719 165.546875 L 106.457031 154.351562 Z M 148.539062 143.117188 L 161.949219 159.375 L 111.921875 225.410156 C 110.523438 224.242188 108.773438 223.546875 106.921875 223.445312 L 107.023438 154.203125 Z M 174.660156 135.558594 L 151.160156 141.832031 L 115.160156 98.191406 C 115.8125 97.460938 116.386719 96.660156 116.871094 95.816406 L 175.609375 130.402344 C 174.777344 131.941406 174.421875 133.734375 174.660156 135.558594 Z M 187.3125 141.871094 L 205.15625 171.761719 L 200.148438 186.722656 C 197.253906 185.480469 193.929688 185.183594 190.660156 186.109375 C 189.871094 186.332031 189.117188 186.621094 188.398438 186.96875 L 164.085938 157.496094 L 177.015625 140.425781 C 179.128906 142.582031 182.328125 143.546875 185.4375 142.664062 C 186.109375 142.472656 186.730469 142.199219 187.3125 141.871094 Z M 266.746094 164.753906 L 216.589844 146.570312 L 229.972656 106.589844 L 290.390625 72.390625 C 291.15625 74.980469 293.042969 76.933594 295.371094 77.878906 Z M 305.480469 86.824219 L 336.625 168.046875 L 298.394531 176.230469 L 267.28125 164.953125 L 295.902344 78.082031 C 297.164062 78.5 298.535156 78.617188 299.910156 78.398438 Z M 367.359375 154.882812 C 363.832031 151.328125 358.539062 149.75 353.382812 151.210938 C 352.839844 151.363281 352.316406 151.550781 351.808594 151.761719 L 302.6875 77.441406 C 305.339844 75.984375 307.015625 73.214844 307.097656 70.21875 C 320.710938 75.792969 337.238281 82.570312 353.785156 89.355469 C 373.476562 97.429688 393.171875 105.503906 407.945312 111.554688 C 408.679688 111.855469 409.394531 112.144531 410.101562 112.4375 Z M 425.804688 118.855469 C 425.933594 118.910156 426.050781 118.957031 426.175781 119.003906 C 425.027344 120.945312 424.644531 123.328125 425.308594 125.664062 C 425.433594 126.09375 425.59375 126.503906 425.777344 126.898438 C 424.105469 128.398438 422.03125 130.265625 419.441406 132.613281 C 412.640625 138.785156 403.195312 147.417969 391.386719 158.277344 C 388.550781 160.886719 385.707031 163.5 382.914062 166.070312 L 371.480469 164.78125 C 371.46875 163.535156 371.296875 162.269531 370.9375 161.007812 C 370.539062 159.585938 369.929688 158.277344 369.160156 157.101562 L 412.960938 113.605469 C 418.136719 115.726562 422.511719 117.511719 425.804688 118.855469 Z M 426.484375 118.519531 C 423.179688 117.171875 418.714844 115.347656 413.402344 113.171875 L 422.277344 104.355469 L 429.28125 115.9375 C 428.148438 116.585938 427.195312 117.472656 426.484375 118.519531 Z M 444.664062 173.015625 L 383.660156 166.152344 C 400.34375 150.792969 417.035156 135.492188 426.035156 127.425781 C 427.753906 130.578125 431.316406 132.355469 434.917969 131.75 Z M 488.121094 177.90625 L 445.265625 173.085938 L 435.476562 131.628906 C 435.597656 131.597656 435.71875 131.582031 435.84375 131.542969 C 437.300781 131.132812 438.550781 130.363281 439.546875 129.367188 Z M 492.25 181.234375 L 496.15625 181.675781 C 495.292969 181.925781 494.5 182.300781 493.796875 182.773438 Z M 460.628906 343.941406 L 420.804688 333.152344 C 426.289062 319.683594 431.785156 306.21875 437.269531 292.753906 L 465.164062 337.132812 C 463.011719 338.917969 461.4375 341.292969 460.628906 343.941406 Z M 464.171875 358.144531 C 465.886719 359.855469 468.015625 361.105469 470.339844 361.769531 L 456.96875 449.746094 C 456.195312 449.703125 455.414062 449.78125 454.640625 450 C 452.808594 450.519531 451.335938 451.734375 450.363281 453.335938 L 403.042969 408.679688 Z M 399.820312 405.636719 C 401.179688 403.523438 401.644531 400.683594 400.847656 397.859375 C 400.566406 396.878906 400.148438 395.972656 399.632812 395.164062 L 461.191406 353.761719 C 461.519531 354.53125 461.917969 355.257812 462.367188 355.941406 L 400.957031 406.714844 Z M 394.3125 409.019531 C 394.765625 408.988281 395.21875 408.914062 395.664062 408.785156 C 397.238281 408.34375 398.542969 407.386719 399.496094 406.113281 L 400.519531 407.078125 L 394.710938 411.882812 Z M 349.980469 316.902344 L 419.171875 335.652344 C 411.519531 354.417969 403.875 373.179688 396.222656 391.945312 C 394.527344 391.035156 392.585938 390.742188 390.703125 391.277344 C 390.285156 391.394531 389.890625 391.558594 389.511719 391.75 Z M 309.628906 391.664062 L 338.625 394.351562 L 309.644531 391.753906 Z M 241.300781 323.046875 L 274.785156 308.523438 C 277.730469 314 284.011719 317.011719 290.25 315.675781 L 295.589844 340.316406 L 245.914062 380.347656 C 244.621094 379.253906 243.019531 378.566406 241.316406 378.378906 Z M 240.734375 323.292969 L 240.746094 378.335938 C 239.867188 378.300781 238.96875 378.398438 238.074219 378.652344 C 236.929688 378.976562 235.90625 379.523438 235.035156 380.226562 L 189.425781 345.546875 Z M 154.046875 309.636719 C 153.796875 308.753906 153.417969 307.949219 152.9375 307.230469 L 230.550781 240.316406 L 240.714844 252.09375 L 240.734375 319.796875 L 186.585938 343.390625 L 152.410156 317.398438 C 154.136719 315.3125 154.84375 312.4375 154.046875 309.636719 Z M 179.652344 232.589844 L 223.324219 231.945312 L 230.179688 239.886719 L 152.601562 306.765625 C 152.308594 306.382812 151.980469 306.03125 151.628906 305.707031 Z M 114.386719 228.824219 L 180.832031 203.554688 C 180.839844 203.59375 180.847656 203.632812 180.859375 203.667969 C 181.628906 206.378906 183.136719 208.679688 185.101562 210.421875 L 176.808594 232.0625 L 114.921875 232.984375 C 115.054688 231.890625 114.980469 230.753906 114.660156 229.628906 C 114.582031 229.355469 114.488281 229.082031 114.386719 228.824219 Z M 222.839844 231.382812 L 179.871094 232.019531 L 187.492188 212.136719 C 190.691406 213.960938 194.59375 214.554688 198.417969 213.46875 C 200.746094 212.808594 202.777344 211.601562 204.402344 210.027344 Z M 208.679688 198.335938 L 219.621094 195.992188 L 236.667969 224.550781 C 234.617188 226.144531 233.386719 228.605469 233.367188 231.226562 L 226.546875 231.328125 L 206.265625 207.828125 C 208.128906 205.105469 209.035156 201.757812 208.679688 198.335938 Z M 207.078125 174.984375 L 218.082031 193.414062 L 208.105469 195.550781 C 207.132812 192.429688 205.175781 189.875 202.675781 188.132812 Z M 213.734375 146.144531 L 205.394531 171.050781 L 187.800781 141.578125 C 189.195312 140.664062 190.273438 139.367188 190.925781 137.875 Z M 260.28125 184.382812 L 218.667969 193.289062 L 207.316406 174.269531 L 216.410156 147.113281 L 266.570312 165.296875 Z M 260.925781 184.246094 L 267.105469 165.492188 L 297.34375 176.453125 Z M 342.554688 192.839844 L 339.136719 199.4375 L 249.8125 228.117188 C 249.304688 226.84375 248.511719 225.757812 247.53125 224.894531 L 259.894531 187.378906 L 302.386719 178.28125 Z M 344.613281 188.875 L 342.816406 192.332031 L 303.4375 178.058594 L 337.65625 170.734375 Z M 343.148438 166.648438 L 337.1875 167.925781 L 306.933594 89.023438 L 349.292969 153.113281 C 344.921875 156.066406 342.472656 161.292969 343.148438 166.648438 Z M 356.679688 190.28125 C 354.5625 188.179688 351.414062 187.253906 348.34375 188.121094 C 348.289062 188.140625 348.234375 188.160156 348.175781 188.179688 L 353.191406 178.507812 C 355.695312 179.261719 358.4375 179.335938 361.140625 178.570312 C 362.375 178.21875 363.523438 177.714844 364.574219 177.082031 L 366.921875 180.816406 C 362.902344 184.527344 359.386719 187.769531 356.679688 190.28125 Z M 383.777344 207.640625 C 375.253906 204.695312 366.851562 201.710938 358.863281 198.679688 C 359.289062 197.203125 359.332031 195.59375 358.878906 194.003906 C 358.519531 192.734375 357.882812 191.621094 357.066406 190.691406 C 360.265625 187.738281 363.679688 184.582031 367.226562 181.304688 Z M 369.046875 178.855469 L 366.859375 175.378906 C 369.101562 173.324219 370.628906 170.59375 371.214844 167.613281 L 380.148438 168.621094 C 376.246094 172.210938 372.492188 175.671875 369.046875 178.855469 Z M 451.496094 231.101562 C 436.949219 225.617188 421.078125 220.265625 405.644531 215.066406 C 399.8125 213.101562 393.921875 211.117188 388.0625 209.113281 L 369.351562 179.34375 C 373.109375 175.875 376.984375 172.300781 380.894531 168.703125 L 445.359375 175.957031 L 457.277344 226.410156 C 457.148438 226.441406 457.023438 226.460938 456.898438 226.496094 C 454.417969 227.203125 452.507812 228.9375 451.496094 231.101562 Z M 419.335938 258.875 L 452.347656 239.742188 C 453.492188 241.300781 455.125 242.414062 456.964844 242.921875 C 450.71875 258.253906 444.46875 273.585938 438.21875 288.917969 Z M 336.695312 307.921875 C 338.773438 309.5625 341.570312 310.222656 344.308594 309.449219 C 344.628906 309.355469 344.933594 309.246094 345.234375 309.125 L 347.417969 313.257812 L 334.441406 309.742188 Z M 301.480469 300.808594 C 301.414062 299.839844 301.25 298.863281 300.972656 297.894531 C 300.035156 294.582031 297.996094 291.875 295.363281 290.066406 L 303.308594 274.734375 L 334.851562 296.570312 C 333.546875 298.566406 333.074219 301.09375 333.777344 303.566406 C 334.226562 305.160156 335.109375 306.511719 336.253906 307.550781 L 333.761719 309.558594 Z M 292.972656 314.808594 C 297.585938 312.804688 300.707031 308.539062 301.378906 303.726562 L 331.027344 311.761719 L 298.066406 338.320312 Z M 239.566406 223.082031 C 238.675781 223.335938 237.859375 223.726562 237.128906 224.21875 L 220.207031 195.871094 L 259.25 187.511719 L 247.058594 224.515625 C 244.996094 222.945312 242.253906 222.320312 239.566406 223.082031 Z M 344.960938 188.199219 L 338.21875 170.613281 L 343.785156 169.421875 C 344.976562 172.972656 347.457031 175.765625 350.550781 177.417969 Z M 350.023438 204.828125 L 343.351562 292.824219 C 342.15625 292.632812 340.898438 292.679688 339.65625 293.03125 C 337.792969 293.558594 336.265625 294.671875 335.179688 296.105469 L 303.574219 274.226562 L 342.574219 198.988281 C 343.671875 202.339844 346.671875 204.574219 350.023438 204.828125 Z M 416.574219 259.820312 L 350.015625 298.394531 C 349.019531 295.578125 346.671875 293.574219 343.914062 292.929688 L 350.59375 204.859375 C 351.390625 204.863281 352.195312 204.765625 352.996094 204.535156 C 355.746094 203.757812 357.785156 201.714844 358.691406 199.222656 C 366.882812 202.332031 375.515625 205.390625 384.261719 208.410156 Z M 452.023438 239.273438 L 419.039062 258.394531 L 388.546875 209.878906 C 394.183594 211.808594 399.855469 213.714844 405.464844 215.609375 C 420.886719 220.804688 436.742188 226.148438 451.277344 231.628906 C 450.628906 233.296875 450.488281 235.175781 451.015625 237.03125 C 451.242188 237.847656 451.59375 238.59375 452.023438 239.273438 Z M 250 228.660156 L 338.765625 200.152344 L 301.214844 272.59375 L 248.792969 236.300781 C 250.273438 234.257812 250.84375 231.585938 250.101562 228.964844 C 250.070312 228.859375 250.03125 228.761719 250 228.660156 Z M 241.285156 248.398438 L 241.28125 239.792969 C 242.246094 239.863281 243.238281 239.777344 244.21875 239.5 C 245.941406 239.011719 247.382812 238.03125 248.445312 236.753906 L 300.953125 273.101562 L 292.871094 288.695312 C 289.984375 287.460938 286.671875 287.171875 283.417969 288.09375 C 281.371094 288.675781 279.558594 289.675781 278.039062 290.976562 Z M 276.070312 293.046875 C 273.425781 296.457031 272.363281 301.015625 273.574219 305.488281 L 241.300781 319.550781 L 241.285156 252.75 Z M 235.078125 236.414062 C 236.441406 238.222656 238.476562 239.421875 240.714844 239.738281 L 240.714844 247.738281 L 232.703125 238.457031 Z M 234.742188 235.945312 L 232.332031 238.027344 L 227.03125 231.886719 L 233.382812 231.792969 C 233.417969 232.398438 233.515625 233.011719 233.6875 233.617188 C 233.925781 234.46875 234.285156 235.246094 234.742188 235.945312 Z M 348.167969 313.460938 L 345.75 308.886719 C 349.367188 307.109375 351.316406 302.964844 350.199219 298.945312 L 416.878906 260.300781 L 436.898438 292.160156 C 431.347656 305.773438 425.800781 319.386719 420.25 333 Z M 460.96875 353.222656 L 399.320312 394.691406 C 398.597656 393.683594 397.710938 392.851562 396.722656 392.234375 C 404.390625 373.425781 412.058594 354.613281 419.71875 335.804688 L 460.070312 346.738281 C 459.90625 348.449219 460.046875 350.214844 460.546875 351.96875 C 460.667969 352.398438 460.8125 352.8125 460.96875 353.222656 Z M 189.886719 129.28125 L 226.273438 108.683594 L 213.914062 145.605469 L 191.128906 137.34375 C 191.714844 135.722656 191.824219 133.914062 191.316406 132.128906 C 191.015625 131.066406 190.519531 130.109375 189.886719 129.28125 Z M 185.945312 188.460938 C 182.191406 191.3125 180.039062 195.90625 180.347656 200.699219 L 112.878906 226.355469 C 112.707031 226.160156 112.53125 225.972656 112.34375 225.792969 L 162.320312 159.824219 Z M 176.628906 139.992188 L 163.710938 157.042969 L 151.558594 142.3125 L 174.75 136.121094 C 174.792969 136.339844 174.839844 136.5625 174.902344 136.78125 C 175.25 138.003906 175.851562 139.085938 176.628906 139.992188 Z M 306.660156 391.386719 L 306.679688 391.484375 L 248.914062 386.300781 C 248.90625 386.207031 248.894531 386.117188 248.886719 386.027344 Z M 248.8125 385.449219 C 248.761719 385.144531 248.695312 384.839844 248.609375 384.53125 C 248.183594 383.03125 247.378906 381.75 246.335938 380.738281 L 295.726562 340.9375 L 306.53125 390.804688 Z M 393.742188 409.046875 L 394.195312 412.304688 L 336.785156 459.777344 C 336.703125 459.695312 336.621094 459.613281 336.539062 459.535156 L 387.027344 405.34375 C 388.667969 407.644531 391.164062 409.042969 393.742188 409.046875 Z M 385.222656 398.105469 L 309.503906 391.082031 L 298.203125 338.941406 L 331.703125 311.945312 L 349.234375 316.695312 L 389.011719 392.019531 C 386.933594 393.257812 385.570312 395.515625 385.222656 398.105469 Z M 476.300781 334.023438 C 474.367188 333.738281 472.347656 333.847656 470.347656 334.410156 C 469.347656 334.695312 468.40625 335.082031 467.527344 335.550781 L 438.589844 289.511719 C 444.902344 274.027344 451.214844 258.542969 457.523438 243.058594 C 458.816406 243.324219 460.191406 243.296875 461.550781 242.914062 C 462.597656 242.617188 463.535156 242.128906 464.355469 241.511719 L 495.6875 281.800781 Z M 497.589844 329.273438 L 484.734375 338.515625 C 484.625 338.394531 484.507812 338.269531 484.394531 338.148438 Z M 512.636719 318.453125 L 512.382812 318.636719 L 483.976562 337.742188 C 482.566406 336.414062 480.890625 335.390625 479.074219 334.730469 L 497.742188 284.441406 L 515.828125 307.699219 C 512.714844 309.664062 511.121094 313.507812 512.179688 317.230469 C 512.300781 317.660156 512.460938 318.0625 512.636719 318.453125 Z M 493.125 196.457031 L 465.136719 228.566406 C 463.238281 226.742188 460.550781 225.839844 457.832031 226.289062 L 445.960938 176.027344 L 491.347656 181.132812 L 493.324219 183.113281 C 490.648438 185.179688 489.347656 188.738281 490.324219 192.191406 C 490.820312 193.933594 491.824219 195.390625 493.125 196.457031 Z M 502.832031 182.425781 L 502.808594 182.488281 C 502.769531 182.460938 502.71875 182.433594 502.675781 182.40625 Z M 441.601562 120.648438 L 501.289062 117.863281 L 514.6875 141.90625 L 503.644531 179.652344 L 489.027344 178.007812 L 439.933594 128.949219 C 441.769531 126.847656 442.542969 123.894531 441.726562 121.011719 C 441.6875 120.886719 441.640625 120.769531 441.601562 120.648438 Z M 291.332031 65.480469 C 290.191406 67.316406 289.75 69.570312 290.25 71.820312 L 230.242188 105.78125 L 247.734375 53.539062 Z M 255.925781 29.0625 L 256.226562 28.171875 C 258.359375 28.59375 260.621094 28.535156 262.855469 27.90625 C 263.886719 27.613281 264.851562 27.210938 265.753906 26.722656 L 266.738281 28.207031 Z M 267.097656 28.75 L 290.90625 64.773438 L 247.914062 52.996094 L 255.730469 29.648438 Z M 180.160156 49.417969 L 179.96875 42.023438 C 180.910156 42.082031 181.875 41.996094 182.832031 41.722656 C 185.273438 41.03125 187.15625 39.339844 188.179688 37.21875 L 199.722656 40.386719 Z M 203.980469 41.546875 L 244.988281 52.78125 L 226.542969 107.878906 L 189.519531 128.835938 C 187.703125 126.769531 184.957031 125.664062 182.136719 125.988281 L 180.242188 52.515625 Z M 107.101562 104.0625 L 107.101562 102.734375 C 107.539062 102.652344 107.976562 102.554688 108.410156 102.429688 C 108.578125 102.378906 108.746094 102.328125 108.910156 102.277344 Z M 110.21875 101.78125 C 111.246094 101.332031 112.199219 100.773438 113.070312 100.121094 L 148.140625 142.636719 L 107.023438 153.613281 L 107.097656 104.863281 Z M 206.914062 478.332031 L 227.027344 423.257812 L 312.867188 466.210938 C 312.554688 467.425781 312.398438 468.683594 312.421875 469.964844 L 211.402344 484.550781 C 211.367188 484.402344 211.339844 484.257812 211.300781 484.109375 C 210.566406 481.527344 208.925781 479.492188 206.914062 478.332031 Z M 414.636719 559.933594 L 414.949219 562.1875 C 414.753906 562.230469 414.554688 562.269531 414.351562 562.324219 C 413.132812 562.671875 412.058594 563.273438 411.152344 564.042969 L 409.320312 561.9375 Z M 407.332031 559.648438 L 337.335938 479.101562 C 338.027344 478.308594 338.625 477.449219 339.125 476.53125 L 407.207031 506.277344 L 414.238281 557.050781 Z M 517.027344 110.832031 C 515.230469 112.273438 514.078125 114.402344 513.867188 116.707031 L 504.152344 117.164062 L 477.546875 69.4375 C 477.738281 69.292969 477.914062 69.140625 478.09375 68.988281 Z M 482.210938 63.089844 L 519.292969 109.535156 C 518.640625 109.785156 518.039062 110.109375 517.484375 110.492188 L 478.515625 68.613281 C 480.171875 67.082031 481.429688 65.1875 482.210938 63.089844 Z M 373.164062 29.144531 C 374.203125 28.847656 375.140625 28.363281 375.960938 27.75 L 382.972656 39.347656 L 351.570312 32.652344 L 363.308594 24.941406 C 365.152344 28.417969 369.226562 30.261719 373.164062 29.144531 Z M 116.917969 81.761719 L 140.820312 70.722656 L 118.011719 93.273438 C 118.898438 90.648438 119.027344 87.738281 118.214844 84.871094 C 117.898438 83.761719 117.457031 82.726562 116.917969 81.761719 Z M 16.261719 347.996094 L 52.183594 303.011719 L 83.320312 332.261719 L 18.523438 352.328125 C 18.480469 352.09375 18.429688 351.859375 18.363281 351.625 C 17.960938 350.210938 17.226562 348.976562 16.261719 347.996094 Z M 251.511719 585.050781 L 227.929688 534.933594 L 314.273438 476.761719 C 315.875 479.585938 318.378906 481.726562 321.296875 482.910156 L 316.121094 583.886719 C 315.855469 583.941406 315.59375 584.007812 315.335938 584.082031 L 261.800781 591.425781 C 261.769531 591.285156 261.742188 591.144531 261.703125 591.003906 C 260.453125 586.589844 255.9375 583.988281 251.511719 585.050781 Z M 523.261719 468.039062 L 476.605469 460.355469 L 476.347656 447.425781 L 532.976562 418.28125 L 536.519531 449.640625 Z M 536.570312 461.652344 C 533.300781 462.582031 531.183594 465.710938 531.019531 469.316406 L 526.390625 468.554688 L 536.992188 453.847656 L 537.84375 461.425781 C 537.417969 461.464844 536.996094 461.53125 536.570312 461.652344 Z M 567.164062 390.144531 L 528.363281 372.285156 L 522.808594 323.078125 C 523.386719 322.910156 523.929688 322.683594 524.441406 322.40625 L 570.304688 385.777344 C 568.988281 387.023438 567.921875 388.511719 567.164062 390.144531 Z M 578.929688 148.15625 C 577.644531 143.621094 572.925781 140.988281 568.394531 142.273438 C 567.570312 142.507812 566.804688 142.863281 566.113281 143.300781 L 482.78125 61.113281 C 483.25 58.925781 483.214844 56.59375 482.5625 54.289062 C 480.417969 46.734375 472.558594 42.34375 465.003906 44.488281 C 461.035156 45.609375 457.953125 48.320312 456.21875 51.726562 L 379.082031 23.101562 C 379.457031 21.675781 379.476562 20.132812 379.042969 18.609375 C 377.757812 14.078125 373.042969 11.445312 368.511719 12.726562 C 365.554688 13.566406 363.410156 15.863281 362.628906 18.617188 L 273.191406 13.800781 C 273.15625 12.65625 272.984375 11.496094 272.65625 10.34375 C 270.515625 2.789062 262.65625 -1.597656 255.101562 0.546875 C 248.179688 2.507812 243.917969 9.269531 244.902344 16.203125 L 187.753906 29.027344 C 185.800781 25.871094 181.925781 24.246094 178.179688 25.308594 C 173.6875 26.582031 171.066406 31.222656 172.269531 35.722656 L 113.402344 77.644531 C 109.9375 74.882812 105.242188 73.769531 100.65625 75.070312 C 93.101562 77.210938 88.714844 85.070312 90.855469 92.625 C 91.316406 94.25 92.042969 95.71875 92.972656 97.011719 L 40.933594 163.21875 C 39.289062 162.402344 37.433594 162.15625 35.632812 162.667969 C 31.40625 163.867188 29.085938 168.757812 30.457031 173.59375 C 31.066406 175.738281 32.296875 177.503906 33.847656 178.707031 L 14.304688 254.417969 C 13.003906 254.414062 11.683594 254.585938 10.367188 254.957031 C 2.8125 257.097656 -1.574219 264.960938 0.566406 272.515625 C 1.984375 277.515625 5.90625 281.125 10.585938 282.375 L 8.996094 345.515625 C 8.609375 345.566406 8.21875 345.632812 7.828125 345.746094 C 3.296875 347.03125 0.664062 351.746094 1.949219 356.28125 C 3.179688 360.625 7.5625 363.214844 11.914062 362.292969 L 51.128906 445.113281 C 44.660156 447.886719 41.097656 455.09375 43.070312 462.046875 C 45.210938 469.601562 53.070312 473.992188 60.625 471.851562 C 62.796875 471.238281 64.699219 470.148438 66.269531 468.734375 L 82.332031 483.136719 L 93.761719 503.292969 C 91.25 505.371094 90.109375 509.121094 91.164062 512.847656 C 92.539062 517.683594 97.078125 520.632812 101.308594 519.433594 C 105.140625 518.347656 107.390625 514.230469 106.769531 509.875 L 110.980469 508.820312 L 167.015625 559.066406 C 163.714844 562.585938 162.285156 567.703125 163.699219 572.683594 C 165.839844 580.238281 173.699219 584.625 181.253906 582.484375 C 185.449219 581.296875 188.664062 578.34375 190.328125 574.660156 L 245.269531 591.121094 C 244.878906 592.5625 244.851562 594.121094 245.289062 595.660156 C 246.574219 600.191406 251.289062 602.828125 255.824219 601.542969 C 259.144531 600.601562 261.4375 597.8125 261.921875 594.605469 L 304.980469 598.121094 C 305.011719 599.289062 305.175781 600.46875 305.507812 601.644531 C 307.652344 609.199219 315.511719 613.585938 323.066406 611.445312 C 330.558594 609.320312 334.929688 601.574219 332.917969 594.082031 L 408.6875 573.488281 C 410.214844 577.632812 414.691406 579.964844 419.007812 578.742188 C 423.539062 577.453125 426.171875 572.738281 424.886719 568.207031 C 424.742188 567.695312 424.550781 567.210938 424.328125 566.75 L 464.804688 543.511719 C 468.167969 548.382812 474.363281 550.820312 480.378906 549.113281 C 487.929688 546.96875 492.320312 539.109375 490.175781 531.554688 C 489.597656 529.5 488.589844 527.683594 487.28125 526.164062 L 535.015625 477.863281 C 536.925781 479.25 539.269531 479.804688 541.535156 479.164062 C 545.761719 477.964844 548.082031 473.070312 546.710938 468.234375 C 546.25 466.601562 545.421875 465.191406 544.371094 464.078125 L 573.03125 408.472656 C 576.226562 410.292969 580.125 410.878906 583.9375 409.796875 C 591.492188 407.65625 595.882812 399.792969 593.742188 392.238281 C 592.539062 388.015625 589.554688 384.789062 585.832031 383.132812 L 591.871094 327.609375 C 593.8125 325.5 594.652344 322.46875 593.8125 319.507812 C 593.609375 318.800781 593.320312 318.140625 592.96875 317.535156 L 598.230469 269.132812 C 602.214844 267.523438 604.429688 263.136719 603.234375 258.90625 C 602.28125 255.539062 599.429688 253.230469 596.171875 252.785156 L 574.273438 158.226562 C 578.035156 156.503906 580.089844 152.261719 578.929688 148.15625 " fill-opacity="1" fill-rule="nonzero"/></g></svg>