<svg xmlns="http://www.w3.org/2000/svg" xmlns:xlink="http://www.w3.org/1999/xlink" width="1056" zoomAndPan="magnify" viewBox="0 0 792 611.999999" height="816" preserveAspectRatio="xMidYMid meet" version="1.0"><defs><clipPath id="40e69c863c"><path d="M 136.285156 9.582031 L 739.285156 9.582031 L 739.285156 610.746094 L 136.285156 610.746094 Z M 136.285156 9.582031 " clip-rule="nonzero"/></clipPath></defs><path fill="#1676bb" d="M 500.15625 76.5625 C 595.136719 76.5625 672.398438 153.769531 672.398438 248.699219 C 672.398438 343.683594 595.136719 420.941406 500.15625 420.941406 C 405.332031 420.941406 328.234375 343.683594 328.234375 248.699219 C 328.234375 153.769531 405.386719 76.5625 500.15625 76.5625 Z M 500.15625 430.417969 C 600.386719 430.417969 681.929688 348.929688 681.929688 248.699219 C 681.929688 148.523438 600.386719 67.085938 500.15625 67.085938 C 400.140625 67.085938 318.703125 148.574219 318.703125 248.699219 C 318.703125 348.929688 400.140625 430.417969 500.15625 430.417969 " fill-opacity="1" fill-rule="nonzero"/><g clip-path="url(#40e69c863c)"><path fill="#1676bb" d="M 166.484375 526.792969 L 269.175781 424.101562 L 322.984375 477.910156 L 220.398438 580.550781 C 205.890625 594.953125 180.886719 594.898438 166.484375 580.605469 C 151.652344 565.828125 151.542969 541.679688 166.484375 526.792969 Z M 292.789062 367.347656 C 313.507812 403.488281 343.332031 433.683594 379.152344 454.835938 L 353.074219 481.015625 L 266.125 394.066406 Z M 500.15625 28.589844 C 621.585938 28.589844 720.371094 127.320312 720.371094 248.699219 C 720.371094 370.078125 621.585938 468.863281 500.15625 468.863281 C 378.882812 468.863281 280.207031 370.078125 280.207031 248.699219 C 280.207031 127.320312 378.882812 28.589844 500.15625 28.589844 Z M 153.042969 594.097656 C 175.425781 616.261719 211.351562 616.371094 233.839844 594.042969 L 336.476562 491.351562 L 346.328125 501.203125 C 350.023438 504.894531 356.074219 504.949219 359.769531 501.203125 L 396.605469 464.257812 C 427.980469 479.410156 463.105469 487.921875 500.15625 487.921875 C 632.082031 487.921875 739.378906 380.570312 739.378906 248.699219 C 739.378906 116.824219 632.082031 9.582031 500.15625 9.582031 C 368.390625 9.582031 261.144531 116.878906 261.144531 248.699219 C 261.144531 284.734375 269.230469 318.945312 283.578125 349.625 L 245.9375 387.371094 C 242.246094 391.066406 242.246094 397.117188 245.9375 400.8125 L 255.738281 410.609375 L 152.992188 513.355469 C 130.769531 535.574219 130.664062 571.714844 153.042969 594.097656 " fill-opacity="1" fill-rule="nonzero"/></g><path fill="#1676bb" d="M 439.171875 311.929688 C 440.027344 313.429688 441.632812 314.339844 443.347656 314.339844 C 445.433594 314.339844 447.363281 312.949219 447.898438 310.859375 L 477.292969 205.597656 L 506.578125 310.859375 C 507.117188 312.949219 508.988281 314.339844 511.132812 314.339844 C 513.273438 314.339844 515.148438 312.949219 515.683594 310.859375 L 546.09375 201.957031 L 574.578125 266.636719 C 575.328125 268.347656 577.039062 269.472656 578.914062 269.472656 L 625.976562 269.472656 C 628.601562 269.472656 630.742188 267.332031 630.742188 264.707031 C 630.742188 262.085938 628.601562 259.941406 625.976562 259.941406 L 582.074219 259.941406 L 549.46875 185.949219 C 548.664062 184.128906 546.898438 182.949219 544.753906 183.109375 C 542.773438 183.269531 541.0625 184.664062 540.523438 186.589844 L 511.132812 291.851562 L 481.898438 186.589844 C 481.308594 184.554688 479.433594 183.109375 477.292969 183.109375 C 475.152344 183.109375 473.277344 184.554688 472.6875 186.589844 L 441.792969 297.367188 L 421.824219 262.351562 C 420.964844 260.851562 419.359375 259.941406 417.699219 259.941406 L 374.601562 259.941406 C 371.921875 259.941406 369.835938 262.085938 369.835938 264.707031 C 369.835938 267.332031 371.921875 269.472656 374.601562 269.472656 L 414.917969 269.472656 L 439.171875 311.929688 " fill-opacity="1" fill-rule="nonzero"/></svg>