<svg xmlns="http://www.w3.org/2000/svg" xmlns:xlink="http://www.w3.org/1999/xlink" width="1056" zoomAndPan="magnify" viewBox="0 0 792 611.999999" height="816" preserveAspectRatio="xMidYMid meet" version="1.0"><defs><clipPath id="8d19b6c5b7"><path d="M 7.625 120.320312 L 367 120.320312 L 367 521.570312 L 7.625 521.570312 Z M 7.625 120.320312 " clip-rule="nonzero"/></clipPath><clipPath id="a1c897f1dc"><path d="M 424 120.320312 L 784.625 120.320312 L 784.625 521.570312 L 424 521.570312 Z M 424 120.320312 " clip-rule="nonzero"/></clipPath></defs><path fill="#1675ba" d="M 207.933594 241.652344 C 164.257812 241.652344 129.070312 276.835938 129.070312 320.515625 C 129.070312 364.191406 164.257812 399.378906 207.933594 399.378906 C 251.613281 399.378906 286.796875 364.191406 286.796875 320.515625 C 286.796875 276.835938 251.613281 241.652344 207.933594 241.652344 Z M 207.933594 375.113281 C 177.601562 375.113281 153.335938 350.847656 153.335938 320.515625 C 153.335938 290.183594 177.601562 265.917969 207.933594 265.917969 C 238.265625 265.917969 262.53125 290.183594 262.53125 320.515625 C 262.53125 350.847656 238.265625 375.113281 207.933594 375.113281 Z M 207.933594 375.113281 " fill-opacity="1" fill-rule="nonzero"/><path fill="#1675ba" d="M 584.054688 375.113281 C 569.496094 375.113281 556.148438 369.046875 546.441406 359.945312 L 527.03125 374.503906 C 541.589844 389.671875 561.609375 399.378906 584.054688 399.378906 C 627.734375 399.378906 662.917969 364.191406 662.917969 320.515625 C 662.917969 276.835938 627.734375 241.652344 584.054688 241.652344 C 561.609375 241.652344 540.984375 251.355469 527.03125 266.523438 L 546.441406 281.082031 C 556.148438 271.984375 569.496094 265.917969 584.054688 265.917969 C 614.386719 265.917969 638.652344 290.183594 638.652344 320.515625 C 638.652344 350.847656 614.386719 375.113281 584.054688 375.113281 Z M 584.054688 375.113281 " fill-opacity="1" fill-rule="nonzero"/><g clip-path="url(#8d19b6c5b7)"><path fill="#1675ba" d="M 346.25 397.558594 C 349.28125 392.707031 351.710938 387.246094 354.136719 381.785156 C 345.644531 378.753906 338.96875 373.292969 334.117188 366.011719 C 331.082031 373.898438 328.050781 381.179688 323.804688 388.457031 C 319.558594 396.34375 320.769531 406.050781 326.835938 412.117188 L 341.398438 426.675781 C 343.824219 429.105469 343.214844 433.957031 339.578125 437.597656 L 325.015625 452.15625 C 321.378906 456.402344 315.3125 455.191406 314.097656 453.976562 L 299.539062 439.417969 C 293.472656 433.351562 283.765625 432.136719 275.878906 436.382812 C 264.960938 442.449219 253.433594 447.304688 241.90625 450.335938 C 233.414062 452.761719 227.347656 460.042969 227.347656 469.140625 L 227.347656 490.375 C 227.347656 494.015625 223.101562 497.046875 218.855469 497.046875 L 198.226562 497.046875 C 193.375 497.046875 189.734375 494.015625 189.734375 490.375 L 189.734375 469.140625 C 189.734375 460.648438 183.667969 452.761719 175.175781 450.335938 C 163.042969 447.304688 138.171875 432.742188 131.496094 433.351562 C 119.972656 434.5625 112.085938 444.875 104.804688 452.15625 C 103.59375 453.371094 97.527344 457.007812 91.460938 450.941406 C 87.210938 446.695312 75.6875 434.5625 75.078125 432.742188 C 73.257812 425.464844 86.605469 416.363281 90.851562 412.117188 C 96.917969 406.050781 98.132812 396.34375 93.886719 388.457031 C 87.820312 377.539062 82.964844 366.621094 79.933594 354.488281 C 77.507812 345.992188 70.226562 339.925781 61.125 339.925781 L 38.679688 339.925781 C 35.042969 339.925781 32.007812 335.679688 32.007812 330.828125 L 32.007812 310.203125 C 32.007812 305.347656 35.042969 301.707031 38.679688 301.707031 L 59.914062 301.707031 C 69.011719 301.707031 76.292969 295.640625 78.71875 287.148438 C 81.753906 275.015625 86.605469 264.097656 92.671875 253.175781 C 96.917969 245.289062 95.707031 235.585938 89.640625 229.519531 L 74.472656 214.351562 C 71.441406 211.316406 73.867188 205.859375 76.292969 203.433594 L 90.851562 188.871094 C 94.492188 185.234375 99.34375 184.625 101.773438 187.050781 L 116.332031 201.613281 C 122.398438 207.679688 132.105469 208.890625 139.992188 204.644531 C 150.910156 198.578125 162.4375 193.726562 173.960938 190.691406 C 182.457031 188.265625 188.523438 180.984375 188.523438 171.886719 L 188.523438 150.652344 C 188.523438 147.015625 192.769531 143.980469 197.015625 143.980469 L 217.640625 143.980469 C 222.496094 143.980469 226.132812 147.015625 226.132812 150.652344 L 226.132812 171.886719 C 226.132812 180.984375 232.199219 188.265625 240.695312 190.691406 C 252.828125 193.726562 263.746094 198.578125 274.664062 204.644531 C 282.550781 208.890625 292.257812 207.679688 298.324219 201.613281 L 312.882812 187.050781 C 315.3125 184.625 320.164062 185.234375 323.804688 188.871094 L 338.363281 203.433594 C 342.003906 207.070312 342.609375 211.925781 340.183594 214.351562 L 325.625 228.910156 C 319.558594 234.976562 318.34375 244.683594 322.589844 252.570312 C 323.804688 254.390625 324.410156 255.601562 325.015625 257.421875 L 351.710938 257.421875 C 349.890625 252.570312 347.464844 248.324219 345.035156 243.46875 L 357.167969 231.335938 C 369.300781 219.203125 368.089844 199.183594 355.347656 186.445312 L 340.789062 171.886719 C 328.050781 159.148438 307.425781 158.539062 295.898438 170.066406 L 283.765625 182.199219 C 272.847656 176.132812 261.925781 171.886719 250.398438 168.246094 L 250.398438 151.261719 C 250.398438 134.273438 235.839844 120.320312 217.640625 120.320312 L 197.015625 120.320312 C 178.816406 120.320312 164.257812 134.273438 164.257812 151.261719 L 164.257812 168.246094 C 152.730469 171.28125 141.203125 176.132812 130.890625 182.199219 L 118.757812 170.066406 C 106.625 157.933594 86.605469 158.539062 73.867188 171.886719 L 59.308594 186.445312 C 52.632812 193.117188 48.992188 201.613281 48.992188 210.710938 C 48.992188 218.597656 52.027344 226.484375 57.488281 231.945312 L 69.621094 244.078125 C 63.554688 254.996094 59.308594 265.917969 55.667969 277.441406 L 38.679688 277.441406 C 21.695312 277.441406 7.742188 292.003906 7.742188 310.203125 L 7.742188 330.828125 C 7.742188 349.027344 21.695312 364.191406 38.679688 364.191406 L 55.667969 364.191406 C 58.699219 375.71875 63.554688 387.246094 69.621094 397.558594 L 57.488281 409.691406 C 51.421875 415.757812 48.386719 424.25 48.992188 432.742188 C 49.601562 441.238281 53.242188 449.125 59.308594 455.191406 L 73.867188 469.75 C 79.933594 475.816406 87.820312 479.457031 96.3125 480.0625 C 104.804688 480.667969 113.296875 477.636719 119.363281 471.570312 L 131.496094 459.4375 C 141.8125 465.503906 153.335938 469.75 164.863281 473.390625 L 164.863281 490.375 C 164.863281 507.359375 179.421875 521.3125 197.621094 521.3125 L 218.246094 521.3125 C 236.445312 521.3125 251.007812 507.359375 251.007812 490.375 L 251.007812 473.390625 C 262.53125 470.355469 274.058594 465.503906 284.371094 459.4375 L 296.503906 471.570312 C 302.570312 477.636719 311.066406 480.667969 319.558594 480.0625 C 328.050781 479.457031 335.9375 475.816406 342.003906 469.75 L 356.5625 455.191406 C 369.300781 442.449219 369.910156 421.824219 358.382812 410.296875 Z M 346.25 397.558594 " fill-opacity="1" fill-rule="nonzero"/></g><g clip-path="url(#a1c897f1dc)"><path fill="#1675ba" d="M 753.308594 276.835938 L 736.324219 276.835938 C 733.289062 265.308594 728.4375 253.785156 722.371094 243.46875 L 734.503906 231.335938 C 746.636719 219.203125 745.421875 199.183594 732.683594 186.445312 L 718.125 171.886719 C 705.382812 159.148438 684.757812 158.539062 673.230469 170.066406 L 661.097656 182.199219 C 650.179688 176.132812 639.257812 171.886719 627.734375 168.246094 L 627.734375 151.261719 C 627.734375 134.273438 613.171875 120.320312 594.972656 120.320312 L 574.347656 120.320312 C 556.148438 120.320312 541.589844 134.273438 541.589844 151.261719 L 541.589844 168.246094 C 530.0625 171.28125 518.535156 176.132812 508.222656 182.199219 L 496.089844 170.066406 C 483.957031 157.933594 463.9375 159.148438 451.199219 171.886719 L 436.640625 186.445312 C 429.964844 193.117188 426.328125 201.613281 426.328125 210.710938 C 426.328125 215.566406 427.539062 220.417969 429.964844 224.664062 C 431.179688 223.453125 433 222.84375 434.820312 221.632812 C 441.492188 217.992188 448.773438 217.382812 456.050781 217.992188 L 450.59375 214.351562 C 447.558594 211.316406 449.984375 205.859375 452.414062 203.433594 L 466.972656 188.871094 C 470.613281 185.234375 475.464844 184.625 477.890625 187.050781 L 492.453125 201.613281 C 498.519531 207.679688 508.222656 208.890625 516.109375 204.644531 C 527.03125 198.578125 538.554688 193.726562 550.082031 190.691406 C 558.574219 188.265625 564.640625 180.984375 564.640625 171.886719 L 564.640625 150.652344 C 564.640625 147.015625 568.886719 143.980469 573.136719 143.980469 L 593.761719 143.980469 C 598.613281 143.980469 602.253906 147.015625 602.253906 150.652344 L 602.253906 171.886719 C 602.253906 180.984375 608.320312 188.265625 616.8125 190.691406 C 628.945312 193.726562 639.867188 198.578125 650.785156 204.644531 C 658.671875 208.890625 668.378906 207.679688 674.445312 201.613281 L 689.003906 187.050781 C 691.429688 184.625 696.285156 185.234375 699.925781 188.871094 L 714.484375 203.433594 C 718.125 207.070312 718.730469 211.925781 716.304688 214.351562 L 701.742188 228.910156 C 695.675781 234.976562 694.464844 244.683594 698.710938 252.570312 C 704.777344 263.488281 709.628906 274.410156 712.664062 286.542969 C 715.089844 295.035156 722.371094 301.101562 731.46875 301.101562 L 752.703125 301.101562 C 756.34375 301.101562 759.375 305.347656 759.375 309.59375 L 759.375 330.222656 C 759.375 335.074219 756.34375 339.320312 752.703125 339.320312 L 731.46875 339.320312 C 722.976562 339.320312 715.089844 345.386719 712.664062 353.878906 C 709.628906 366.011719 704.777344 377.539062 698.710938 387.851562 C 694.464844 395.738281 695.675781 405.445312 701.742188 411.511719 L 716.304688 426.070312 C 718.730469 428.496094 718.125 433.351562 714.484375 436.992188 C 714.484375 436.992188 699.925781 451.550781 699.925781 451.550781 C 697.496094 453.976562 692.039062 456.402344 689.003906 453.371094 L 674.445312 438.808594 C 668.378906 432.742188 658.671875 431.53125 650.785156 435.777344 C 639.867188 441.84375 628.339844 446.695312 616.8125 449.730469 C 608.320312 452.15625 602.253906 459.4375 602.253906 468.535156 L 602.253906 489.769531 C 602.253906 493.410156 598.007812 496.441406 593.761719 496.441406 L 573.136719 496.441406 C 568.28125 496.441406 564.640625 493.410156 564.640625 489.769531 L 564.640625 468.535156 C 564.640625 460.042969 558.574219 452.15625 550.082031 449.730469 C 537.949219 446.695312 526.421875 441.84375 516.109375 435.777344 C 513.078125 433.957031 509.4375 433.351562 506.402344 433.351562 C 501.550781 433.351562 496.699219 435.171875 493.058594 438.808594 L 477.890625 453.976562 C 474.859375 457.007812 469.398438 454.582031 466.972656 452.15625 L 452.414062 437.597656 C 449.984375 435.171875 447.558594 429.710938 450.59375 426.675781 L 454.234375 423.039062 C 452.414062 423.644531 450.59375 423.644531 449.378906 423.644531 C 443.917969 423.644531 438.460938 422.429688 433 420.003906 C 431.179688 419.398438 429.96875 418.183594 428.148438 416.972656 C 425.71875 421.824219 424.507812 426.675781 425.113281 432.742188 C 425.71875 441.238281 429.359375 449.125 435.425781 455.191406 L 449.984375 469.75 C 456.050781 475.816406 463.9375 479.457031 472.433594 480.0625 C 480.925781 480.667969 489.417969 477.636719 495.484375 471.570312 L 507.617188 459.4375 C 517.929688 465.503906 529.457031 469.75 540.984375 473.390625 L 540.984375 490.375 C 540.984375 507.359375 555.542969 521.3125 573.742188 521.3125 L 594.367188 521.3125 C 612.566406 521.3125 627.125 507.359375 627.125 490.375 L 627.125 473.390625 C 638.652344 470.355469 650.179688 465.503906 660.492188 459.4375 L 672.625 471.570312 C 678.691406 477.636719 686.578125 480.667969 695.675781 480.0625 C 704.171875 479.457031 712.058594 475.816406 718.125 469.75 L 732.683594 455.191406 C 745.421875 442.449219 746.027344 421.824219 734.503906 410.296875 L 722.371094 398.164062 C 728.4375 387.851562 732.683594 376.324219 736.324219 364.800781 L 753.308594 364.800781 C 770.292969 364.800781 784.246094 350.238281 784.246094 331.433594 L 784.246094 310.808594 C 784.246094 292.003906 770.292969 276.835938 753.308594 276.835938 Z M 753.308594 276.835938 " fill-opacity="1" fill-rule="nonzero"/></g><path fill="#1675ba" d="M 443.917969 242.863281 C 439.671875 244.683594 437.246094 248.929688 437.246094 253.785156 L 437.246094 281.6875 L 317.132812 281.6875 C 310.457031 281.6875 304.996094 287.148438 304.996094 293.820312 C 304.996094 300.496094 310.457031 305.953125 317.132812 305.953125 L 449.378906 305.953125 C 456.050781 305.953125 461.511719 300.496094 461.511719 293.820312 L 461.511719 278.050781 L 518.535156 320.515625 L 461.511719 362.980469 L 461.511719 347.207031 C 461.511719 340.535156 456.050781 335.074219 449.378906 335.074219 L 365.054688 335.074219 C 358.382812 335.074219 352.921875 340.535156 352.921875 347.207031 C 352.921875 353.878906 358.382812 359.339844 365.054688 359.339844 L 436.640625 359.339844 L 436.640625 387.246094 C 436.640625 392.097656 439.066406 396.34375 443.3125 398.164062 C 449.378906 401.199219 453.625 398.773438 456.050781 396.953125 L 545.230469 330.222656 C 548.261719 327.792969 550.082031 324.15625 550.082031 320.515625 C 550.082031 316.875 548.261719 313.234375 545.230469 310.808594 L 456.660156 244.078125 C 453.019531 241.042969 448.167969 241.042969 443.917969 242.863281 Z M 443.917969 242.863281 " fill-opacity="1" fill-rule="nonzero"/></svg>