<svg xmlns="http://www.w3.org/2000/svg" xmlns:xlink="http://www.w3.org/1999/xlink" width="1056" zoomAndPan="magnify" viewBox="0 0 792 611.999999" height="816" preserveAspectRatio="xMidYMid meet" version="1.0"><defs><clipPath id="e7e6d18587"><path d="M 106.507812 3.097656 L 704.867188 3.097656 L 704.867188 608 L 106.507812 608 Z M 106.507812 3.097656 " clip-rule="nonzero"/></clipPath><clipPath id="baf5614e73"><path d="M 207.007812 573 L 222.199219 573 L 222.199219 608.921875 L 207.007812 608.921875 Z M 207.007812 573 " clip-rule="nonzero"/></clipPath></defs><g clip-path="url(#e7e6d18587)"><path fill="#1675ba" d="M 689.710938 318.839844 C 688.210938 322.507812 685.3125 325.429688 681.65625 326.953125 L 675.941406 329.347656 L 655.402344 265.160156 L 655.117188 264.621094 C 651.664062 257.957031 644.851562 253.703125 637.347656 253.527344 C 627.019531 253.3125 617.308594 258.402344 611.609375 267.015625 L 611.484375 267.214844 C 605.625 277.480469 603.417969 289.429688 605.21875 301.117188 C 606.996094 312.390625 611.820312 341.621094 613.773438 353.441406 C 611.085938 354.980469 608.5 356.699219 606.035156 358.574219 C 606.03125 358.578125 606.023438 358.582031 606.015625 358.585938 L 485.535156 408.964844 L 471.617188 414.769531 L 463.609375 418.125 C 463.292969 416.292969 462.75 414.507812 461.984375 412.808594 L 430.804688 343.136719 C 442.304688 344.027344 455.640625 343.394531 465.65625 338.085938 C 472.914062 334.230469 479.125 328.660156 483.753906 321.867188 C 484.269531 321.109375 484.773438 320.339844 485.242188 319.554688 C 487.941406 315.113281 489.953125 310.28125 491.210938 305.238281 C 491.273438 305.019531 491.328125 304.78125 491.363281 304.5625 C 491.378906 304.527344 491.386719 304.492188 491.386719 304.457031 C 494.140625 294.871094 493.996094 284.6875 490.980469 275.183594 C 482.503906 248.207031 453.761719 233.199219 426.785156 241.675781 C 413.789062 245.757812 402.960938 254.847656 396.683594 266.933594 C 394.25 261.511719 391.425781 255.175781 388.410156 248.433594 C 388.410156 248.425781 388.398438 248.425781 388.398438 248.410156 C 385.625 241.765625 382.46875 234.8125 379.273438 227.992188 C 373.484375 215.046875 367.839844 202.429688 363.761719 193.320312 C 362.953125 191.511719 361.878906 189.820312 360.570312 188.324219 L 453.011719 150.179688 C 456.8125 148.578125 459.199219 144.761719 458.980469 140.644531 C 458.800781 136.554688 456.046875 133.03125 452.121094 131.867188 C 432.480469 125.863281 421.429688 105.074219 427.433594 85.4375 C 433.441406 65.792969 454.230469 54.742188 473.867188 60.746094 C 483.257812 63.617188 491.128906 70.085938 495.769531 78.742188 C 501.214844 89.023438 499.402344 106.636719 498.375 113.742188 C 497.527344 119.554688 501.558594 124.953125 507.371094 125.804688 C 509.269531 126.078125 511.207031 125.835938 512.984375 125.101562 L 598.488281 89.355469 L 689.660156 307.410156 C 691.203125 311.0625 691.222656 315.179688 689.710938 318.839844 Z M 653.386719 439.917969 C 652.84375 442.046875 651.945312 444.0625 650.734375 445.890625 L 650.609375 446.089844 C 650.5625 446.160156 647.066406 451.863281 642.976562 458.195312 C 642.507812 458.921875 642.019531 459.648438 641.542969 460.382812 L 502.089844 460.511719 C 501.695312 460.117188 501.308594 459.714844 500.9375 459.316406 L 500.917969 459.316406 C 491.867188 449.710938 486.523438 437.199219 485.859375 424.015625 L 587.015625 381.722656 C 584.84375 385.742188 582.738281 389.894531 580.761719 394.121094 L 593.453125 400.066406 C 596.035156 394.566406 598.816406 389.191406 601.71875 384.09375 C 604.699219 378.972656 608.601562 374.453125 613.234375 370.761719 L 613.25 370.761719 C 616.589844 368.007812 620.265625 365.6875 624.1875 363.855469 L 629.363281 361.742188 L 628.453125 356.222656 C 628.441406 356.117188 628.019531 353.605469 627.367188 349.644531 C 625.273438 337.023438 620.777344 309.714844 619.078125 298.9375 C 617.75 290.539062 619.296875 281.929688 623.460938 274.515625 C 626.488281 270.171875 631.433594 267.570312 636.726562 267.539062 C 639.058594 267.472656 641.242188 268.675781 642.441406 270.671875 L 662.960938 334.769531 L 667.25 348.171875 L 673.117188 366.484375 Z M 648.984375 474.429688 L 649.484375 509.691406 C 648.695312 510.246094 647.746094 510.523438 646.78125 510.488281 L 494.925781 511.6875 C 493.925781 511.753906 492.929688 511.46875 492.121094 510.878906 L 491.601562 474.566406 Z M 444.851562 429.917969 C 425.652344 438.515625 393.164062 453.054688 373.160156 462.015625 C 380.171875 434.621094 363.644531 406.722656 336.25 399.710938 C 308.847656 392.699219 280.953125 409.226562 273.941406 436.625 C 271.488281 446.21875 271.867188 456.316406 275.03125 465.699219 C 278.984375 477.328125 289.570312 487.636719 299.257812 495.082031 L 219.992188 530.542969 L 121.839844 311.238281 C 118.476562 303.699219 121.847656 294.863281 129.382812 291.484375 L 135.5625 288.714844 L 158.253906 359.601562 L 158.535156 360.152344 C 161.996094 366.816406 168.8125 371.066406 176.320312 371.242188 C 176.695312 371.253906 177.070312 371.265625 177.445312 371.265625 C 187.375 371.085938 196.574219 366.027344 202.054688 357.742188 L 202.171875 357.546875 C 208.042969 347.285156 210.253906 335.339844 208.433594 323.65625 C 206.667969 312.378906 201.84375 283.140625 199.878906 271.324219 C 209.210938 266.070312 217.117188 258.625 222.914062 249.625 L 327.863281 202.660156 L 341.535156 196.535156 L 342.847656 195.953125 C 343.632812 195.59375 344.484375 195.414062 345.347656 195.414062 C 346.097656 195.414062 346.84375 195.550781 347.542969 195.824219 C 349.070312 196.402344 350.300781 197.5625 350.96875 199.050781 C 357.140625 212.828125 366.894531 234.632812 375.3125 253.460938 C 375.320312 253.503906 375.34375 253.546875 375.367188 253.585938 C 380.265625 265.320312 384.707031 275.96875 387.605469 282.921875 C 389.6875 287.902344 395.410156 290.25 400.390625 288.171875 C 403.066406 287.050781 405.105469 284.800781 405.964844 282.03125 C 410.65625 262.046875 430.664062 249.648438 450.65625 254.339844 C 470.644531 259.039062 483.039062 279.046875 478.34375 299.03125 C 475.976562 309.105469 469.519531 317.738281 460.523438 322.847656 C 450.378906 328.554688 432.6875 327.171875 425.5625 326.324219 C 421.757812 325.867188 418.007812 327.488281 415.734375 330.5625 C 415.679688 330.628906 415.632812 330.699219 415.59375 330.773438 C 413.4375 333.835938 413.058594 337.804688 414.585938 341.222656 L 449.1875 418.539062 C 451.125 422.875 449.183594 427.964844 444.851562 429.917969 Z M 319.355469 151.570312 L 319.167969 151.570312 L 319.03125 151.347656 L 167.496094 152.5625 C 166.5 152.636719 165.5 152.347656 164.695312 151.742188 L 164.671875 150.339844 L 164.179688 115.085938 C 164.96875 114.527344 165.917969 114.25 166.882812 114.292969 L 318.738281 113.082031 C 319.738281 113.019531 320.734375 113.304688 321.542969 113.898438 L 322.058594 150.777344 C 321.269531 151.332031 320.324219 151.609375 319.359375 151.570312 Z M 231.957031 230.207031 L 213.074219 238.664062 C 212.691406 239.339844 212.316406 240.007812 211.941406 240.664062 C 203.925781 254.746094 189.585938 260.855469 189.46875 260.90625 L 184.292969 263.03125 L 184.890625 266.640625 L 185.203125 268.546875 C 185.28125 268.980469 192.367188 311.664062 194.578125 325.832031 C 195.914062 334.226562 194.375 342.828125 190.203125 350.242188 C 187.191406 354.597656 182.238281 357.207031 176.941406 357.230469 C 174.609375 357.296875 172.417969 356.097656 171.214844 354.101562 L 148.441406 282.953125 L 144.140625 269.503906 L 140.539062 258.273438 L 160.265625 184.851562 C 160.816406 182.726562 161.714844 180.703125 162.929688 178.878906 L 163.046875 178.683594 C 163.09375 178.609375 166.597656 172.894531 170.6875 166.5625 L 312.710938 165.445312 L 312.722656 165.445312 C 318.8125 171.902344 323.269531 179.722656 325.730469 188.25 Z M 702.601562 302 L 606.015625 71.007812 L 512.960938 109.910156 C 514.046875 98.96875 514.121094 83.40625 508.15625 72.164062 C 494.824219 47.21875 463.796875 37.8125 438.859375 51.144531 C 413.917969 64.480469 404.507812 95.503906 417.84375 120.445312 C 422.507812 129.171875 429.605469 136.363281 438.273438 141.144531 L 340.082031 182.09375 C 339.605469 182.226562 339.125 182.363281 338.65625 182.53125 C 336.429688 175.515625 333.097656 168.894531 328.785156 162.925781 C 330.019531 162.226562 331.152344 161.367188 332.152344 160.359375 C 334.625 157.941406 336.039062 154.628906 336.078125 151.160156 L 336.078125 150.988281 L 335.546875 113.3125 C 335.546875 113.054688 335.515625 112.796875 335.492188 112.542969 L 343.492188 112.480469 C 347.359375 112.445312 350.472656 109.285156 350.445312 105.414062 C 350.445312 105.398438 350.441406 105.390625 350.441406 105.375 L 349.128906 3.097656 L 335.105469 3.277344 L 336.332031 98.519531 L 148.996094 100.015625 L 147.769531 3.097656 L 133.746094 3.273438 L 135.066406 107.175781 C 135.109375 111.011719 138.238281 114.09375 142.078125 114.09375 L 142.132812 114.09375 L 150.179688 114.03125 C 150.164062 114.308594 150.140625 114.582031 150.148438 114.867188 L 150.683594 152.539062 C 150.796875 156.730469 152.867188 160.625 156.28125 163.058594 C 153.585938 167.300781 151.535156 170.628906 151.152344 171.261719 C 149.121094 174.359375 147.613281 177.769531 146.6875 181.359375 L 146.472656 182.203125 L 146.3125 182.160156 L 125.933594 258.636719 L 131.261719 275.273438 L 123.65625 278.675781 C 109.054688 285.203125 102.507812 302.332031 109.035156 316.933594 C 109.039062 316.941406 109.046875 316.953125 109.050781 316.960938 L 212.921875 549.078125 L 310.328125 505.492188 C 315.679688 503.082031 318.070312 496.789062 315.664062 491.429688 C 314.878906 489.683594 313.636719 488.183594 312.066406 487.082031 C 299.585938 478.316406 290.925781 468.890625 288.3125 461.191406 C 281.773438 441.726562 292.25 420.644531 311.714844 414.109375 C 331.179688 407.566406 352.253906 418.050781 358.796875 437.507812 C 361.910156 446.773438 361.246094 456.894531 356.953125 465.679688 C 354.546875 470.503906 356.507812 476.371094 361.335938 478.78125 C 363.953125 480.085938 367.023438 480.148438 369.691406 478.953125 C 387.140625 471.125 428.027344 452.808594 450.582031 442.710938 C 454.398438 441.015625 457.664062 438.28125 460.011719 434.824219 L 472.28125 429.695312 C 473.691406 441.300781 478.023438 452.359375 484.875 461.832031 C 483.644531 462.53125 482.507812 463.402344 481.503906 464.40625 C 478.980469 466.863281 477.5625 470.246094 477.578125 473.777344 L 478.101562 511.453125 C 478.101562 511.710938 478.140625 511.960938 478.15625 512.21875 L 470.171875 512.28125 C 466.300781 512.3125 463.183594 515.476562 463.214844 519.351562 C 463.214844 519.367188 463.214844 519.382812 463.214844 519.398438 L 464.535156 607.660156 L 478.558594 607.453125 L 477.34375 526.25 L 664.679688 524.746094 L 665.894531 607.660156 L 679.917969 607.453125 L 678.605469 517.582031 C 678.542969 513.746094 675.421875 510.667969 671.59375 510.667969 L 671.53125 510.667969 L 663.480469 510.734375 C 663.496094 510.460938 663.515625 510.183594 663.511719 509.917969 L 662.988281 472.238281 C 662.878906 468.046875 660.800781 464.148438 657.378906 461.730469 C 660.074219 457.472656 662.125 454.144531 662.507812 453.519531 C 664.542969 450.417969 666.054688 447 666.972656 443.40625 L 667.183594 442.566406 L 667.355469 442.613281 L 687.722656 366.128906 L 680.234375 342.742188 L 687.0625 339.894531 C 701.808594 333.738281 708.773438 316.792969 702.621094 302.042969 C 702.613281 302.035156 702.609375 302.019531 702.605469 302.007812 L 702.601562 302 " fill-opacity="1" fill-rule="nonzero"/></g><path fill="#1675ba" d="M 250.804688 558.960938 L 263.269531 552.535156 L 279.460938 583.945312 L 266.996094 590.371094 L 250.804688 558.960938 " fill-opacity="1" fill-rule="nonzero"/><path fill="#1675ba" d="M 149.863281 583.945312 L 166.054688 552.535156 L 178.523438 558.960938 L 162.332031 590.371094 L 149.863281 583.945312 " fill-opacity="1" fill-rule="nonzero"/><g clip-path="url(#baf5614e73)"><path fill="#1675ba" d="M 207.207031 608.566406 L 208.097656 573.238281 L 222.117188 573.589844 L 221.226562 608.921875 L 207.207031 608.566406 " fill-opacity="1" fill-rule="nonzero"/></g><path fill="#1675ba" d="M 547.527344 29.535156 L 559.996094 23.113281 L 576.1875 54.523438 L 563.71875 60.945312 L 547.527344 29.535156 " fill-opacity="1" fill-rule="nonzero"/><path fill="#1675ba" d="M 648.472656 54.519531 L 664.664062 23.109375 L 677.125 29.535156 L 660.933594 60.945312 L 648.472656 54.519531 " fill-opacity="1" fill-rule="nonzero"/><path fill="#1675ba" d="M 604.878906 39.890625 L 605.765625 4.5625 L 619.785156 4.914062 L 618.894531 40.242188 L 604.878906 39.890625 " fill-opacity="1" fill-rule="nonzero"/></svg>