<svg xmlns="http://www.w3.org/2000/svg" xmlns:xlink="http://www.w3.org/1999/xlink" width="1056" zoomAndPan="magnify" viewBox="0 0 792 611.999999" height="816" preserveAspectRatio="xMidYMid meet" version="1.0"><defs><clipPath id="dabeb6f031"><path d="M 50 3.820312 L 656 3.820312 L 656 608.320312 L 50 608.320312 Z M 50 3.820312 " clip-rule="nonzero"/></clipPath></defs><path fill="#1675ba" d="M 352.835938 190.585938 C 388.320312 190.585938 420.105469 206.695312 441.292969 231.964844 L 456.804688 220.988281 C 432.171875 190.90625 394.75 171.703125 352.835938 171.703125 C 278.664062 171.703125 218.53125 231.824219 218.53125 306 C 218.53125 380.171875 278.664062 440.300781 352.835938 440.300781 C 416.484375 440.300781 469.753906 396.011719 483.601562 336.578125 C 474.523438 343.011719 465.660156 349.289062 457.171875 355.296875 C 438.648438 394.34375 398.855469 421.414062 352.835938 421.414062 C 289.195312 421.414062 237.417969 369.640625 237.417969 306 C 237.417969 242.359375 289.195312 190.585938 352.835938 190.585938 Z M 352.835938 190.585938 " fill-opacity="1" fill-rule="nonzero"/><g clip-path="url(#dabeb6f031)"><path fill="#1675ba" d="M 625.171875 255.632812 L 597.867188 255.632812 C 589.515625 261.550781 580.558594 267.894531 571.214844 274.515625 L 625.171875 274.515625 C 631.109375 274.515625 636.128906 281.257812 636.128906 289.230469 L 636.128906 322.785156 C 636.128906 330.75 631.109375 337.480469 625.171875 337.480469 L 567.199219 337.480469 L 563.957031 352.34375 C 558.527344 377.238281 548.734375 400.84375 534.851562 422.507812 L 526.652344 435.304688 L 567.675781 476.328125 C 569.941406 478.585938 570.269531 481.59375 570.140625 483.714844 C 569.917969 487.511719 568.046875 491.425781 565.019531 494.460938 L 541.3125 518.179688 C 538.03125 521.449219 533.835938 523.324219 529.796875 523.324219 C 527.90625 523.324219 525.222656 522.890625 523.160156 520.820312 L 492.882812 490.554688 L 482.136719 479.8125 L 469.339844 488.011719 C 447.691406 501.886719 424.089844 511.679688 399.179688 517.117188 L 384.320312 520.359375 L 384.320312 578.339844 C 384.320312 584.273438 377.589844 589.292969 369.617188 589.292969 L 336.058594 589.292969 C 328.089844 589.292969 321.359375 584.273438 321.359375 578.339844 L 321.359375 520.359375 L 306.496094 517.117188 C 281.585938 511.679688 257.980469 501.886719 236.335938 488.011719 L 223.539062 479.8125 L 212.789062 490.558594 L 182.503906 520.839844 C 180.453125 522.890625 177.769531 523.324219 175.878906 523.324219 C 171.839844 523.324219 167.644531 521.449219 164.378906 518.195312 L 140.660156 494.464844 C 137.625 491.425781 135.757812 487.511719 135.535156 483.71875 C 135.410156 481.59375 135.734375 478.589844 138.015625 476.316406 L 168.277344 446.054688 L 179.023438 435.304688 L 170.828125 422.507812 C 156.945312 400.847656 147.152344 377.242188 141.722656 352.339844 L 138.480469 337.480469 L 80.503906 337.480469 C 74.566406 337.480469 69.542969 330.75 69.542969 322.785156 L 69.542969 289.230469 C 69.542969 281.257812 74.566406 274.515625 80.503906 274.515625 L 138.480469 274.515625 L 141.722656 259.65625 C 147.152344 234.753906 156.945312 211.148438 170.824219 189.5 L 179.027344 176.703125 L 168.277344 165.953125 L 138 135.667969 C 135.945312 133.621094 135.515625 130.941406 135.511719 129.054688 C 135.507812 125.015625 137.382812 120.828125 140.652344 117.554688 L 164.375 93.824219 C 167.652344 90.550781 171.847656 88.671875 175.886719 88.671875 C 177.773438 88.671875 180.457031 89.105469 182.523438 91.175781 L 212.789062 121.4375 L 223.539062 132.1875 L 236.335938 123.984375 C 257.972656 110.113281 281.578125 100.328125 306.492188 94.898438 L 321.359375 91.664062 L 321.359375 33.65625 C 321.359375 27.722656 328.089844 22.703125 336.058594 22.703125 L 369.617188 22.703125 C 377.589844 22.703125 384.320312 27.722656 384.320312 33.65625 L 384.320312 91.664062 L 399.183594 94.898438 C 424.09375 100.328125 447.695312 110.113281 469.339844 123.984375 L 482.136719 132.183594 L 492.882812 121.441406 L 523.175781 91.15625 C 525.222656 89.105469 527.902344 88.671875 529.789062 88.671875 C 533.828125 88.671875 538.023438 90.550781 541.292969 93.816406 L 565.027344 117.558594 C 568.050781 120.585938 569.917969 124.496094 570.140625 128.289062 C 570.269531 130.410156 569.941406 133.417969 567.667969 135.6875 L 544.246094 159.109375 L 588.996094 127.4375 C 588.582031 119.242188 585.007812 110.832031 578.378906 104.203125 L 554.652344 80.464844 C 547.578125 73.398438 538.488281 69.785156 529.789062 69.785156 C 522.34375 69.785156 515.175781 72.433594 509.804688 77.820312 L 479.53125 108.082031 C 456.511719 93.328125 430.777344 82.453125 403.207031 76.445312 L 403.207031 33.65625 C 403.207031 17.175781 388.171875 3.820312 369.617188 3.820312 L 336.058594 3.820312 C 317.503906 3.820312 302.472656 17.175781 302.472656 33.65625 L 302.472656 76.445312 C 274.898438 82.453125 249.160156 93.328125 226.144531 108.082031 L 195.875 77.820312 C 190.5 72.433594 183.335938 69.785156 175.886719 69.785156 C 167.1875 69.785156 158.101562 73.394531 151.023438 80.464844 L 127.292969 104.203125 C 114.179688 117.320312 112.984375 137.394531 124.660156 149.042969 L 154.921875 179.308594 C 140.167969 202.324219 129.285156 228.058594 123.269531 255.632812 L 80.503906 255.632812 C 64.015625 255.632812 50.65625 270.664062 50.65625 289.230469 L 50.65625 322.785156 C 50.65625 341.332031 64.015625 356.367188 80.503906 356.367188 L 123.269531 356.367188 C 129.285156 383.9375 140.167969 409.671875 154.921875 432.699219 L 124.660156 462.960938 C 112.984375 474.613281 114.179688 494.679688 127.292969 507.808594 L 151.023438 531.546875 C 158.097656 538.605469 167.183594 542.210938 175.878906 542.210938 C 183.332031 542.210938 190.5 539.566406 195.875 534.175781 L 226.144531 503.914062 C 249.160156 518.667969 274.898438 529.550781 302.472656 535.566406 L 302.472656 578.339844 C 302.472656 594.820312 317.503906 608.179688 336.058594 608.179688 L 369.617188 608.179688 C 388.171875 608.179688 403.207031 594.820312 403.207031 578.339844 L 403.207031 535.566406 C 430.777344 529.550781 456.511719 518.667969 479.53125 503.914062 L 509.804688 534.175781 C 515.175781 539.5625 522.347656 542.210938 529.796875 542.210938 C 538.496094 542.210938 547.578125 538.605469 554.652344 531.546875 L 578.378906 507.808594 C 591.492188 494.679688 592.691406 474.613281 581.019531 462.960938 L 550.753906 432.699219 C 565.511719 409.671875 576.394531 383.9375 582.410156 356.367188 L 625.171875 356.367188 C 641.660156 356.367188 655.015625 341.332031 655.015625 322.785156 L 655.015625 289.230469 C 655.015625 270.664062 641.660156 255.632812 625.171875 255.632812 Z M 625.171875 255.632812 " fill-opacity="1" fill-rule="nonzero"/></g><path fill="#1675ba" d="M 378.167969 299.546875 C 377.78125 298.996094 377.402344 298.429688 377.0625 297.894531 L 340.082031 247.824219 C 335.289062 241.042969 327.5 236.996094 319.246094 236.996094 C 313.835938 236.996094 308.65625 238.691406 304.261719 241.90625 L 287.882812 253.882812 C 276.515625 262.1875 273.90625 278.328125 282.164062 290.003906 C 282.625 290.636719 328.550781 353.101562 348.605469 381.570312 C 352.761719 387.464844 359.550781 390.988281 366.773438 390.988281 C 366.773438 390.988281 366.773438 390.988281 366.78125 390.988281 C 371.519531 390.988281 376.199219 389.453125 380.3125 386.546875 C 431.824219 350.160156 644.316406 199.578125 644.429688 199.492188 C 655.792969 191.1875 658.402344 175.042969 650.246094 163.503906 L 638.453125 146.847656 C 633.664062 140.070312 625.875 136.023438 617.621094 136.023438 C 612.214844 136.023438 607.035156 137.71875 602.746094 140.84375 L 384.011719 295.644531 C 382.171875 297.054688 379.96875 298.511719 378.167969 299.546875 Z M 613.765625 156.183594 C 616.695312 154.042969 620.941406 154.789062 623.03125 157.753906 L 634.824219 174.410156 C 637.0625 177.578125 636.371094 181.992188 633.394531 184.167969 C 633.394531 184.167969 420.925781 334.734375 369.417969 371.121094 C 368.496094 371.769531 367.609375 372.101562 366.78125 372.101562 C 365.492188 372.101562 364.503906 371.34375 364.046875 370.695312 C 343.878906 342.070312 297.84375 279.445312 297.484375 278.960938 C 295.246094 275.796875 295.9375 271.386719 299.027344 269.128906 L 315.410156 257.152344 C 316.542969 256.320312 317.871094 255.882812 319.246094 255.882812 C 321.410156 255.882812 323.382812 256.921875 324.78125 258.886719 L 361.296875 308.296875 C 362.945312 310.871094 365.96875 315.199219 368.984375 317.476562 C 370.980469 318.976562 373.429688 319.765625 376.070312 319.765625 C 382.3125 319.765625 390.09375 314.792969 395.214844 310.84375 Z M 613.765625 156.183594 " fill-opacity="1" fill-rule="nonzero"/></svg>