<svg xmlns="http://www.w3.org/2000/svg" xmlns:xlink="http://www.w3.org/1999/xlink" width="1056" zoomAndPan="magnify" viewBox="0 0 792 611.999999" height="816" preserveAspectRatio="xMidYMid meet" version="1.0"><defs><clipPath id="544e3b2d33"><path d="M 81.609375 6.609375 L 680.109375 6.609375 L 680.109375 605.109375 L 81.609375 605.109375 Z M 81.609375 6.609375 " clip-rule="nonzero"/></clipPath></defs><g clip-path="url(#544e3b2d33)"><path fill="#1676bb" d="M 335.917969 472.210938 C 339.8125 476.105469 339.8125 482.425781 335.917969 486.320312 C 332.019531 490.21875 325.699219 490.21875 321.804688 486.320312 L 308.246094 472.761719 C 304.347656 468.867188 304.347656 462.546875 308.246094 458.652344 C 312.144531 454.753906 318.460938 454.753906 322.359375 458.652344 Z M 267.761719 404.054688 C 271.65625 407.953125 271.65625 414.269531 267.761719 418.167969 C 263.863281 422.0625 257.542969 422.0625 253.648438 418.167969 L 249.253906 413.773438 L 246.175781 419.109375 C 243.441406 423.867188 237.367188 425.507812 232.609375 422.773438 C 227.851562 420.039062 226.210938 413.964844 228.941406 409.207031 L 238.070312 393.398438 C 240.933594 387.140625 249.246094 385.539062 254.199219 390.496094 Z M 385.039062 469.367188 C 383.621094 474.683594 378.15625 477.84375 372.839844 476.421875 C 367.519531 475 364.363281 469.539062 365.78125 464.21875 L 370.746094 445.699219 C 372.167969 440.382812 377.628906 437.222656 382.945312 438.644531 C 388.265625 440.0625 391.421875 445.527344 390.003906 450.84375 Z M 422.460938 329.710938 C 421.039062 335.027344 415.578125 338.1875 410.257812 336.765625 C 404.941406 335.347656 401.78125 329.882812 403.203125 324.566406 L 408.164062 306.042969 C 409.585938 300.726562 415.050781 297.566406 420.367188 298.988281 C 425.683594 300.410156 428.84375 305.875 427.421875 311.191406 Z M 409.988281 376.261719 C 408.566406 381.582031 403.101562 384.738281 397.785156 383.320312 C 392.46875 381.898438 389.308594 376.433594 390.730469 371.117188 L 395.691406 352.597656 C 397.113281 347.277344 402.574219 344.121094 407.894531 345.539062 C 413.210938 346.960938 416.371094 352.421875 414.949219 357.742188 Z M 497.914062 269.875 C 503.230469 271.292969 506.390625 276.757812 504.96875 282.074219 C 503.546875 287.390625 498.085938 290.550781 492.765625 289.128906 L 474.246094 284.167969 C 468.929688 282.746094 465.769531 277.285156 467.191406 271.964844 C 468.609375 266.648438 474.074219 263.488281 479.390625 264.910156 Z M 451.359375 257.398438 C 456.679688 258.820312 459.835938 264.285156 458.417969 269.601562 C 456.996094 274.917969 451.535156 278.078125 446.214844 276.65625 L 437.316406 274.273438 L 434.933594 283.160156 C 433.511719 288.476562 428.050781 291.636719 422.730469 290.214844 C 417.414062 288.792969 414.253906 283.332031 415.675781 278.011719 L 420.640625 259.492188 C 422.058594 254.171875 427.523438 251.015625 432.839844 252.4375 Z M 574.601562 255.191406 C 571.867188 259.949219 565.792969 261.589844 561.035156 258.855469 C 556.277344 256.121094 554.636719 250.046875 557.371094 245.289062 L 566.957031 228.683594 C 569.691406 223.925781 575.765625 222.285156 580.523438 225.019531 C 585.28125 227.753906 586.921875 233.828125 584.191406 238.585938 Z M 598.699219 213.492188 C 595.945312 218.25 589.851562 219.875 585.09375 217.117188 C 580.335938 214.363281 578.714844 208.269531 581.46875 203.511719 L 591.058594 186.90625 C 593.8125 182.148438 599.90625 180.527344 604.664062 183.28125 C 609.421875 186.039062 611.042969 192.128906 608.289062 196.886719 Z M 542.863281 270.378906 C 545.617188 265.621094 551.710938 264 556.46875 266.753906 C 561.226562 269.511719 562.847656 275.601562 560.09375 280.359375 L 550.503906 296.964844 C 548.199219 300.949219 543.558594 302.734375 539.320312 301.597656 L 520.796875 296.640625 C 515.476562 295.222656 512.320312 289.757812 513.738281 284.441406 C 515.160156 279.121094 520.621094 275.964844 525.941406 277.386719 L 537.089844 280.371094 Z M 623.769531 125.210938 C 637.546875 125.210938 648.71875 136.382812 648.71875 150.160156 C 648.71875 163.941406 637.546875 175.109375 623.769531 175.109375 C 622.484375 175.109375 621.226562 175.011719 619.996094 174.828125 C 616.925781 177.039062 612.722656 177.390625 609.230469 175.382812 C 605.722656 173.367188 603.910156 169.535156 604.292969 165.753906 C 600.867188 161.484375 598.820312 156.0625 598.820312 150.160156 C 598.820312 136.382812 609.988281 125.210938 623.769531 125.210938 Z M 193.136719 472.964844 C 191.90625 472.777344 190.648438 472.679688 189.367188 472.679688 C 175.585938 472.679688 164.417969 483.851562 164.417969 497.628906 C 164.417969 511.410156 175.585938 522.578125 189.367188 522.578125 C 203.144531 522.578125 214.316406 511.410156 214.316406 497.628906 C 214.316406 495.484375 214.042969 493.402344 213.535156 491.414062 L 277.269531 441.785156 L 287.726562 452.246094 C 291.621094 456.140625 297.941406 456.140625 301.835938 452.246094 C 305.734375 448.347656 305.734375 442.027344 301.835938 438.132812 L 293.132812 429.429688 L 311.777344 414.914062 C 315.324219 416.855469 319.394531 417.960938 323.726562 417.960938 C 330.203125 417.960938 336.101562 415.492188 340.539062 411.441406 L 465.902344 467.613281 C 465.898438 467.707031 465.898438 467.800781 465.898438 467.890625 C 465.898438 481.671875 477.066406 492.839844 490.847656 492.839844 C 504.625 492.839844 515.796875 481.671875 515.796875 467.890625 C 515.796875 464.4375 515.09375 461.148438 513.824219 458.15625 L 640.804688 324.5 C 643.46875 325.46875 646.347656 326 649.347656 326 C 663.128906 326 674.296875 314.832031 674.296875 301.050781 C 674.296875 287.269531 663.128906 276.101562 649.347656 276.101562 C 635.570312 276.101562 624.398438 287.269531 624.398438 301.050781 C 624.398438 304.503906 625.101562 307.792969 626.371094 310.785156 L 499.390625 444.445312 C 496.726562 443.472656 493.847656 442.941406 490.847656 442.941406 C 484.367188 442.941406 478.46875 445.410156 474.035156 449.460938 L 399.339844 415.992188 L 402.476562 404.292969 C 403.898438 398.976562 400.738281 393.511719 395.421875 392.089844 C 390.101562 390.671875 384.640625 393.832031 383.21875 399.148438 L 380.917969 407.738281 L 348.671875 393.289062 C 348.675781 393.195312 348.675781 393.101562 348.675781 393.007812 C 348.675781 379.230469 337.507812 368.058594 323.726562 368.058594 C 309.949219 368.058594 298.777344 379.230469 298.777344 393.007812 C 298.777344 395.15625 299.050781 397.238281 299.558594 399.226562 L 223.46875 458.472656 L 231.664062 444.277344 C 234.421875 439.519531 232.796875 433.425781 228.039062 430.671875 C 223.28125 427.917969 217.191406 429.539062 214.433594 434.296875 L 204.847656 450.902344 C 202.089844 455.660156 203.714844 461.75 208.472656 464.507812 C 210.21875 465.515625 212.140625 465.9375 214.015625 465.832031 L 204.8125 472.996094 C 204.523438 472.785156 204.21875 472.589844 203.902344 472.40625 C 200.410156 470.402344 196.207031 470.753906 193.136719 472.964844 Z M 377.746094 493.265625 C 377.148438 489.496094 374.398438 486.242188 370.472656 485.195312 C 366.550781 484.144531 362.554688 485.589844 360.152344 488.550781 C 357.625 488.832031 355.207031 489.492188 352.964844 490.46875 C 349.394531 489.101562 345.199219 489.851562 342.324219 492.730469 C 339.449219 495.605469 338.695312 499.800781 340.066406 503.367188 C 338.730469 506.425781 337.988281 509.796875 337.988281 513.34375 C 337.988281 527.125 349.160156 538.292969 362.9375 538.292969 C 376.71875 538.292969 387.886719 527.125 387.886719 513.34375 C 387.886719 505.109375 383.898438 497.808594 377.746094 493.265625 Z M 364.683594 40.519531 C 316.984375 40.519531 278.320312 79.1875 278.320312 126.886719 C 278.320312 174.582031 316.984375 213.253906 364.683594 213.253906 C 412.382812 213.253906 451.050781 174.585938 451.050781 126.886719 C 451.050781 79.1875 412.382812 40.519531 364.683594 40.519531 Z M 364.683594 6.609375 C 298.257812 6.609375 244.40625 60.457031 244.40625 126.886719 C 244.40625 152.542969 252.445312 176.324219 266.136719 195.851562 C 253.570312 208.046875 241.003906 220.242188 228.433594 232.4375 L 227.074219 231.039062 C 222.886719 226.722656 215.925781 226.617188 211.613281 230.804688 L 145.558594 294.902344 C 141.246094 299.089844 141.140625 306.046875 145.328125 310.363281 L 169.175781 334.9375 C 173.363281 339.253906 180.320312 339.359375 184.636719 335.171875 L 250.6875 271.078125 C 255.003906 266.890625 255.109375 259.929688 250.921875 255.613281 L 249.5625 254.214844 L 286.550781 218.324219 C 307.570312 236.304688 334.855469 247.164062 364.6875 247.164062 C 431.113281 247.164062 484.964844 193.3125 484.964844 126.886719 C 484.964844 60.457031 431.113281 6.609375 364.683594 6.609375 Z M 114.515625 572.480469 L 114.515625 6.609375 L 81.609375 6.609375 L 81.609375 605.390625 L 680.390625 605.390625 L 680.390625 572.480469 Z M 114.515625 572.480469 " fill-opacity="1" fill-rule="evenodd"/></g></svg>