<svg xmlns="http://www.w3.org/2000/svg" xmlns:xlink="http://www.w3.org/1999/xlink" width="1056" zoomAndPan="magnify" viewBox="0 0 792 611.999999" height="816" preserveAspectRatio="xMidYMid meet" version="1.0"><defs><clipPath id="05e7eb4389"><path d="M 85 0 L 625 0 L 625 605.25 L 85 605.25 Z M 85 0 " clip-rule="nonzero"/></clipPath></defs><g clip-path="url(#05e7eb4389)"><path fill="#1676bb" d="M 106.035156 358.273438 C 106.980469 358.746094 107.453125 358.746094 108.398438 359.21875 L 110.761719 360.164062 C 115.015625 361.582031 118.796875 363 121.160156 365.363281 C 122.578125 366.78125 118.324219 376.707031 116.433594 380.960938 C 111.707031 391.832031 104.144531 407.902344 117.378906 418.300781 C 119.742188 420.191406 123.050781 421.136719 126.359375 421.609375 C 123.996094 424.917969 122.105469 428.226562 122.105469 432.480469 C 122.578125 443.824219 134.394531 446.1875 139.59375 447.605469 C 140.066406 447.605469 140.539062 447.605469 141.011719 448.078125 C 141.011719 451.859375 140.539062 457.53125 139.59375 462.257812 C 138.175781 474.546875 136.285156 489.671875 140.066406 503.378906 C 142.429688 511.886719 148.101562 519.449219 155.664062 525.121094 C 164.644531 531.738281 175.988281 534.574219 187.804688 533.628906 C 228.453125 529.847656 271.464844 516.140625 311.167969 492.980469 C 314.003906 531.738281 308.804688 561.042969 283.753906 589.875 C 281.390625 592.710938 280.917969 596.492188 282.335938 599.800781 C 283.753906 603.109375 287.0625 605.472656 290.84375 605.472656 L 539.933594 605.472656 C 544.1875 605.472656 547.96875 602.636719 548.914062 598.855469 C 549.859375 595.074219 548.441406 590.347656 545.132812 588.457031 C 529.0625 578.058594 518.664062 561.988281 514.882812 540.71875 C 504.011719 482.109375 541.824219 402.703125 570.183594 363.945312 C 575.855469 356.382812 580.109375 348.820312 584.363281 341.730469 C 587.671875 336.53125 590.980469 330.859375 594.761719 325.1875 C 616.976562 292.101562 627.375 250.980469 624.066406 208.914062 C 617.921875 129.035156 560.257812 51.519531 483.6875 20.324219 C 478.015625 17.960938 471.871094 15.597656 465.726562 13.707031 C 438.3125 4.253906 407.589844 0 375.449219 0 C 375.449219 0 375.449219 0 374.976562 0 C 358.433594 0 341.890625 1.417969 325.820312 4.253906 C 288.953125 10.398438 197.730469 35.449219 151.410156 135.179688 C 137.230469 165.429688 133.921875 196.152344 140.066406 230.65625 C 142.429688 242.472656 133.921875 257.125 125.886719 270.832031 C 124.46875 272.722656 123.523438 275.085938 122.105469 276.976562 C 117.378906 285.484375 111.234375 293.046875 105.5625 300.136719 C 98.472656 309.117188 91.855469 317.625 87.601562 327.550781 C 84.765625 334.167969 85.238281 341.730469 89.019531 347.402344 C 94.21875 354.492188 101.308594 356.855469 106.035156 358.273438 Z M 105.5625 334.640625 C 108.871094 327.078125 114.542969 319.988281 121.160156 311.480469 C 126.832031 303.917969 133.449219 295.882812 139.121094 285.957031 C 140.066406 284.066406 141.484375 281.703125 142.429688 279.8125 C 151.882812 263.742188 162.753906 245.308594 158.972656 226.402344 C 153.300781 195.679688 156.136719 169.683594 168.898438 142.269531 C 211.4375 51.046875 295.097656 28.359375 329.128906 22.6875 C 344.253906 20.324219 359.851562 18.90625 375.449219 18.90625 C 375.449219 18.90625 375.449219 18.90625 375.921875 18.90625 C 406.171875 18.90625 434.53125 23.160156 461 31.195312 C 466.671875 33.085938 472.34375 34.976562 477.542969 37.339844 C 547.496094 65.699219 600.433594 137.070312 606.105469 209.859375 C 608.941406 247.671875 599.960938 284.539062 580.109375 313.84375 C 575.855469 319.988281 572.546875 325.660156 569.238281 330.859375 C 564.984375 337.949219 560.730469 344.566406 555.53125 351.65625 C 525.28125 393.25 485.105469 478.800781 496.921875 543.082031 C 500.230469 559.625 506.375 574.277344 516.300781 585.621094 L 310.222656 585.621094 C 331.492188 553.007812 333.382812 518.03125 328.65625 475.019531 C 328.183594 469.820312 323.457031 466.039062 318.257812 466.511719 C 316.367188 466.511719 314.476562 467.457031 313.058594 468.402344 C 313.058594 468.402344 313.058594 468.402344 312.585938 468.402344 L 306.914062 471.710938 C 267.683594 495.34375 225.617188 509.523438 185.914062 512.832031 C 178.351562 513.304688 171.734375 511.886719 166.535156 508.105469 C 162.28125 504.796875 158.972656 500.542969 158.027344 496.289062 C 155.191406 486.363281 156.609375 473.601562 158.027344 462.730469 C 159.445312 451.859375 160.390625 442.878906 157.554688 436.261719 C 155.191406 430.117188 149.046875 428.699219 144.320312 427.753906 C 144.320312 427.753906 144.320312 427.753906 144.792969 427.28125 C 149.519531 422.554688 154.71875 417.828125 153.300781 410.265625 C 151.410156 401.757812 142.429688 401.285156 135.339844 401.285156 C 133.449219 401.285156 130.140625 401.285156 128.25 400.8125 C 128.25 397.976562 131.085938 390.886719 132.976562 386.632812 C 138.175781 375.289062 144.792969 360.164062 133.449219 349.292969 C 128.25 344.566406 122.105469 342.203125 116.433594 340.3125 L 114.542969 341.257812 C 113.597656 340.785156 112.652344 340.785156 111.707031 340.3125 C 108.871094 339.367188 106.035156 338.421875 105.089844 337.003906 C 105.089844 337.003906 105.089844 336.058594 105.5625 334.640625 Z M 105.5625 334.640625 " fill-opacity="1" fill-rule="nonzero"/></g><path fill="#1676bb" d="M 379.230469 387.578125 C 374.03125 387.578125 369.777344 391.832031 369.777344 397.03125 L 369.777344 415.9375 C 369.777344 421.136719 374.03125 425.390625 379.230469 425.390625 C 384.429688 425.390625 388.683594 421.136719 388.683594 415.9375 L 388.683594 397.03125 C 388.683594 391.832031 384.429688 387.578125 379.230469 387.578125 Z M 379.230469 387.578125 " fill-opacity="1" fill-rule="nonzero"/><path fill="#1676bb" d="M 374.503906 307.699219 C 374.976562 302.5 371.195312 297.773438 365.996094 297.300781 C 361.742188 296.828125 357.015625 296.355469 352.761719 295.410156 C 347.5625 294.464844 342.835938 297.773438 341.890625 302.972656 C 340.945312 308.171875 344.253906 312.898438 349.453125 313.84375 C 354.179688 314.789062 359.378906 315.734375 364.578125 316.207031 C 365.050781 316.207031 365.050781 316.207031 365.523438 316.207031 C 370.25 316.207031 374.03125 312.425781 374.503906 307.699219 Z M 374.503906 307.699219 " fill-opacity="1" fill-rule="nonzero"/><path fill="#1676bb" d="M 322.984375 286.429688 C 318.730469 285.011719 314.949219 283.121094 310.695312 280.757812 C 305.96875 278.394531 300.296875 280.285156 297.933594 285.011719 C 295.570312 289.738281 297.460938 295.410156 302.1875 297.773438 C 306.914062 300.136719 311.167969 302.027344 315.894531 303.917969 C 316.839844 304.390625 318.257812 304.390625 319.675781 304.390625 C 323.457031 304.390625 326.765625 302.027344 328.65625 298.71875 C 330.546875 293.519531 328.183594 288.320312 322.984375 286.429688 Z M 322.984375 286.429688 " fill-opacity="1" fill-rule="nonzero"/><path fill="#1676bb" d="M 240.742188 252.871094 C 243.578125 252.871094 245.941406 251.925781 247.832031 249.5625 C 251.140625 245.78125 250.667969 240.109375 247.359375 236.800781 C 248.777344 235.382812 249.722656 233.964844 251.613281 232.546875 L 252.085938 232.074219 C 255.867188 228.292969 255.867188 222.148438 252.085938 218.839844 C 248.304688 215.058594 242.160156 215.058594 238.851562 218.839844 L 238.378906 219.3125 C 236.488281 221.203125 235.070312 223.09375 233.652344 224.039062 C 230.34375 227.347656 228.453125 232.074219 228.453125 236.328125 C 228.453125 241.527344 230.816406 246.726562 235.070312 250.035156 C 236.488281 251.925781 238.378906 252.871094 240.742188 252.871094 Z M 240.742188 252.871094 " fill-opacity="1" fill-rule="nonzero"/><path fill="#1676bb" d="M 262.011719 208.914062 C 263.902344 210.804688 266.265625 212.222656 269.101562 212.222656 C 271.464844 212.222656 273.828125 211.277344 275.246094 209.859375 C 278.554688 206.550781 282.335938 203.714844 285.644531 200.878906 C 289.898438 197.570312 290.371094 191.425781 287.0625 187.644531 C 283.753906 183.390625 277.609375 182.917969 273.828125 186.226562 C 270.046875 189.0625 266.265625 192.371094 262.957031 195.679688 C 258.703125 198.988281 258.230469 205.132812 262.011719 208.914062 Z M 262.011719 208.914062 " fill-opacity="1" fill-rule="nonzero"/><path fill="#1676bb" d="M 306.441406 183.390625 C 308.332031 183.390625 309.75 182.917969 311.167969 181.972656 C 314.949219 179.609375 319.203125 177.246094 322.984375 175.355469 C 327.710938 172.992188 329.601562 167.320312 327.238281 162.59375 C 324.875 157.867188 319.203125 155.976562 314.476562 158.339844 C 310.222656 160.703125 305.96875 163.066406 301.714844 165.902344 C 297.460938 168.738281 296.042969 174.410156 298.40625 179.136719 C 300.296875 181.972656 303.132812 183.390625 306.441406 183.390625 Z M 306.441406 183.390625 " fill-opacity="1" fill-rule="nonzero"/><path fill="#1676bb" d="M 474.234375 201.824219 C 478.015625 204.660156 481.324219 207.96875 484.632812 210.804688 C 486.523438 212.222656 488.414062 213.167969 490.777344 213.167969 C 493.613281 213.167969 495.976562 212.222656 497.867188 209.859375 C 501.175781 206.078125 500.703125 199.933594 496.921875 196.625 C 493.613281 193.789062 489.832031 190.480469 485.578125 187.171875 C 481.324219 183.863281 475.652344 184.335938 472.34375 188.589844 C 469.507812 192.371094 469.980469 198.515625 474.234375 201.824219 Z M 474.234375 201.824219 " fill-opacity="1" fill-rule="nonzero"/><path fill="#1676bb" d="M 394.828125 162.121094 C 399.082031 162.59375 403.335938 164.011719 407.589844 164.957031 C 408.535156 165.429688 409.480469 165.429688 409.953125 165.429688 C 414.207031 165.429688 417.988281 162.59375 418.933594 158.339844 C 420.351562 153.140625 417.515625 147.941406 412.316406 146.523438 C 407.589844 145.105469 402.390625 144.160156 397.664062 143.214844 C 392.464844 142.269531 387.738281 146.050781 386.792969 150.777344 C 386.320312 156.449219 389.628906 161.175781 394.828125 162.121094 Z M 394.828125 162.121094 " fill-opacity="1" fill-rule="nonzero"/><path fill="#1676bb" d="M 436.421875 176.773438 C 440.203125 178.664062 444.457031 181.027344 448.238281 183.390625 C 449.65625 184.335938 451.546875 184.808594 452.964844 184.808594 C 456.273438 184.808594 459.109375 183.390625 461 180.082031 C 463.835938 175.828125 462.417969 169.683594 457.691406 166.847656 C 453.4375 164.011719 449.183594 161.648438 444.929688 159.757812 C 440.203125 157.394531 434.53125 159.285156 432.167969 163.539062 C 430.277344 168.265625 431.695312 174.410156 436.421875 176.773438 Z M 436.421875 176.773438 " fill-opacity="1" fill-rule="nonzero"/><path fill="#1676bb" d="M 349.453125 164.484375 C 350.398438 164.484375 350.871094 164.484375 351.816406 164.011719 C 356.070312 163.066406 360.324219 162.121094 364.578125 161.648438 C 369.777344 161.175781 373.558594 155.976562 372.613281 151.25 C 372.140625 146.050781 366.941406 142.269531 362.214844 143.214844 C 357.488281 143.6875 352.289062 144.632812 347.089844 146.050781 C 341.890625 147.46875 339.054688 152.667969 340.472656 157.394531 C 341.417969 161.648438 345.199219 164.484375 349.453125 164.484375 Z M 349.453125 164.484375 " fill-opacity="1" fill-rule="nonzero"/><path fill="#1676bb" d="M 451.546875 277.449219 C 447.292969 279.8125 443.511719 281.703125 439.257812 283.59375 C 434.53125 285.957031 432.167969 291.15625 434.53125 295.882812 C 435.949219 299.191406 439.730469 301.554688 443.039062 301.554688 C 444.457031 301.554688 445.875 301.082031 446.820312 300.609375 C 451.074219 298.71875 455.800781 296.355469 460.054688 293.992188 C 464.78125 291.628906 466.199219 285.957031 463.835938 281.230469 C 461.945312 276.503906 456.273438 274.613281 451.546875 277.449219 Z M 451.546875 277.449219 " fill-opacity="1" fill-rule="nonzero"/><path fill="#1676bb" d="M 283.28125 264.6875 C 279.5 262.324219 275.71875 259.488281 271.9375 256.652344 C 267.683594 253.34375 262.011719 254.289062 258.703125 258.542969 C 255.394531 262.796875 256.339844 268.46875 260.59375 271.777344 C 264.375 274.613281 268.628906 277.449219 272.410156 280.285156 C 273.828125 281.230469 275.71875 281.703125 277.609375 281.703125 C 280.445312 281.703125 283.753906 280.285156 285.644531 277.449219 C 288.953125 273.195312 287.535156 267.523438 283.28125 264.6875 Z M 283.28125 264.6875 " fill-opacity="1" fill-rule="nonzero"/><path fill="#1676bb" d="M 501.175781 267.523438 C 505.429688 264.214844 505.902344 258.542969 503.066406 254.289062 C 499.757812 250.035156 494.085938 249.5625 489.832031 252.398438 C 486.523438 255.234375 482.742188 257.597656 478.488281 260.433594 C 474.234375 263.269531 473.289062 269.414062 476.125 273.667969 C 478.015625 276.503906 480.851562 277.921875 483.6875 277.921875 C 485.578125 277.921875 487.46875 277.449219 488.886719 276.03125 C 493.613281 273.195312 497.867188 269.886719 501.175781 267.523438 Z M 501.175781 267.523438 " fill-opacity="1" fill-rule="nonzero"/><path fill="#1676bb" d="M 409.953125 293.519531 C 405.699219 294.464844 400.972656 295.410156 396.71875 296.355469 C 391.519531 297.300781 388.210938 302.027344 388.683594 307.226562 C 389.15625 311.953125 393.410156 315.261719 398.136719 315.261719 C 398.609375 315.261719 399.082031 315.261719 399.554688 315.261719 C 404.28125 314.316406 409.480469 313.371094 414.207031 312.425781 C 419.40625 311.007812 422.242188 305.808594 421.296875 301.082031 C 419.878906 295.410156 414.679688 292.574219 409.953125 293.519531 Z M 409.953125 293.519531 " fill-opacity="1" fill-rule="nonzero"/><path fill="#1676bb" d="M 508.265625 219.785156 C 504.484375 223.566406 504.957031 229.710938 508.738281 233.019531 C 509.683594 233.964844 510.628906 234.910156 511.574219 235.855469 C 510.15625 240.582031 512.519531 245.308594 517.246094 247.199219 C 518.191406 247.671875 519.609375 247.671875 520.554688 247.671875 C 524.335938 247.671875 528.117188 245.308594 529.535156 241.527344 C 530.480469 239.636719 530.953125 237.273438 530.953125 235.382812 C 530.953125 230.65625 529.0625 225.929688 525.28125 222.621094 C 524.335938 221.675781 523.390625 220.730469 521.972656 219.785156 C 518.191406 216.003906 512.046875 216.003906 508.265625 219.785156 Z M 508.265625 219.785156 " fill-opacity="1" fill-rule="nonzero"/><path fill="#1676bb" d="M 379.230469 288.320312 C 410.425781 288.320312 435.949219 262.796875 435.949219 231.601562 C 435.949219 200.40625 410.425781 174.882812 379.230469 174.882812 C 348.035156 174.882812 322.511719 200.40625 322.511719 231.601562 C 322.511719 262.796875 348.035156 288.320312 379.230469 288.320312 Z M 379.230469 193.789062 C 400.027344 193.789062 417.042969 210.804688 417.042969 231.601562 C 417.042969 252.398438 400.027344 269.414062 379.230469 269.414062 C 358.433594 269.414062 341.417969 252.398438 341.417969 231.601562 C 341.417969 210.804688 358.433594 193.789062 379.230469 193.789062 Z M 379.230469 193.789062 " fill-opacity="1" fill-rule="nonzero"/><path fill="#1676bb" d="M 379.230469 250.507812 C 389.628906 250.507812 398.136719 242 398.136719 231.601562 C 398.136719 221.203125 389.628906 212.695312 379.230469 212.695312 C 368.832031 212.695312 360.324219 221.203125 360.324219 231.601562 C 360.324219 242 368.832031 250.507812 379.230469 250.507812 Z M 383.957031 217.421875 C 389.15625 217.421875 393.410156 221.675781 393.410156 226.875 C 393.410156 232.074219 389.15625 236.328125 383.957031 236.328125 C 378.757812 236.328125 374.503906 232.074219 374.503906 226.875 C 374.503906 221.675781 378.757812 217.421875 383.957031 217.421875 Z M 383.957031 217.421875 " fill-opacity="1" fill-rule="nonzero"/><path fill="#1676bb" d="M 379.230469 75.625 C 384.429688 75.625 388.683594 71.371094 388.683594 66.171875 L 388.683594 47.265625 C 388.683594 42.066406 384.429688 37.8125 379.230469 37.8125 C 374.03125 37.8125 369.777344 42.066406 369.777344 47.265625 L 369.777344 66.171875 C 369.777344 71.371094 374.03125 75.625 379.230469 75.625 Z M 379.230469 75.625 " fill-opacity="1" fill-rule="nonzero"/><path fill="#1676bb" d="M 495.976562 124.308594 C 498.339844 124.308594 500.703125 123.363281 502.59375 121.472656 L 515.828125 108.238281 C 519.609375 104.457031 519.609375 98.785156 515.828125 95.003906 C 512.046875 91.222656 506.375 91.222656 502.59375 95.003906 L 489.359375 108.238281 C 485.578125 112.019531 485.578125 117.691406 489.359375 121.472656 C 491.25 123.363281 493.613281 124.308594 495.976562 124.308594 Z M 495.976562 124.308594 " fill-opacity="1" fill-rule="nonzero"/><path fill="#1676bb" d="M 554.113281 241.054688 L 573.019531 241.054688 C 578.21875 241.054688 582.472656 236.800781 582.472656 231.601562 C 582.472656 226.402344 578.21875 222.148438 573.019531 222.148438 L 554.113281 222.148438 C 548.914062 222.148438 544.660156 226.402344 544.660156 231.601562 C 544.660156 236.800781 548.914062 241.054688 554.113281 241.054688 Z M 554.113281 241.054688 " fill-opacity="1" fill-rule="nonzero"/><path fill="#1676bb" d="M 503.066406 341.730469 C 499.285156 337.949219 493.613281 337.949219 489.832031 341.730469 C 486.050781 345.511719 486.050781 351.183594 489.832031 354.964844 L 503.066406 368.199219 C 504.957031 370.089844 507.320312 371.035156 509.683594 371.035156 C 512.046875 371.035156 514.410156 370.089844 516.300781 368.199219 C 520.082031 364.417969 520.082031 358.746094 516.300781 354.964844 Z M 503.066406 341.730469 " fill-opacity="1" fill-rule="nonzero"/><path fill="#1676bb" d="M 255.394531 341.730469 L 242.160156 355.4375 C 238.378906 359.21875 238.378906 364.890625 242.160156 368.671875 C 244.050781 370.5625 246.414062 371.507812 248.777344 371.507812 C 251.140625 371.507812 253.503906 370.5625 255.394531 368.671875 L 268.628906 355.4375 C 272.410156 351.65625 272.410156 345.984375 268.628906 342.203125 C 264.847656 338.421875 259.175781 338.421875 255.394531 341.730469 Z M 255.394531 341.730469 " fill-opacity="1" fill-rule="nonzero"/><path fill="#1676bb" d="M 185.441406 245.78125 L 204.347656 245.78125 C 209.546875 245.78125 213.800781 241.527344 213.800781 236.328125 C 213.800781 231.128906 209.546875 226.875 204.347656 226.875 L 185.441406 226.875 C 180.242188 226.875 175.988281 231.128906 175.988281 236.328125 C 175.988281 241.527344 180.242188 245.78125 185.441406 245.78125 Z M 185.441406 245.78125 " fill-opacity="1" fill-rule="nonzero"/><path fill="#1676bb" d="M 255.394531 121.472656 C 257.285156 123.363281 259.648438 124.308594 262.011719 124.308594 C 264.375 124.308594 266.738281 123.363281 268.628906 121.472656 C 272.410156 117.691406 272.410156 112.019531 268.628906 108.238281 L 255.394531 94.53125 C 251.613281 90.75 245.941406 90.75 242.160156 94.53125 C 238.378906 98.3125 238.378906 103.984375 242.160156 107.765625 Z M 255.394531 121.472656 " fill-opacity="1" fill-rule="nonzero"/></svg>