<svg xmlns="http://www.w3.org/2000/svg" xmlns:xlink="http://www.w3.org/1999/xlink" width="2000" zoomAndPan="magnify" viewBox="0 0 1500 1499.999933" height="2000" preserveAspectRatio="xMidYMid meet" version="1.0"><path fill="#1676bb" d="M 843.757812 1373.988281 L 756.957031 1310.90625 C 756.460938 1310.542969 755.933594 1310.21875 755.382812 1309.9375 C 754.835938 1309.65625 754.265625 1309.417969 753.679688 1309.226562 C 753.089844 1309.035156 752.492188 1308.890625 751.882812 1308.792969 C 751.273438 1308.695312 750.65625 1308.648438 750.039062 1308.648438 C 749.421875 1308.648438 748.808594 1308.695312 748.199219 1308.792969 C 747.585938 1308.890625 746.988281 1309.035156 746.402344 1309.226562 C 745.8125 1309.417969 745.246094 1309.65625 744.695312 1309.9375 C 744.144531 1310.21875 743.621094 1310.542969 743.121094 1310.90625 L 656.320312 1373.988281 C 655.136719 1374.84375 653.921875 1375.65625 652.675781 1376.417969 C 651.425781 1377.179688 650.152344 1377.890625 648.851562 1378.554688 C 647.546875 1379.214844 646.21875 1379.824219 644.871094 1380.382812 C 643.519531 1380.941406 642.148438 1381.445312 640.757812 1381.898438 C 639.367188 1382.347656 637.960938 1382.742188 636.542969 1383.082031 C 635.121094 1383.421875 633.6875 1383.707031 632.242188 1383.933594 C 630.800781 1384.164062 629.351562 1384.332031 627.894531 1384.445312 C 626.4375 1384.5625 624.976562 1384.617188 623.515625 1384.617188 C 622.054688 1384.617188 620.59375 1384.558594 619.136719 1384.445312 C 617.679688 1384.328125 616.230469 1384.15625 614.789062 1383.925781 C 613.34375 1383.699219 611.910156 1383.414062 610.492188 1383.070312 C 609.070312 1382.730469 607.664062 1382.332031 606.273438 1381.882812 C 604.886719 1381.429688 603.515625 1380.925781 602.164062 1380.367188 C 600.8125 1379.808594 599.488281 1379.195312 598.1875 1378.53125 C 596.882812 1377.871094 595.609375 1377.15625 594.363281 1376.394531 C 593.117188 1375.628906 591.902344 1374.816406 590.71875 1373.960938 C 589.539062 1373.101562 588.390625 1372.199219 587.277344 1371.25 C 586.167969 1370.300781 585.09375 1369.308594 584.058594 1368.277344 C 583.027344 1367.246094 582.035156 1366.171875 581.085938 1365.0625 C 580.132812 1363.949219 579.230469 1362.804688 578.371094 1361.625 C 577.511719 1360.441406 576.699219 1359.226562 575.933594 1357.984375 C 575.167969 1356.738281 574.453125 1355.464844 573.789062 1354.164062 C 573.125 1352.859375 572.511719 1351.535156 571.949219 1350.183594 C 571.390625 1348.835938 570.882812 1347.464844 570.429688 1346.078125 C 569.976562 1344.6875 569.578125 1343.28125 569.234375 1341.863281 C 568.894531 1340.441406 568.605469 1339.007812 568.375 1337.566406 C 568.144531 1336.125 567.972656 1334.671875 567.855469 1333.214844 C 567.738281 1331.761719 567.679688 1330.300781 567.675781 1328.839844 C 567.675781 1327.378906 567.730469 1325.917969 567.839844 1324.460938 C 567.953125 1323.003906 568.125 1321.554688 568.347656 1320.109375 C 568.574219 1318.667969 568.859375 1317.234375 569.195312 1315.8125 C 569.535156 1314.390625 569.929688 1312.984375 570.378906 1311.59375 L 603.679688 1209.539062 C 603.867188 1208.949219 604.011719 1208.355469 604.105469 1207.746094 C 604.199219 1207.136719 604.246094 1206.527344 604.246094 1205.910156 C 604.242188 1205.292969 604.195312 1204.683594 604.097656 1204.074219 C 603.996094 1203.46875 603.851562 1202.871094 603.660156 1202.285156 C 603.46875 1201.699219 603.234375 1201.132812 602.953125 1200.585938 C 602.671875 1200.039062 602.347656 1199.515625 601.984375 1199.019531 C 601.621094 1198.523438 601.222656 1198.058594 600.785156 1197.621094 C 600.351562 1197.1875 599.882812 1196.792969 599.382812 1196.429688 L 512.582031 1133.347656 C 511.40625 1132.488281 510.261719 1131.582031 509.15625 1130.628906 C 508.050781 1129.679688 506.984375 1128.6875 505.953125 1127.652344 C 504.925781 1126.617188 503.9375 1125.542969 502.996094 1124.429688 C 502.050781 1123.316406 501.152344 1122.171875 500.296875 1120.988281 C 499.441406 1119.804688 498.636719 1118.589844 497.875 1117.347656 C 497.117188 1116.101562 496.40625 1114.828125 495.746094 1113.523438 C 495.089844 1112.222656 494.480469 1110.898438 493.925781 1109.550781 C 493.371094 1108.199219 492.867188 1106.832031 492.417969 1105.441406 C 491.96875 1104.054688 491.578125 1102.652344 491.238281 1101.230469 C 490.898438 1099.8125 490.617188 1098.382812 490.390625 1096.941406 C 490.164062 1095.5 489.996094 1094.050781 489.882812 1092.597656 C 489.769531 1091.140625 489.714844 1089.6875 489.714844 1088.226562 C 489.714844 1086.769531 489.773438 1085.3125 489.890625 1083.855469 C 490.003906 1082.402344 490.175781 1080.953125 490.40625 1079.511719 C 490.632812 1078.074219 490.917969 1076.644531 491.257812 1075.222656 C 491.601562 1073.804688 491.996094 1072.402344 492.445312 1071.015625 C 492.898438 1069.628906 493.402344 1068.257812 493.960938 1066.910156 C 494.519531 1065.5625 495.128906 1064.238281 495.789062 1062.9375 C 496.449219 1061.636719 497.164062 1060.367188 497.921875 1059.121094 C 498.683594 1057.875 499.492188 1056.664062 500.351562 1055.484375 C 501.207031 1054.300781 502.109375 1053.15625 503.054688 1052.042969 C 504 1050.933594 504.988281 1049.863281 506.019531 1048.828125 C 507.046875 1047.796875 508.117188 1046.804688 509.226562 1045.855469 C 510.332031 1044.90625 511.476562 1044 512.65625 1043.140625 C 513.835938 1042.28125 515.042969 1041.46875 516.285156 1040.703125 C 517.53125 1039.9375 518.800781 1039.222656 520.097656 1038.558594 C 521.398438 1037.894531 522.71875 1037.28125 524.066406 1036.71875 C 525.410156 1036.15625 526.777344 1035.648438 528.164062 1035.191406 C 529.550781 1034.738281 530.953125 1034.339844 532.371094 1033.992188 C 533.789062 1033.648438 535.21875 1033.359375 536.65625 1033.125 C 538.097656 1032.894531 539.542969 1032.71875 541 1032.597656 C 542.453125 1032.476562 543.910156 1032.414062 545.367188 1032.410156 L 652.796875 1032.410156 C 653.414062 1032.414062 654.027344 1032.367188 654.636719 1032.269531 C 655.246094 1032.175781 655.84375 1032.035156 656.429688 1031.84375 C 657.019531 1031.65625 657.585938 1031.421875 658.136719 1031.140625 C 658.6875 1030.859375 659.210938 1030.539062 659.710938 1030.175781 C 660.210938 1029.8125 660.675781 1029.414062 661.113281 1028.976562 C 661.546875 1028.539062 661.945312 1028.070312 662.308594 1027.570312 C 662.671875 1027.070312 662.992188 1026.546875 663.269531 1025.996094 C 663.546875 1025.445312 663.78125 1024.875 663.96875 1024.289062 L 697.140625 922.234375 C 697.597656 920.847656 698.105469 919.480469 698.667969 918.132812 C 699.234375 916.789062 699.847656 915.464844 700.511719 914.167969 C 701.179688 912.867188 701.894531 911.597656 702.660156 910.355469 C 703.429688 909.113281 704.242188 907.902344 705.101562 906.726562 C 705.960938 905.546875 706.867188 904.402344 707.820312 903.296875 C 708.769531 902.1875 709.761719 901.121094 710.796875 900.089844 C 711.828125 899.0625 712.902344 898.074219 714.011719 897.128906 C 715.125 896.183594 716.269531 895.28125 717.453125 894.425781 C 718.636719 893.570312 719.847656 892.761719 721.09375 892 C 722.339844 891.242188 723.613281 890.53125 724.914062 889.871094 C 726.214844 889.207031 727.539062 888.601562 728.890625 888.042969 C 730.238281 887.484375 731.605469 886.984375 732.996094 886.53125 C 734.382812 886.082031 735.785156 885.6875 737.207031 885.347656 C 738.625 885.007812 740.054688 884.726562 741.496094 884.496094 C 742.9375 884.269531 744.386719 884.097656 745.839844 883.984375 C 747.296875 883.871094 748.753906 883.8125 750.210938 883.8125 C 751.671875 883.8125 753.128906 883.871094 754.582031 883.984375 C 756.039062 884.097656 757.484375 884.269531 758.925781 884.496094 C 760.367188 884.726562 761.796875 885.007812 763.21875 885.347656 C 764.636719 885.6875 766.039062 886.082031 767.429688 886.53125 C 768.816406 886.984375 770.183594 887.484375 771.535156 888.042969 C 772.882812 888.601562 774.207031 889.207031 775.507812 889.871094 C 776.808594 890.53125 778.082031 891.242188 779.328125 892 C 780.574219 892.761719 781.789062 893.570312 782.96875 894.425781 C 784.152344 895.28125 785.296875 896.183594 786.410156 897.128906 C 787.519531 898.074219 788.59375 899.0625 789.628906 900.089844 C 790.664062 901.121094 791.65625 902.1875 792.605469 903.296875 C 793.554688 904.402344 794.460938 905.546875 795.320312 906.726562 C 796.183594 907.902344 796.996094 909.113281 797.761719 910.355469 C 798.527344 911.597656 799.242188 912.867188 799.910156 914.167969 C 800.574219 915.464844 801.191406 916.789062 801.753906 918.132812 C 802.316406 919.480469 802.824219 920.847656 803.28125 922.234375 L 836.453125 1024.289062 C 836.644531 1024.875 836.875 1025.445312 837.15625 1025.996094 C 837.433594 1026.546875 837.753906 1027.070312 838.113281 1027.570312 C 838.476562 1028.070312 838.875 1028.539062 839.308594 1028.976562 C 839.746094 1029.414062 840.214844 1029.8125 840.710938 1030.175781 C 841.210938 1030.539062 841.738281 1030.859375 842.285156 1031.140625 C 842.835938 1031.421875 843.40625 1031.65625 843.992188 1031.84375 C 844.578125 1032.035156 845.175781 1032.175781 845.785156 1032.269531 C 846.398438 1032.367188 847.011719 1032.414062 847.628906 1032.410156 L 955.054688 1032.410156 C 956.511719 1032.414062 957.96875 1032.476562 959.425781 1032.597656 C 960.878906 1032.71875 962.324219 1032.894531 963.765625 1033.125 C 965.207031 1033.359375 966.636719 1033.648438 968.050781 1033.992188 C 969.46875 1034.339844 970.871094 1034.738281 972.257812 1035.191406 C 973.644531 1035.648438 975.011719 1036.15625 976.359375 1036.71875 C 977.703125 1037.28125 979.027344 1037.894531 980.324219 1038.558594 C 981.625 1039.222656 982.894531 1039.9375 984.136719 1040.703125 C 985.378906 1041.46875 986.589844 1042.28125 987.769531 1043.140625 C 988.945312 1044 990.089844 1044.90625 991.199219 1045.855469 C 992.304688 1046.804688 993.375 1047.796875 994.40625 1048.828125 C 995.433594 1049.863281 996.421875 1050.933594 997.371094 1052.042969 C 998.316406 1053.15625 999.214844 1054.300781 1000.074219 1055.484375 C 1000.929688 1056.664062 1001.738281 1057.875 1002.5 1059.121094 C 1003.261719 1060.367188 1003.972656 1061.636719 1004.632812 1062.9375 C 1005.296875 1064.238281 1005.90625 1065.5625 1006.464844 1066.910156 C 1007.019531 1068.257812 1007.527344 1069.628906 1007.976562 1071.015625 C 1008.425781 1072.402344 1008.824219 1073.804688 1009.164062 1075.222656 C 1009.503906 1076.644531 1009.789062 1078.074219 1010.019531 1079.511719 C 1010.246094 1080.953125 1010.417969 1082.402344 1010.535156 1083.855469 C 1010.648438 1085.3125 1010.707031 1086.769531 1010.707031 1088.226562 C 1010.710938 1089.6875 1010.652344 1091.140625 1010.542969 1092.597656 C 1010.429688 1094.050781 1010.257812 1095.5 1010.03125 1096.941406 C 1009.804688 1098.382812 1009.523438 1099.8125 1009.183594 1101.230469 C 1008.847656 1102.652344 1008.453125 1104.054688 1008.003906 1105.441406 C 1007.554688 1106.832031 1007.054688 1108.199219 1006.5 1109.550781 C 1005.941406 1110.898438 1005.335938 1112.222656 1004.675781 1113.523438 C 1004.015625 1114.828125 1003.304688 1116.101562 1002.546875 1117.347656 C 1001.789062 1118.589844 1000.980469 1119.804688 1000.125 1120.988281 C 999.273438 1122.171875 998.371094 1123.316406 997.429688 1124.429688 C 996.484375 1125.542969 995.496094 1126.617188 994.46875 1127.652344 C 993.441406 1128.6875 992.375 1129.679688 991.265625 1130.628906 C 990.160156 1131.582031 989.019531 1132.488281 987.839844 1133.347656 L 901.039062 1196.429688 C 900.539062 1196.789062 900.066406 1197.183594 899.628906 1197.617188 C 899.191406 1198.050781 898.789062 1198.515625 898.425781 1199.011719 C 898.058594 1199.507812 897.734375 1200.03125 897.453125 1200.578125 C 897.171875 1201.125 896.933594 1201.695312 896.742188 1202.28125 C 896.550781 1202.863281 896.40625 1203.460938 896.308594 1204.070312 C 896.210938 1204.679688 896.164062 1205.292969 896.164062 1205.910156 C 896.164062 1206.523438 896.210938 1207.136719 896.308594 1207.746094 C 896.40625 1208.355469 896.550781 1208.953125 896.742188 1209.539062 L 929.875 1311.59375 C 930.203125 1312.636719 930.5 1313.6875 930.769531 1314.746094 C 931.035156 1315.804688 931.269531 1316.871094 931.476562 1317.945312 C 931.679688 1319.019531 931.855469 1320.097656 931.996094 1321.179688 C 932.140625 1322.265625 932.25 1323.351562 932.328125 1324.441406 C 932.40625 1325.53125 932.453125 1326.621094 932.46875 1327.714844 C 932.484375 1328.808594 932.464844 1329.902344 932.417969 1330.992188 C 932.367188 1332.082031 932.289062 1333.171875 932.175781 1334.261719 C 932.0625 1335.347656 931.917969 1336.429688 931.742188 1337.507812 C 931.566406 1338.585938 931.359375 1339.660156 931.121094 1340.726562 C 930.882812 1341.792969 930.613281 1342.851562 930.316406 1343.902344 C 930.015625 1344.953125 929.683594 1345.996094 929.324219 1347.027344 C 928.964844 1348.058594 928.574219 1349.078125 928.152344 1350.085938 C 927.730469 1351.09375 927.28125 1352.089844 926.804688 1353.074219 C 926.324219 1354.054688 925.820312 1355.023438 925.285156 1355.976562 C 924.75 1356.929688 924.1875 1357.867188 923.597656 1358.785156 C 923.007812 1359.707031 922.390625 1360.609375 921.75 1361.492188 C 921.105469 1362.375 920.4375 1363.242188 919.746094 1364.085938 C 919.054688 1364.933594 918.335938 1365.757812 917.59375 1366.558594 C 916.855469 1367.363281 916.089844 1368.144531 915.304688 1368.902344 C 914.519531 1369.660156 913.710938 1370.398438 912.878906 1371.109375 C 912.050781 1371.820312 911.203125 1372.507812 910.332031 1373.167969 C 909.460938 1373.832031 908.574219 1374.464844 907.667969 1375.078125 C 906.761719 1375.6875 905.835938 1376.269531 904.898438 1376.828125 C 903.957031 1377.382812 903 1377.910156 902.027344 1378.410156 C 901.058594 1378.910156 900.070312 1379.382812 899.074219 1379.828125 C 898.074219 1380.269531 897.0625 1380.683594 896.039062 1381.066406 C 895.015625 1381.449219 893.984375 1381.804688 892.9375 1382.128906 C 891.894531 1382.453125 890.84375 1382.746094 889.78125 1383.007812 C 888.722656 1383.269531 887.652344 1383.5 886.578125 1383.699219 C 885.503906 1383.898438 884.425781 1384.066406 883.339844 1384.203125 C 882.257812 1384.339844 881.167969 1384.445312 880.078125 1384.519531 C 878.988281 1384.59375 877.898438 1384.632812 876.804688 1384.644531 C 873.855469 1384.660156 870.925781 1384.445312 868.007812 1383.996094 C 865.09375 1383.546875 862.234375 1382.867188 859.429688 1381.964844 C 856.621094 1381.058594 853.90625 1379.9375 851.277344 1378.597656 C 848.648438 1377.261719 846.144531 1375.722656 843.757812 1373.988281 Z M 847.457031 1076.457031 C 845.992188 1076.453125 844.53125 1076.394531 843.074219 1076.277344 C 841.613281 1076.160156 840.164062 1075.984375 838.71875 1075.753906 C 837.273438 1075.523438 835.839844 1075.238281 834.417969 1074.894531 C 832.996094 1074.550781 831.589844 1074.152344 830.199219 1073.695312 C 828.808594 1073.242188 827.4375 1072.734375 826.085938 1072.171875 C 824.734375 1071.609375 823.40625 1070.996094 822.105469 1070.332031 C 820.800781 1069.664062 819.527344 1068.949219 818.28125 1068.183594 C 817.035156 1067.414062 815.820312 1066.601562 814.636719 1065.738281 C 813.457031 1064.878906 812.308594 1063.972656 811.199219 1063.019531 C 810.085938 1062.066406 809.015625 1061.074219 807.980469 1060.039062 C 806.949219 1059 805.957031 1057.925781 805.007812 1056.8125 C 804.058594 1055.699219 803.15625 1054.550781 802.296875 1053.363281 C 801.441406 1052.179688 800.628906 1050.964844 799.867188 1049.714844 C 799.105469 1048.464844 798.390625 1047.1875 797.730469 1045.882812 C 797.066406 1044.578125 796.457031 1043.25 795.898438 1041.898438 C 795.339844 1040.546875 794.835938 1039.175781 794.386719 1037.78125 L 761.210938 935.726562 C 761.023438 935.136719 760.789062 934.566406 760.511719 934.015625 C 760.234375 933.464844 759.914062 932.9375 759.550781 932.4375 C 759.191406 931.9375 758.792969 931.46875 758.355469 931.03125 C 757.921875 930.59375 757.453125 930.191406 756.957031 929.828125 C 756.457031 929.460938 755.933594 929.140625 755.382812 928.859375 C 754.832031 928.578125 754.265625 928.339844 753.675781 928.148438 C 753.089844 927.957031 752.492188 927.8125 751.882812 927.71875 C 751.269531 927.621094 750.65625 927.570312 750.039062 927.570312 C 749.421875 927.570312 748.808594 927.621094 748.199219 927.71875 C 747.589844 927.8125 746.988281 927.957031 746.402344 928.148438 C 745.816406 928.339844 745.246094 928.578125 744.695312 928.859375 C 744.148438 929.140625 743.621094 929.460938 743.125 929.828125 C 742.625 930.191406 742.15625 930.59375 741.722656 931.03125 C 741.285156 931.46875 740.886719 931.9375 740.527344 932.4375 C 740.164062 932.9375 739.84375 933.464844 739.566406 934.015625 C 739.289062 934.566406 739.054688 935.136719 738.867188 935.726562 L 705.695312 1037.78125 C 705.242188 1039.175781 704.738281 1040.546875 704.179688 1041.898438 C 703.625 1043.25 703.011719 1044.578125 702.351562 1045.882812 C 701.6875 1047.1875 700.976562 1048.464844 700.214844 1049.714844 C 699.449219 1050.964844 698.640625 1052.179688 697.78125 1053.363281 C 696.921875 1054.550781 696.019531 1055.699219 695.070312 1056.8125 C 694.121094 1057.925781 693.132812 1059 692.097656 1060.039062 C 691.066406 1061.074219 689.992188 1062.066406 688.882812 1063.019531 C 687.769531 1063.972656 686.625 1064.878906 685.441406 1065.738281 C 684.257812 1066.601562 683.042969 1067.414062 681.796875 1068.183594 C 680.550781 1068.949219 679.277344 1069.664062 677.972656 1070.332031 C 676.671875 1070.996094 675.34375 1071.609375 673.992188 1072.171875 C 672.644531 1072.734375 671.273438 1073.242188 669.882812 1073.695312 C 668.492188 1074.152344 667.085938 1074.550781 665.660156 1074.894531 C 664.238281 1075.238281 662.804688 1075.523438 661.363281 1075.753906 C 659.917969 1075.984375 658.464844 1076.160156 657.007812 1076.277344 C 655.546875 1076.394531 654.085938 1076.453125 652.625 1076.457031 L 545.195312 1076.457031 C 544.582031 1076.457031 543.96875 1076.507812 543.359375 1076.605469 C 542.753906 1076.703125 542.15625 1076.851562 541.570312 1077.042969 C 540.984375 1077.234375 540.417969 1077.46875 539.871094 1077.75 C 539.324219 1078.03125 538.800781 1078.351562 538.300781 1078.714844 C 537.804688 1079.078125 537.339844 1079.476562 536.902344 1079.914062 C 536.46875 1080.351562 536.070312 1080.816406 535.707031 1081.316406 C 535.347656 1081.8125 535.027344 1082.335938 534.746094 1082.886719 C 534.46875 1083.433594 534.230469 1084.003906 534.042969 1084.589844 C 533.851562 1085.171875 533.707031 1085.769531 533.609375 1086.378906 C 533.515625 1086.988281 533.464844 1087.597656 533.464844 1088.214844 C 533.464844 1088.832031 533.511719 1089.441406 533.605469 1090.050781 C 533.703125 1090.660156 533.84375 1091.257812 534.03125 1091.84375 C 534.222656 1092.429688 534.457031 1092.996094 534.734375 1093.546875 C 535.011719 1094.097656 535.332031 1094.621094 535.691406 1095.121094 C 536.050781 1095.621094 536.449219 1096.085938 536.882812 1096.523438 C 537.316406 1096.960938 537.78125 1097.363281 538.277344 1097.726562 L 625.164062 1160.765625 C 626.347656 1161.625 627.492188 1162.53125 628.601562 1163.480469 C 629.710938 1164.433594 630.785156 1165.425781 631.816406 1166.457031 C 632.847656 1167.492188 633.835938 1168.566406 634.785156 1169.679688 C 635.734375 1170.789062 636.636719 1171.9375 637.496094 1173.121094 C 638.351562 1174.304688 639.164062 1175.519531 639.925781 1176.765625 C 640.6875 1178.011719 641.398438 1179.285156 642.0625 1180.589844 C 642.726562 1181.890625 643.335938 1183.21875 643.894531 1184.566406 C 644.453125 1185.917969 644.957031 1187.289062 645.40625 1188.679688 C 645.859375 1190.070312 646.253906 1191.472656 646.59375 1192.894531 C 646.933594 1194.316406 647.21875 1195.75 647.449219 1197.191406 C 647.675781 1198.636719 647.847656 1200.085938 647.960938 1201.542969 C 648.078125 1203 648.132812 1204.457031 648.132812 1205.917969 C 648.132812 1207.378906 648.074219 1208.839844 647.960938 1210.296875 C 647.847656 1211.753906 647.675781 1213.203125 647.445312 1214.644531 C 647.21875 1216.089844 646.933594 1217.523438 646.59375 1218.941406 C 646.253906 1220.363281 645.855469 1221.769531 645.40625 1223.160156 L 612.273438 1325.214844 C 612.082031 1325.800781 611.9375 1326.398438 611.839844 1327.007812 C 611.738281 1327.617188 611.6875 1328.226562 611.6875 1328.84375 C 611.6875 1329.460938 611.730469 1330.074219 611.828125 1330.683594 C 611.921875 1331.292969 612.0625 1331.890625 612.253906 1332.476562 C 612.441406 1333.066406 612.675781 1333.632812 612.953125 1334.183594 C 613.234375 1334.734375 613.554688 1335.257812 613.914062 1335.757812 C 614.277344 1336.257812 614.675781 1336.726562 615.109375 1337.160156 C 615.546875 1337.597656 616.011719 1338 616.511719 1338.363281 C 617.007812 1338.722656 617.53125 1339.046875 618.082031 1339.328125 C 618.628906 1339.605469 619.199219 1339.84375 619.785156 1340.035156 C 620.371094 1340.226562 620.96875 1340.367188 621.578125 1340.464844 C 622.1875 1340.5625 622.800781 1340.609375 623.414062 1340.609375 C 624.03125 1340.609375 624.644531 1340.5625 625.253906 1340.464844 C 625.863281 1340.371094 626.460938 1340.226562 627.046875 1340.035156 C 627.632812 1339.84375 628.203125 1339.609375 628.75 1339.328125 C 629.300781 1339.046875 629.824219 1338.726562 630.324219 1338.363281 L 717.167969 1275.28125 C 718.347656 1274.421875 719.558594 1273.605469 720.804688 1272.839844 C 722.050781 1272.074219 723.324219 1271.359375 724.625 1270.691406 C 725.925781 1270.027344 727.25 1269.414062 728.601562 1268.851562 C 729.949219 1268.289062 731.320312 1267.78125 732.710938 1267.328125 C 734.101562 1266.875 735.503906 1266.476562 736.925781 1266.136719 C 738.347656 1265.792969 739.78125 1265.507812 741.222656 1265.277344 C 742.667969 1265.046875 744.117188 1264.875 745.574219 1264.761719 C 747.03125 1264.644531 748.492188 1264.589844 749.953125 1264.589844 C 751.414062 1264.589844 752.875 1264.644531 754.332031 1264.761719 C 755.789062 1264.875 757.242188 1265.046875 758.683594 1265.277344 C 760.128906 1265.507812 761.558594 1265.792969 762.980469 1266.136719 C 764.402344 1266.476562 765.808594 1266.875 767.199219 1267.328125 C 768.585938 1267.78125 769.957031 1268.289062 771.308594 1268.851562 C 772.65625 1269.414062 773.980469 1270.027344 775.285156 1270.691406 C 776.585938 1271.359375 777.859375 1272.074219 779.101562 1272.839844 C 780.347656 1273.605469 781.558594 1274.421875 782.742188 1275.28125 L 869.585938 1338.363281 C 870.082031 1338.726562 870.609375 1339.046875 871.15625 1339.328125 C 871.707031 1339.609375 872.273438 1339.84375 872.859375 1340.035156 C 873.445312 1340.226562 874.042969 1340.371094 874.652344 1340.464844 C 875.261719 1340.5625 875.875 1340.609375 876.492188 1340.609375 C 877.109375 1340.609375 877.722656 1340.5625 878.328125 1340.464844 C 878.9375 1340.367188 879.535156 1340.226562 880.121094 1340.035156 C 880.710938 1339.84375 881.277344 1339.605469 881.824219 1339.328125 C 882.375 1339.046875 882.898438 1338.722656 883.398438 1338.363281 C 883.894531 1338 884.363281 1337.597656 884.796875 1337.160156 C 885.234375 1336.726562 885.632812 1336.257812 885.992188 1335.757812 C 886.355469 1335.257812 886.675781 1334.734375 886.953125 1334.183594 C 887.230469 1333.632812 887.464844 1333.066406 887.65625 1332.476562 C 887.84375 1331.890625 887.984375 1331.292969 888.082031 1330.683594 C 888.175781 1330.074219 888.222656 1329.460938 888.21875 1328.84375 C 888.21875 1328.226562 888.167969 1327.617188 888.070312 1327.007812 C 887.972656 1326.398438 887.824219 1325.800781 887.632812 1325.214844 L 854.503906 1223.160156 C 854.050781 1221.769531 853.65625 1220.363281 853.316406 1218.941406 C 852.972656 1217.523438 852.6875 1216.089844 852.460938 1214.644531 C 852.234375 1213.203125 852.0625 1211.753906 851.945312 1210.296875 C 851.832031 1208.839844 851.773438 1207.378906 851.773438 1205.917969 C 851.773438 1204.457031 851.832031 1203 851.945312 1201.542969 C 852.058594 1200.085938 852.230469 1198.636719 852.460938 1197.191406 C 852.6875 1195.75 852.972656 1194.316406 853.3125 1192.894531 C 853.652344 1191.472656 854.050781 1190.070312 854.5 1188.679688 C 854.949219 1187.289062 855.457031 1185.917969 856.015625 1184.566406 C 856.574219 1183.21875 857.183594 1181.890625 857.84375 1180.589844 C 858.507812 1179.285156 859.21875 1178.011719 859.984375 1176.765625 C 860.746094 1175.519531 861.554688 1174.304688 862.414062 1173.121094 C 863.269531 1171.9375 864.175781 1170.789062 865.121094 1169.679688 C 866.070312 1168.566406 867.058594 1167.492188 868.09375 1166.457031 C 869.125 1165.425781 870.195312 1164.433594 871.304688 1163.480469 C 872.414062 1162.53125 873.5625 1161.625 874.742188 1160.765625 L 961.585938 1097.726562 C 962.082031 1097.363281 962.546875 1096.960938 962.980469 1096.523438 C 963.417969 1096.085938 963.8125 1095.621094 964.171875 1095.121094 C 964.535156 1094.621094 964.851562 1094.097656 965.132812 1093.546875 C 965.410156 1092.996094 965.644531 1092.429688 965.832031 1091.84375 C 966.019531 1091.257812 966.164062 1090.660156 966.257812 1090.050781 C 966.355469 1089.441406 966.402344 1088.832031 966.398438 1088.214844 C 966.398438 1087.597656 966.351562 1086.988281 966.253906 1086.378906 C 966.15625 1085.769531 966.011719 1085.175781 965.824219 1084.589844 C 965.632812 1084.003906 965.398438 1083.433594 965.117188 1082.886719 C 964.839844 1082.335938 964.519531 1081.8125 964.15625 1081.316406 C 963.792969 1080.816406 963.394531 1080.351562 962.960938 1079.914062 C 962.527344 1079.476562 962.058594 1079.078125 961.5625 1078.714844 C 961.066406 1078.351562 960.542969 1078.03125 959.992188 1077.75 C 959.445312 1077.46875 958.878906 1077.234375 958.292969 1077.042969 C 957.707031 1076.851562 957.113281 1076.703125 956.503906 1076.605469 C 955.894531 1076.507812 955.285156 1076.457031 954.667969 1076.457031 Z M 847.457031 1076.457031 " fill-opacity="1" fill-rule="nonzero"/><path fill="#1676bb" d="M 289.734375 1138.765625 C 288.664062 1138.003906 287.628906 1137.199219 286.625 1136.359375 C 285.621094 1135.515625 284.652344 1134.632812 283.714844 1133.710938 C 282.78125 1132.789062 281.886719 1131.835938 281.027344 1130.84375 C 280.167969 1129.851562 279.351562 1128.828125 278.574219 1127.769531 C 277.800781 1126.710938 277.066406 1125.625 276.375 1124.511719 C 275.6875 1123.394531 275.042969 1122.253906 274.441406 1121.085938 C 273.84375 1119.921875 273.289062 1118.730469 272.785156 1117.519531 C 272.28125 1116.3125 271.824219 1115.082031 271.417969 1113.835938 C 271.011719 1112.589844 270.65625 1111.328125 270.351562 1110.050781 C 270.042969 1108.777344 269.789062 1107.492188 269.585938 1106.195312 C 269.378906 1104.898438 269.230469 1103.597656 269.128906 1102.289062 C 269.027344 1100.980469 268.980469 1099.671875 268.984375 1098.359375 C 268.988281 1097.050781 269.042969 1095.738281 269.152344 1094.433594 C 269.261719 1093.125 269.421875 1091.824219 269.632812 1090.53125 C 269.84375 1089.234375 270.105469 1087.953125 270.421875 1086.679688 C 270.734375 1085.40625 271.101562 1084.144531 271.515625 1082.902344 L 299.058594 998.164062 C 299.261719 997.558594 299.363281 996.933594 299.363281 996.296875 C 299.367188 995.660156 299.269531 995.035156 299.074219 994.429688 C 298.875 993.820312 298.589844 993.261719 298.210938 992.746094 C 297.835938 992.230469 297.386719 991.789062 296.867188 991.417969 L 224.804688 938.777344 C 223.742188 938.007812 222.710938 937.195312 221.714844 936.34375 C 220.714844 935.492188 219.753906 934.601562 218.824219 933.675781 C 217.894531 932.75 217.003906 931.785156 216.152344 930.789062 C 215.300781 929.792969 214.488281 928.761719 213.714844 927.703125 C 212.945312 926.640625 212.214844 925.550781 211.527344 924.433594 C 210.84375 923.3125 210.203125 922.171875 209.605469 921 C 209.007812 919.832031 208.460938 918.644531 207.957031 917.429688 C 207.453125 916.21875 207 914.988281 206.59375 913.742188 C 206.1875 912.492188 205.832031 911.230469 205.527344 909.957031 C 205.21875 908.679688 204.964844 907.394531 204.757812 906.097656 C 204.550781 904.804688 204.398438 903.5 204.292969 902.191406 C 204.191406 900.886719 204.140625 899.574219 204.140625 898.261719 C 204.140625 896.949219 204.191406 895.640625 204.292969 894.332031 C 204.394531 893.023438 204.550781 891.722656 204.753906 890.425781 C 204.960938 889.132812 205.214844 887.84375 205.523438 886.570312 C 205.828125 885.292969 206.183594 884.03125 206.589844 882.785156 C 206.996094 881.535156 207.449219 880.304688 207.953125 879.09375 C 208.453125 877.882812 209.003906 876.691406 209.597656 875.523438 C 210.195312 874.351562 210.835938 873.210938 211.519531 872.089844 C 212.207031 870.972656 212.933594 869.882812 213.707031 868.820312 C 214.476562 867.757812 215.289062 866.730469 216.140625 865.734375 C 216.996094 864.734375 217.886719 863.773438 218.8125 862.84375 C 219.742188 861.917969 220.703125 861.027344 221.703125 860.175781 C 222.699219 859.324219 223.730469 858.511719 224.792969 857.742188 C 225.855469 856.972656 226.945312 856.242188 228.0625 855.558594 C 229.183594 854.875 230.328125 854.234375 231.496094 853.636719 C 232.664062 853.042969 233.855469 852.496094 235.066406 851.992188 C 236.28125 851.492188 237.511719 851.039062 238.757812 850.632812 C 240.007812 850.230469 241.269531 849.875 242.546875 849.570312 C 243.820312 849.265625 245.105469 849.007812 246.402344 848.804688 C 247.699219 848.601562 249 848.445312 250.308594 848.34375 C 251.617188 848.242188 252.925781 848.191406 254.238281 848.195312 L 343.320312 848.195312 C 343.964844 848.191406 344.589844 848.089844 345.203125 847.882812 C 345.8125 847.679688 346.375 847.382812 346.890625 846.996094 C 347.40625 846.609375 347.847656 846.148438 348.210938 845.617188 C 348.578125 845.089844 348.851562 844.515625 349.035156 843.898438 L 376.578125 759.15625 C 376.984375 757.910156 377.441406 756.683594 377.941406 755.472656 C 378.445312 754.261719 378.996094 753.070312 379.59375 751.902344 C 380.1875 750.738281 380.832031 749.59375 381.515625 748.476562 C 382.203125 747.359375 382.929688 746.269531 383.703125 745.210938 C 384.476562 744.152344 385.285156 743.121094 386.140625 742.125 C 386.992188 741.128906 387.882812 740.167969 388.808594 739.242188 C 389.738281 738.316406 390.699219 737.425781 391.699219 736.578125 C 392.695312 735.726562 393.722656 734.914062 394.785156 734.144531 C 395.847656 733.375 396.9375 732.648438 398.054688 731.964844 C 399.171875 731.277344 400.316406 730.640625 401.484375 730.042969 C 402.652344 729.449219 403.84375 728.902344 405.054688 728.398438 C 406.265625 727.898438 407.496094 727.445312 408.742188 727.042969 C 409.988281 726.636719 411.25 726.28125 412.527344 725.976562 C 413.800781 725.667969 415.085938 725.414062 416.382812 725.210938 C 417.675781 725.003906 418.976562 724.851562 420.285156 724.746094 C 421.589844 724.644531 422.902344 724.59375 424.210938 724.59375 C 425.523438 724.59375 426.832031 724.644531 428.140625 724.746094 C 429.445312 724.851562 430.746094 725.003906 432.042969 725.210938 C 433.335938 725.414062 434.621094 725.667969 435.898438 725.976562 C 437.171875 726.28125 438.433594 726.636719 439.679688 727.042969 C 440.925781 727.445312 442.15625 727.898438 443.367188 728.398438 C 444.578125 728.902344 445.769531 729.449219 446.9375 730.042969 C 448.105469 730.640625 449.25 731.277344 450.367188 731.964844 C 451.488281 732.648438 452.578125 733.375 453.636719 734.144531 C 454.699219 734.914062 455.730469 735.726562 456.726562 736.578125 C 457.722656 737.425781 458.6875 738.316406 459.613281 739.242188 C 460.542969 740.167969 461.433594 741.128906 462.285156 742.125 C 463.136719 743.121094 463.949219 744.152344 464.71875 745.210938 C 465.492188 746.269531 466.222656 747.359375 466.90625 748.476562 C 467.59375 749.59375 468.234375 750.738281 468.832031 751.902344 C 469.425781 753.070312 469.976562 754.261719 470.480469 755.472656 C 470.984375 756.683594 471.4375 757.910156 471.84375 759.15625 L 499.390625 843.898438 C 499.570312 844.515625 499.84375 845.089844 500.210938 845.617188 C 500.578125 846.148438 501.019531 846.609375 501.53125 846.996094 C 502.046875 847.382812 502.609375 847.679688 503.222656 847.882812 C 503.832031 848.089844 504.460938 848.191406 505.105469 848.195312 L 594.183594 848.195312 C 595.496094 848.191406 596.804688 848.242188 598.113281 848.34375 C 599.421875 848.445312 600.722656 848.601562 602.019531 848.804688 C 603.316406 849.007812 604.601562 849.265625 605.878906 849.570312 C 607.15625 849.875 608.417969 850.230469 609.664062 850.632812 C 610.914062 851.039062 612.144531 851.492188 613.355469 851.992188 C 614.566406 852.496094 615.757812 853.042969 616.929688 853.636719 C 618.097656 854.234375 619.242188 854.875 620.359375 855.558594 C 621.480469 856.242188 622.570312 856.972656 623.632812 857.742188 C 624.695312 858.511719 625.722656 859.324219 626.722656 860.175781 C 627.71875 861.027344 628.683594 861.917969 629.609375 862.84375 C 630.539062 863.773438 631.429688 864.734375 632.28125 865.734375 C 633.132812 866.730469 633.945312 867.757812 634.71875 868.820312 C 635.488281 869.882812 636.21875 870.972656 636.902344 872.089844 C 637.589844 873.210938 638.230469 874.351562 638.824219 875.523438 C 639.421875 876.691406 639.96875 877.882812 640.472656 879.09375 C 640.972656 880.304688 641.429688 881.535156 641.832031 882.785156 C 642.238281 884.03125 642.59375 885.292969 642.902344 886.570312 C 643.207031 887.84375 643.464844 889.132812 643.667969 890.425781 C 643.875 891.722656 644.027344 893.023438 644.128906 894.332031 C 644.234375 895.640625 644.285156 896.949219 644.285156 898.261719 C 644.285156 899.574219 644.230469 900.886719 644.128906 902.191406 C 644.027344 903.5 643.871094 904.804688 643.664062 906.097656 C 643.460938 907.394531 643.203125 908.679688 642.898438 909.957031 C 642.589844 911.230469 642.234375 912.492188 641.828125 913.742188 C 641.421875 914.988281 640.96875 916.21875 640.464844 917.429688 C 639.964844 918.644531 639.414062 919.832031 638.816406 921 C 638.222656 922.171875 637.582031 923.3125 636.894531 924.433594 C 636.207031 925.550781 635.480469 926.640625 634.707031 927.703125 C 633.9375 928.761719 633.125 929.792969 632.269531 930.789062 C 631.417969 931.785156 630.527344 932.75 629.597656 933.675781 C 628.671875 934.601562 627.707031 935.492188 626.710938 936.34375 C 625.710938 937.195312 624.679688 938.007812 623.617188 938.777344 L 551.554688 991.117188 C 551.039062 991.488281 550.589844 991.929688 550.210938 992.445312 C 549.835938 992.960938 549.546875 993.519531 549.351562 994.128906 C 549.152344 994.734375 549.054688 995.359375 549.058594 995.996094 C 549.0625 996.632812 549.164062 997.257812 549.363281 997.863281 L 565.523438 1047.707031 C 565.789062 1048.523438 566.007812 1049.347656 566.175781 1050.1875 C 566.347656 1051.027344 566.46875 1051.875 566.539062 1052.730469 C 566.609375 1053.582031 566.628906 1054.4375 566.601562 1055.292969 C 566.570312 1056.148438 566.492188 1057 566.363281 1057.847656 C 566.234375 1058.695312 566.054688 1059.53125 565.828125 1060.359375 C 565.601562 1061.183594 565.328125 1061.992188 565.007812 1062.789062 C 564.683594 1063.582031 564.316406 1064.355469 563.90625 1065.105469 C 563.492188 1065.855469 563.039062 1066.582031 562.542969 1067.277344 C 562.046875 1067.976562 561.511719 1068.644531 560.933594 1069.277344 C 560.359375 1069.914062 559.75 1070.511719 559.105469 1071.078125 C 558.460938 1071.640625 557.785156 1072.164062 557.078125 1072.648438 C 556.371094 1073.132812 555.640625 1073.574219 554.882812 1073.976562 C 554.125 1074.375 553.34375 1074.726562 552.546875 1075.035156 C 551.746094 1075.34375 550.929688 1075.601562 550.101562 1075.816406 C 549.273438 1076.027344 548.433594 1076.191406 547.582031 1076.304688 C 546.734375 1076.421875 545.882812 1076.484375 545.023438 1076.5 C 544.417969 1076.515625 543.816406 1076.578125 543.21875 1076.6875 C 542.621094 1076.800781 542.035156 1076.957031 541.460938 1077.15625 C 540.886719 1077.359375 540.332031 1077.601562 539.796875 1077.890625 C 539.261719 1078.175781 538.753906 1078.503906 538.269531 1078.871094 C 537.785156 1079.238281 537.332031 1079.640625 536.910156 1080.078125 C 536.488281 1080.511719 536.101562 1080.980469 535.75 1081.476562 C 535.402344 1081.972656 535.09375 1082.496094 534.824219 1083.039062 C 534.554688 1083.585938 534.332031 1084.148438 534.148438 1084.726562 C 533.96875 1085.308594 533.832031 1085.898438 533.742188 1086.5 C 533.65625 1087.101562 533.613281 1087.703125 533.617188 1088.3125 C 533.621094 1088.917969 533.671875 1089.523438 533.769531 1090.121094 C 533.867188 1090.722656 534.011719 1091.3125 534.203125 1091.886719 C 534.390625 1092.464844 534.625 1093.023438 534.902344 1093.566406 C 535.179688 1094.105469 535.496094 1094.621094 535.851562 1095.113281 C 536.207031 1095.605469 536.601562 1096.066406 537.03125 1096.5 C 537.457031 1096.929688 537.917969 1097.324219 538.40625 1097.683594 L 551.296875 1106.921875 C 552.113281 1107.507812 552.886719 1108.148438 553.613281 1108.84375 C 554.339844 1109.535156 555.015625 1110.273438 555.644531 1111.0625 C 556.269531 1111.847656 556.839844 1112.671875 557.351562 1113.535156 C 557.867188 1114.398438 558.316406 1115.292969 558.707031 1116.21875 C 559.097656 1117.144531 559.425781 1118.09375 559.683594 1119.0625 C 559.945312 1120.03125 560.140625 1121.015625 560.265625 1122.011719 C 560.390625 1123.011719 560.449219 1124.011719 560.4375 1125.015625 C 560.425781 1126.019531 560.347656 1127.019531 560.199219 1128.011719 C 560.050781 1129.007812 559.835938 1129.984375 559.554688 1130.949219 C 559.273438 1131.914062 558.925781 1132.855469 558.515625 1133.773438 C 558.105469 1134.6875 557.632812 1135.574219 557.101562 1136.425781 C 556.566406 1137.277344 555.980469 1138.089844 555.335938 1138.859375 C 554.695312 1139.632812 554 1140.355469 553.257812 1141.035156 C 552.515625 1141.710938 551.730469 1142.332031 550.902344 1142.902344 C 550.074219 1143.472656 549.210938 1143.980469 548.3125 1144.433594 C 547.414062 1144.882812 546.492188 1145.273438 545.539062 1145.597656 C 543.648438 1146.265625 541.722656 1146.816406 539.761719 1147.253906 C 537.800781 1147.6875 535.824219 1148 533.824219 1148.191406 C 531.828125 1148.386719 529.824219 1148.453125 527.816406 1148.402344 C 525.808594 1148.351562 523.8125 1148.175781 521.828125 1147.878906 C 519.84375 1147.582031 517.882812 1147.164062 515.949219 1146.628906 C 514.015625 1146.09375 512.121094 1145.441406 510.265625 1144.671875 C 508.410156 1143.902344 506.609375 1143.027344 504.859375 1142.039062 C 503.113281 1141.050781 501.433594 1139.957031 499.820312 1138.765625 L 427.757812 1086.210938 C 427.242188 1085.835938 426.683594 1085.546875 426.074219 1085.351562 C 425.46875 1085.152344 424.847656 1085.054688 424.210938 1085.054688 C 423.574219 1085.054688 422.953125 1085.152344 422.347656 1085.351562 C 421.742188 1085.546875 421.179688 1085.835938 420.667969 1086.210938 L 348.5625 1138.765625 C 347.507812 1139.550781 346.421875 1140.289062 345.308594 1140.988281 C 344.195312 1141.6875 343.058594 1142.339844 341.890625 1142.945312 C 340.726562 1143.554688 339.539062 1144.113281 338.328125 1144.625 C 337.117188 1145.136719 335.886719 1145.597656 334.640625 1146.011719 C 333.394531 1146.425781 332.132812 1146.789062 330.855469 1147.101562 C 329.578125 1147.414062 328.292969 1147.675781 326.996094 1147.882812 C 325.699219 1148.09375 324.394531 1148.25 323.082031 1148.355469 C 321.773438 1148.460938 320.460938 1148.511719 319.148438 1148.511719 C 317.832031 1148.511719 316.519531 1148.460938 315.210938 1148.355469 C 313.902344 1148.25 312.597656 1148.09375 311.300781 1147.882812 C 310.003906 1147.675781 308.714844 1147.414062 307.441406 1147.101562 C 306.164062 1146.789062 304.902344 1146.425781 303.652344 1146.011719 C 302.40625 1145.597656 301.175781 1145.136719 299.96875 1144.625 C 298.757812 1144.113281 297.570312 1143.554688 296.402344 1142.945312 C 295.238281 1142.339844 294.097656 1141.6875 292.984375 1140.988281 C 291.871094 1140.289062 290.789062 1139.550781 289.734375 1138.765625 Z M 453.625 1050.757812 L 490.582031 1077.574219 C 490.980469 1075.597656 491.480469 1073.652344 492.085938 1071.730469 C 493.0625 1068.429688 494.335938 1065.246094 495.90625 1062.183594 C 497.476562 1059.121094 499.316406 1056.230469 501.425781 1053.511719 C 503.535156 1050.789062 505.878906 1048.289062 508.457031 1046.007812 C 511.03125 1043.722656 513.796875 1041.699219 516.75 1039.929688 L 507.46875 1011.3125 C 507.0625 1010.066406 506.707031 1008.808594 506.398438 1007.535156 C 506.09375 1006.261719 505.835938 1004.980469 505.632812 1003.6875 C 505.425781 1002.394531 505.273438 1001.09375 505.167969 999.789062 C 505.066406 998.484375 505.015625 997.175781 505.015625 995.867188 C 505.015625 994.558594 505.066406 993.25 505.167969 991.945312 C 505.269531 990.640625 505.425781 989.339844 505.628906 988.046875 C 505.835938 986.753906 506.089844 985.472656 506.394531 984.199219 C 506.703125 982.925781 507.058594 981.667969 507.460938 980.421875 C 507.867188 979.175781 508.320312 977.949219 508.824219 976.738281 C 509.324219 975.53125 509.871094 974.34375 510.46875 973.175781 C 511.0625 972.011719 511.703125 970.871094 512.390625 969.753906 C 513.074219 968.636719 513.800781 967.550781 514.574219 966.492188 C 515.34375 965.433594 516.152344 964.40625 517.003906 963.414062 C 517.855469 962.417969 518.746094 961.460938 519.671875 960.535156 C 520.601562 959.609375 521.5625 958.722656 522.558594 957.875 C 523.554688 957.027344 524.585938 956.21875 525.644531 955.449219 L 597.75 903.066406 C 598.261719 902.691406 598.703125 902.246094 599.078125 901.734375 C 599.449219 901.21875 599.730469 900.65625 599.925781 900.054688 C 600.121094 899.449219 600.214844 898.828125 600.214844 898.195312 C 600.210938 897.558594 600.113281 896.941406 599.914062 896.335938 C 599.71875 895.734375 599.429688 895.175781 599.054688 894.664062 C 598.679688 894.148438 598.238281 893.707031 597.722656 893.335938 C 597.207031 892.964844 596.648438 892.679688 596.042969 892.484375 C 595.4375 892.289062 594.820312 892.195312 594.183594 892.195312 L 505.105469 892.195312 C 503.796875 892.199219 502.488281 892.152344 501.183594 892.054688 C 499.878906 891.957031 498.582031 891.808594 497.289062 891.605469 C 495.996094 891.40625 494.710938 891.15625 493.4375 890.851562 C 492.164062 890.550781 490.90625 890.199219 489.660156 889.800781 C 488.414062 889.398438 487.183594 888.949219 485.976562 888.453125 C 484.765625 887.957031 483.574219 887.414062 482.40625 886.824219 C 481.238281 886.230469 480.097656 885.597656 478.980469 884.917969 C 477.859375 884.234375 476.773438 883.511719 475.710938 882.746094 C 474.648438 881.980469 473.621094 881.175781 472.625 880.328125 C 471.625 879.480469 470.664062 878.59375 469.734375 877.671875 C 468.808594 876.75 467.917969 875.792969 467.0625 874.800781 C 466.210938 873.808594 465.398438 872.78125 464.625 871.726562 C 463.855469 870.671875 463.125 869.585938 462.4375 868.472656 C 461.75 867.355469 461.109375 866.21875 460.511719 865.054688 C 459.914062 863.890625 459.363281 862.703125 458.859375 861.496094 C 458.355469 860.289062 457.902344 859.0625 457.492188 857.820312 L 429.949219 773.082031 C 429.753906 772.46875 429.472656 771.90625 429.101562 771.386719 C 428.726562 770.867188 428.285156 770.417969 427.769531 770.039062 C 427.253906 769.660156 426.691406 769.375 426.082031 769.175781 C 425.476562 768.976562 424.851562 768.875 424.210938 768.875 C 423.574219 768.875 422.949219 768.976562 422.339844 769.175781 C 421.734375 769.375 421.171875 769.660156 420.65625 770.039062 C 420.140625 770.417969 419.695312 770.867188 419.324219 771.386719 C 418.949219 771.90625 418.667969 772.46875 418.476562 773.082031 L 390.929688 857.820312 C 390.523438 859.0625 390.066406 860.289062 389.5625 861.496094 C 389.058594 862.703125 388.507812 863.890625 387.910156 865.054688 C 387.3125 866.21875 386.671875 867.355469 385.984375 868.472656 C 385.296875 869.585938 384.570312 870.671875 383.796875 871.726562 C 383.023438 872.78125 382.210938 873.808594 381.359375 874.800781 C 380.507812 875.792969 379.617188 876.75 378.6875 877.671875 C 377.761719 878.59375 376.796875 879.480469 375.800781 880.328125 C 374.804688 881.175781 373.773438 881.980469 372.710938 882.746094 C 371.652344 883.511719 370.5625 884.234375 369.445312 884.917969 C 368.328125 885.597656 367.183594 886.230469 366.015625 886.824219 C 364.847656 887.414062 363.660156 887.957031 362.449219 888.453125 C 361.238281 888.953125 360.011719 889.398438 358.765625 889.800781 C 357.519531 890.199219 356.257812 890.550781 354.984375 890.851562 C 353.710938 891.15625 352.429688 891.40625 351.136719 891.605469 C 349.84375 891.808594 348.542969 891.957031 347.238281 892.054688 C 345.933594 892.152344 344.628906 892.199219 343.320312 892.195312 L 254.238281 892.195312 C 253.605469 892.195312 252.984375 892.289062 252.378906 892.484375 C 251.777344 892.679688 251.214844 892.964844 250.703125 893.335938 C 250.1875 893.707031 249.742188 894.148438 249.367188 894.664062 C 248.992188 895.175781 248.707031 895.734375 248.507812 896.335938 C 248.308594 896.941406 248.210938 897.558594 248.207031 898.195312 C 248.207031 898.828125 248.304688 899.449219 248.496094 900.054688 C 248.691406 900.660156 248.976562 901.21875 249.347656 901.734375 C 249.71875 902.246094 250.160156 902.691406 250.671875 903.066406 L 322.777344 955.449219 C 323.839844 956.21875 324.867188 957.027344 325.863281 957.875 C 326.863281 958.722656 327.824219 959.609375 328.75 960.535156 C 329.675781 961.460938 330.566406 962.417969 331.417969 963.414062 C 332.269531 964.40625 333.082031 965.433594 333.851562 966.492188 C 334.621094 967.550781 335.351562 968.636719 336.035156 969.753906 C 336.71875 970.871094 337.359375 972.011719 337.957031 973.175781 C 338.550781 974.34375 339.097656 975.53125 339.601562 976.738281 C 340.101562 977.949219 340.554688 979.175781 340.960938 980.421875 C 341.367188 981.667969 341.722656 982.925781 342.027344 984.199219 C 342.332031 985.472656 342.589844 986.753906 342.792969 988.046875 C 343 989.339844 343.152344 990.640625 343.253906 991.945312 C 343.359375 993.25 343.410156 994.558594 343.410156 995.867188 C 343.410156 997.175781 343.355469 998.484375 343.253906 999.789062 C 343.152344 1001.09375 342.996094 1002.394531 342.792969 1003.6875 C 342.585938 1004.980469 342.328125 1006.261719 342.023438 1007.535156 C 341.71875 1008.808594 341.359375 1010.066406 340.957031 1011.3125 L 313.410156 1096.222656 C 313.207031 1096.828125 313.105469 1097.453125 313.101562 1098.089844 C 313.097656 1098.730469 313.191406 1099.355469 313.386719 1099.964844 C 313.582031 1100.574219 313.867188 1101.136719 314.242188 1101.65625 C 314.613281 1102.175781 315.0625 1102.621094 315.578125 1103 C 316.097656 1103.375 316.660156 1103.660156 317.269531 1103.855469 C 317.875 1104.054688 318.5 1104.148438 319.140625 1104.148438 C 319.78125 1104.144531 320.402344 1104.042969 321.011719 1103.839844 C 321.617188 1103.640625 322.179688 1103.347656 322.691406 1102.96875 L 394.796875 1050.585938 C 395.859375 1049.816406 396.945312 1049.085938 398.0625 1048.398438 C 399.179688 1047.710938 400.324219 1047.070312 401.488281 1046.472656 C 402.65625 1045.878906 403.847656 1045.328125 405.058594 1044.824219 C 406.269531 1044.320312 407.496094 1043.867188 408.742188 1043.460938 C 409.992188 1043.054688 411.25 1042.699219 412.527344 1042.390625 C 413.800781 1042.085938 415.085938 1041.828125 416.382812 1041.621094 C 417.675781 1041.417969 418.976562 1041.261719 420.285156 1041.160156 C 421.589844 1041.054688 422.902344 1041.003906 424.210938 1041.003906 C 425.523438 1041.003906 426.832031 1041.054688 428.140625 1041.160156 C 429.445312 1041.261719 430.746094 1041.417969 432.042969 1041.621094 C 433.335938 1041.828125 434.621094 1042.085938 435.898438 1042.390625 C 437.171875 1042.699219 438.433594 1043.054688 439.679688 1043.460938 C 440.925781 1043.867188 442.15625 1044.320312 443.367188 1044.824219 C 444.578125 1045.328125 445.765625 1045.875 446.933594 1046.472656 C 448.101562 1047.070312 449.242188 1047.710938 450.359375 1048.398438 C 451.476562 1049.085938 452.566406 1049.816406 453.625 1050.585938 Z M 453.625 1050.757812 " fill-opacity="1" fill-rule="nonzero"/><path fill="#1676bb" d="M 1151.519531 1138.765625 L 1079.414062 1086.382812 C 1078.898438 1086.007812 1078.335938 1085.71875 1077.730469 1085.523438 C 1077.125 1085.324219 1076.503906 1085.226562 1075.867188 1085.226562 C 1075.230469 1085.226562 1074.609375 1085.324219 1074.003906 1085.523438 C 1073.398438 1085.71875 1072.835938 1086.007812 1072.324219 1086.382812 L 1000.261719 1138.765625 C 998.65625 1139.953125 996.984375 1141.042969 995.246094 1142.03125 C 993.507812 1143.015625 991.71875 1143.894531 989.871094 1144.664062 C 988.027344 1145.433594 986.144531 1146.085938 984.21875 1146.625 C 982.296875 1147.167969 980.347656 1147.585938 978.371094 1147.890625 C 976.394531 1148.191406 974.410156 1148.371094 972.410156 1148.433594 C 970.414062 1148.492188 968.421875 1148.433594 966.429688 1148.25 C 964.441406 1148.066406 962.46875 1147.765625 960.515625 1147.34375 C 958.5625 1146.921875 956.640625 1146.382812 954.753906 1145.726562 C 953.804688 1145.402344 952.878906 1145.011719 951.980469 1144.5625 C 951.082031 1144.109375 950.21875 1143.601562 949.390625 1143.03125 C 948.5625 1142.460938 947.777344 1141.839844 947.035156 1141.164062 C 946.292969 1140.484375 945.601562 1139.761719 944.957031 1138.992188 C 944.3125 1138.21875 943.726562 1137.40625 943.195312 1136.554688 C 942.664062 1135.703125 942.191406 1134.816406 941.78125 1133.902344 C 941.367188 1132.984375 941.023438 1132.042969 940.738281 1131.078125 C 940.457031 1130.113281 940.242188 1129.136719 940.09375 1128.140625 C 939.945312 1127.148438 939.867188 1126.148438 939.855469 1125.144531 C 939.84375 1124.140625 939.902344 1123.140625 940.027344 1122.140625 C 940.15625 1121.144531 940.347656 1120.160156 940.609375 1119.191406 C 940.871094 1118.222656 941.195312 1117.273438 941.585938 1116.347656 C 941.976562 1115.421875 942.429688 1114.527344 942.941406 1113.664062 C 943.457031 1112.800781 944.023438 1111.976562 944.652344 1111.191406 C 945.277344 1110.402344 945.953125 1109.664062 946.679688 1108.972656 C 947.410156 1108.277344 948.179688 1107.636719 948.996094 1107.050781 L 961.671875 1097.855469 C 962.167969 1097.496094 962.628906 1097.101562 963.0625 1096.671875 C 963.496094 1096.242188 963.890625 1095.78125 964.253906 1095.289062 C 964.613281 1094.796875 964.933594 1094.277344 965.214844 1093.738281 C 965.492188 1093.195312 965.730469 1092.632812 965.921875 1092.054688 C 966.113281 1091.476562 966.261719 1090.886719 966.359375 1090.28125 C 966.460938 1089.679688 966.515625 1089.074219 966.519531 1088.464844 C 966.527344 1087.855469 966.484375 1087.246094 966.394531 1086.644531 C 966.304688 1086.039062 966.171875 1085.445312 965.988281 1084.863281 C 965.808594 1084.28125 965.582031 1083.71875 965.3125 1083.167969 C 965.042969 1082.621094 964.730469 1082.097656 964.378906 1081.601562 C 964.027344 1081.101562 963.640625 1080.632812 963.214844 1080.195312 C 962.792969 1079.753906 962.335938 1079.351562 961.847656 1078.984375 C 961.359375 1078.617188 960.847656 1078.292969 960.308594 1078.003906 C 959.769531 1077.71875 959.210938 1077.472656 958.636719 1077.273438 C 958.058594 1077.074219 957.472656 1076.917969 956.871094 1076.8125 C 956.269531 1076.703125 955.664062 1076.640625 955.054688 1076.628906 C 954.199219 1076.613281 953.34375 1076.550781 952.496094 1076.433594 C 951.648438 1076.320312 950.808594 1076.15625 949.976562 1075.945312 C 949.148438 1075.730469 948.332031 1075.472656 947.535156 1075.164062 C 946.734375 1074.855469 945.957031 1074.503906 945.199219 1074.105469 C 944.441406 1073.703125 943.707031 1073.261719 943 1072.777344 C 942.292969 1072.292969 941.617188 1071.769531 940.972656 1071.207031 C 940.328125 1070.640625 939.71875 1070.042969 939.144531 1069.40625 C 938.570312 1068.773438 938.035156 1068.105469 937.535156 1067.40625 C 937.039062 1066.710938 936.585938 1065.984375 936.171875 1065.234375 C 935.761719 1064.484375 935.394531 1063.710938 935.074219 1062.917969 C 934.75 1062.121094 934.476562 1061.3125 934.25 1060.488281 C 934.023438 1059.660156 933.84375 1058.824219 933.714844 1057.976562 C 933.585938 1057.128906 933.507812 1056.277344 933.480469 1055.421875 C 933.449219 1054.566406 933.472656 1053.710938 933.542969 1052.859375 C 933.613281 1052.003906 933.734375 1051.15625 933.902344 1050.316406 C 934.074219 1049.476562 934.289062 1048.652344 934.558594 1047.835938 L 950.714844 997.992188 C 950.917969 997.386719 951.023438 996.769531 951.023438 996.132812 C 951.027344 995.5 950.929688 994.878906 950.734375 994.273438 C 950.535156 993.671875 950.25 993.113281 949.871094 992.601562 C 949.492188 992.089844 949.042969 991.652344 948.523438 991.289062 L 876.460938 938.90625 C 875.398438 938.136719 874.367188 937.324219 873.371094 936.472656 C 872.371094 935.621094 871.410156 934.730469 870.480469 933.804688 C 869.550781 932.878906 868.660156 931.914062 867.808594 930.917969 C 866.957031 929.921875 866.144531 928.890625 865.371094 927.832031 C 864.601562 926.769531 863.871094 925.679688 863.183594 924.5625 C 862.5 923.441406 861.859375 922.300781 861.261719 921.128906 C 860.664062 919.960938 860.117188 918.773438 859.613281 917.558594 C 859.109375 916.347656 858.65625 915.117188 858.25 913.871094 C 857.84375 912.621094 857.488281 911.359375 857.183594 910.085938 C 856.875 908.808594 856.617188 907.523438 856.414062 906.226562 C 856.207031 904.933594 856.054688 903.628906 855.949219 902.320312 C 855.847656 901.015625 855.796875 899.703125 855.796875 898.390625 C 855.796875 897.078125 855.847656 895.769531 855.949219 894.460938 C 856.050781 893.152344 856.207031 891.851562 856.410156 890.554688 C 856.617188 889.257812 856.871094 887.972656 857.179688 886.699219 C 857.484375 885.421875 857.839844 884.160156 858.246094 882.914062 C 858.652344 881.664062 859.105469 880.433594 859.605469 879.222656 C 860.109375 878.011719 860.660156 876.820312 861.253906 875.652344 C 861.851562 874.480469 862.492188 873.339844 863.175781 872.21875 C 863.863281 871.101562 864.589844 870.011719 865.363281 868.949219 C 866.132812 867.886719 866.945312 866.859375 867.796875 865.859375 C 868.652344 864.863281 869.539062 863.902344 870.46875 862.972656 C 871.398438 862.046875 872.359375 861.15625 873.359375 860.304688 C 874.355469 859.453125 875.386719 858.640625 876.449219 857.871094 C 877.507812 857.101562 878.601562 856.371094 879.71875 855.6875 C 880.835938 855.003906 881.980469 854.363281 883.152344 853.765625 C 884.320312 853.171875 885.511719 852.625 886.722656 852.121094 C 887.9375 851.621094 889.167969 851.167969 890.414062 850.761719 C 891.664062 850.359375 892.925781 850.003906 894.203125 849.699219 C 895.476562 849.390625 896.761719 849.136719 898.058594 848.933594 C 899.355469 848.730469 900.65625 848.574219 901.964844 848.472656 C 903.273438 848.371094 904.582031 848.320312 905.894531 848.324219 L 994.976562 848.324219 C 995.621094 848.316406 996.25 848.214844 996.863281 848.007812 C 997.476562 847.800781 998.042969 847.507812 998.558594 847.121094 C 999.078125 846.734375 999.523438 846.273438 999.894531 845.746094 C 1000.265625 845.21875 1000.542969 844.644531 1000.734375 844.023438 L 1028.234375 759.285156 C 1028.640625 758.039062 1029.097656 756.8125 1029.597656 755.601562 C 1030.101562 754.390625 1030.652344 753.199219 1031.25 752.03125 C 1031.84375 750.867188 1032.484375 749.722656 1033.171875 748.605469 C 1033.859375 747.488281 1034.585938 746.398438 1035.359375 745.339844 C 1036.128906 744.28125 1036.941406 743.25 1037.796875 742.253906 C 1038.648438 741.257812 1039.539062 740.296875 1040.464844 739.371094 C 1041.394531 738.445312 1042.355469 737.554688 1043.351562 736.707031 C 1044.351562 735.855469 1045.378906 735.042969 1046.441406 734.273438 C 1047.503906 733.503906 1048.59375 732.777344 1049.710938 732.09375 C 1050.828125 731.40625 1051.972656 730.769531 1053.140625 730.171875 C 1054.308594 729.578125 1055.5 729.03125 1056.710938 728.527344 C 1057.921875 728.027344 1059.152344 727.574219 1060.398438 727.171875 C 1061.644531 726.765625 1062.90625 726.410156 1064.183594 726.105469 C 1065.457031 725.796875 1066.742188 725.542969 1068.039062 725.339844 C 1069.332031 725.132812 1070.632812 724.980469 1071.941406 724.875 C 1073.246094 724.773438 1074.554688 724.722656 1075.867188 724.722656 C 1077.179688 724.722656 1078.488281 724.773438 1079.796875 724.875 C 1081.101562 724.980469 1082.402344 725.132812 1083.699219 725.339844 C 1084.992188 725.542969 1086.277344 725.796875 1087.554688 726.105469 C 1088.828125 726.410156 1090.089844 726.765625 1091.335938 727.171875 C 1092.582031 727.574219 1093.8125 728.027344 1095.023438 728.527344 C 1096.234375 729.03125 1097.425781 729.578125 1098.59375 730.171875 C 1099.761719 730.769531 1100.90625 731.40625 1102.023438 732.09375 C 1103.144531 732.777344 1104.234375 733.503906 1105.292969 734.273438 C 1106.355469 735.042969 1107.382812 735.855469 1108.382812 736.707031 C 1109.378906 737.554688 1110.34375 738.445312 1111.269531 739.371094 C 1112.199219 740.296875 1113.089844 741.257812 1113.941406 742.253906 C 1114.792969 743.25 1115.605469 744.28125 1116.375 745.339844 C 1117.148438 746.398438 1117.875 747.488281 1118.5625 748.605469 C 1119.25 749.722656 1119.890625 750.867188 1120.488281 752.03125 C 1121.082031 753.199219 1121.632812 754.390625 1122.136719 755.601562 C 1122.640625 756.8125 1123.09375 758.039062 1123.5 759.285156 L 1151.046875 844.023438 C 1151.226562 844.644531 1151.5 845.21875 1151.867188 845.746094 C 1152.234375 846.277344 1152.675781 846.734375 1153.1875 847.125 C 1153.703125 847.511719 1154.265625 847.808594 1154.878906 848.011719 C 1155.488281 848.21875 1156.117188 848.320312 1156.761719 848.324219 L 1245.839844 848.324219 C 1247.152344 848.320312 1248.460938 848.371094 1249.769531 848.472656 C 1251.078125 848.574219 1252.378906 848.730469 1253.675781 848.933594 C 1254.972656 849.136719 1256.257812 849.394531 1257.535156 849.699219 C 1258.808594 850.003906 1260.070312 850.359375 1261.320312 850.761719 C 1262.570312 851.167969 1263.796875 851.621094 1265.011719 852.121094 C 1266.222656 852.625 1267.414062 853.171875 1268.585938 853.765625 C 1269.753906 854.363281 1270.898438 855.003906 1272.015625 855.6875 C 1273.136719 856.371094 1274.226562 857.101562 1275.289062 857.871094 C 1276.347656 858.640625 1277.378906 859.453125 1278.378906 860.304688 C 1279.375 861.15625 1280.339844 862.046875 1281.265625 862.972656 C 1282.195312 863.902344 1283.085938 864.863281 1283.9375 865.863281 C 1284.789062 866.859375 1285.601562 867.886719 1286.371094 868.949219 C 1287.144531 870.011719 1287.871094 871.101562 1288.558594 872.21875 C 1289.246094 873.339844 1289.886719 874.480469 1290.480469 875.652344 C 1291.078125 876.820312 1291.625 878.011719 1292.128906 879.222656 C 1292.628906 880.433594 1293.085938 881.664062 1293.488281 882.914062 C 1293.894531 884.160156 1294.25 885.421875 1294.558594 886.699219 C 1294.863281 887.972656 1295.121094 889.257812 1295.324219 890.554688 C 1295.53125 891.851562 1295.683594 893.152344 1295.785156 894.460938 C 1295.890625 895.769531 1295.941406 897.078125 1295.941406 898.390625 C 1295.941406 899.703125 1295.886719 901.011719 1295.785156 902.320312 C 1295.683594 903.628906 1295.527344 904.933594 1295.320312 906.226562 C 1295.117188 907.523438 1294.859375 908.808594 1294.554688 910.085938 C 1294.246094 911.359375 1293.890625 912.621094 1293.484375 913.871094 C 1293.078125 915.117188 1292.625 916.347656 1292.121094 917.558594 C 1291.621094 918.773438 1291.070312 919.960938 1290.472656 921.128906 C 1289.878906 922.300781 1289.238281 923.441406 1288.550781 924.5625 C 1287.863281 925.679688 1287.136719 926.769531 1286.363281 927.832031 C 1285.589844 928.890625 1284.78125 929.921875 1283.925781 930.917969 C 1283.074219 931.914062 1282.183594 932.878906 1281.253906 933.804688 C 1280.328125 934.730469 1279.363281 935.621094 1278.367188 936.472656 C 1277.367188 937.324219 1276.335938 938.136719 1275.273438 938.90625 L 1203.210938 991.289062 C 1202.691406 991.652344 1202.242188 992.089844 1201.863281 992.601562 C 1201.488281 993.113281 1201.199219 993.671875 1201 994.273438 C 1200.804688 994.878906 1200.707031 995.5 1200.710938 996.132812 C 1200.714844 996.769531 1200.816406 997.386719 1201.019531 997.992188 L 1228.566406 1082.730469 C 1228.980469 1083.972656 1229.347656 1085.234375 1229.664062 1086.507812 C 1229.976562 1087.78125 1230.242188 1089.0625 1230.457031 1090.359375 C 1230.667969 1091.652344 1230.832031 1092.953125 1230.941406 1094.261719 C 1231.050781 1095.570312 1231.105469 1096.878906 1231.109375 1098.191406 C 1231.117188 1099.503906 1231.070312 1100.8125 1230.96875 1102.121094 C 1230.871094 1103.429688 1230.71875 1104.730469 1230.515625 1106.027344 C 1230.308594 1107.324219 1230.054688 1108.609375 1229.75 1109.882812 C 1229.441406 1111.160156 1229.085938 1112.421875 1228.679688 1113.667969 C 1228.273438 1114.917969 1227.816406 1116.144531 1227.3125 1117.355469 C 1226.808594 1118.566406 1226.253906 1119.757812 1225.65625 1120.921875 C 1225.054688 1122.089844 1224.410156 1123.230469 1223.71875 1124.347656 C 1223.027344 1125.460938 1222.292969 1126.546875 1221.515625 1127.605469 C 1220.738281 1128.660156 1219.921875 1129.6875 1219.0625 1130.675781 C 1218.203125 1131.667969 1217.304688 1132.625 1216.371094 1133.542969 C 1215.433594 1134.464844 1214.464844 1135.347656 1213.457031 1136.1875 C 1212.453125 1137.03125 1211.414062 1137.832031 1210.34375 1138.59375 C 1209.292969 1139.375 1208.207031 1140.117188 1207.09375 1140.816406 C 1205.980469 1141.515625 1204.84375 1142.167969 1203.675781 1142.773438 C 1202.511719 1143.382812 1201.324219 1143.941406 1200.113281 1144.453125 C 1198.902344 1144.964844 1197.671875 1145.425781 1196.425781 1145.839844 C 1195.179688 1146.253906 1193.917969 1146.617188 1192.640625 1146.929688 C 1191.363281 1147.242188 1190.078125 1147.503906 1188.777344 1147.710938 C 1187.480469 1147.921875 1186.179688 1148.078125 1184.867188 1148.183594 C 1183.558594 1148.289062 1182.246094 1148.339844 1180.933594 1148.339844 C 1179.617188 1148.339844 1178.304688 1148.289062 1176.996094 1148.183594 C 1175.6875 1148.078125 1174.382812 1147.921875 1173.085938 1147.710938 C 1171.789062 1147.503906 1170.5 1147.242188 1169.222656 1146.929688 C 1167.949219 1146.617188 1166.6875 1146.253906 1165.4375 1145.839844 C 1164.191406 1145.425781 1162.960938 1144.964844 1161.75 1144.453125 C 1160.542969 1143.941406 1159.351562 1143.382812 1158.1875 1142.773438 C 1157.023438 1142.167969 1155.882812 1141.515625 1154.769531 1140.816406 C 1153.65625 1140.117188 1152.570312 1139.375 1151.519531 1138.59375 Z M 1156.761719 892.410156 C 1155.449219 892.414062 1154.136719 892.363281 1152.828125 892.261719 C 1151.519531 892.160156 1150.21875 892.007812 1148.921875 891.804688 C 1147.625 891.601562 1146.339844 891.347656 1145.0625 891.042969 C 1143.785156 890.738281 1142.523438 890.382812 1141.273438 889.976562 C 1140.027344 889.574219 1138.796875 889.121094 1137.582031 888.621094 C 1136.371094 888.117188 1135.179688 887.570312 1134.007812 886.976562 C 1132.839844 886.378906 1131.695312 885.738281 1130.574219 885.054688 C 1129.457031 884.371094 1128.367188 883.640625 1127.304688 882.871094 C 1126.242188 882.101562 1125.210938 881.289062 1124.214844 880.4375 C 1123.214844 879.585938 1122.25 878.695312 1121.324219 877.765625 C 1120.394531 876.839844 1119.503906 875.875 1118.652344 874.878906 C 1117.800781 873.878906 1116.988281 872.851562 1116.21875 871.789062 C 1115.445312 870.726562 1114.71875 869.636719 1114.03125 868.515625 C 1113.347656 867.398438 1112.707031 866.253906 1112.109375 865.085938 C 1111.515625 863.914062 1110.96875 862.722656 1110.464844 861.511719 C 1109.964844 860.296875 1109.511719 859.066406 1109.105469 857.820312 L 1081.605469 773.082031 C 1081.410156 772.46875 1081.128906 771.90625 1080.757812 771.386719 C 1080.382812 770.867188 1079.941406 770.417969 1079.425781 770.039062 C 1078.90625 769.660156 1078.347656 769.375 1077.738281 769.175781 C 1077.132812 768.976562 1076.507812 768.875 1075.867188 768.875 C 1075.226562 768.875 1074.605469 768.976562 1073.996094 769.175781 C 1073.390625 769.375 1072.828125 769.660156 1072.3125 770.039062 C 1071.796875 770.417969 1071.351562 770.867188 1070.980469 771.386719 C 1070.605469 771.90625 1070.324219 772.46875 1070.132812 773.082031 L 1042.628906 857.820312 C 1042.226562 859.066406 1041.773438 860.296875 1041.269531 861.511719 C 1040.769531 862.722656 1040.21875 863.914062 1039.625 865.085938 C 1039.03125 866.253906 1038.390625 867.398438 1037.703125 868.515625 C 1037.019531 869.636719 1036.289062 870.726562 1035.519531 871.789062 C 1034.746094 872.851562 1033.933594 873.878906 1033.082031 874.878906 C 1032.230469 875.875 1031.339844 876.839844 1030.414062 877.765625 C 1029.484375 878.695312 1028.519531 879.585938 1027.523438 880.4375 C 1026.523438 881.289062 1025.496094 882.101562 1024.433594 882.871094 C 1023.371094 883.640625 1022.28125 884.371094 1021.160156 885.054688 C 1020.039062 885.738281 1018.894531 886.378906 1017.726562 886.976562 C 1016.558594 887.570312 1015.367188 888.117188 1014.152344 888.621094 C 1012.941406 889.121094 1011.710938 889.574219 1010.460938 889.976562 C 1009.210938 890.382812 1007.949219 890.738281 1006.671875 891.042969 C 1005.398438 891.347656 1004.109375 891.601562 1002.8125 891.804688 C 1001.515625 892.007812 1000.214844 892.160156 998.90625 892.261719 C 997.597656 892.363281 996.289062 892.414062 994.976562 892.410156 L 905.894531 892.410156 C 905.261719 892.410156 904.640625 892.503906 904.035156 892.699219 C 903.433594 892.894531 902.871094 893.179688 902.359375 893.550781 C 901.84375 893.921875 901.398438 894.363281 901.023438 894.878906 C 900.648438 895.390625 900.363281 895.949219 900.164062 896.550781 C 899.964844 897.15625 899.867188 897.773438 899.863281 898.410156 C 899.863281 899.042969 899.960938 899.664062 900.152344 900.269531 C 900.347656 900.875 900.632812 901.433594 901.003906 901.949219 C 901.375 902.460938 901.816406 902.90625 902.328125 903.28125 L 974.433594 955.664062 C 975.496094 956.433594 976.523438 957.242188 977.519531 958.089844 C 978.515625 958.9375 979.480469 959.824219 980.40625 960.75 C 981.332031 961.675781 982.222656 962.632812 983.074219 963.628906 C 983.925781 964.621094 984.738281 965.648438 985.507812 966.707031 C 986.277344 967.765625 987.003906 968.851562 987.691406 969.96875 C 988.375 971.085938 989.015625 972.226562 989.609375 973.390625 C 990.207031 974.558594 990.753906 975.746094 991.257812 976.953125 C 991.757812 978.164062 992.210938 979.390625 992.617188 980.636719 C 993.023438 981.882812 993.378906 983.140625 993.683594 984.414062 C 993.988281 985.6875 994.246094 986.96875 994.449219 988.261719 C 994.65625 989.554688 994.808594 990.855469 994.910156 992.160156 C 995.015625 993.464844 995.066406 994.773438 995.066406 996.082031 C 995.066406 997.390625 995.011719 998.699219 994.910156 1000.003906 C 994.808594 1001.308594 994.652344 1002.609375 994.445312 1003.902344 C 994.242188 1005.195312 993.984375 1006.476562 993.679688 1007.75 C 993.371094 1009.023438 993.015625 1010.28125 992.609375 1011.527344 L 983.328125 1039.929688 C 986.265625 1041.675781 989.019531 1043.679688 991.585938 1045.9375 C 994.152344 1048.191406 996.488281 1050.664062 998.597656 1053.355469 C 1000.707031 1056.042969 1002.550781 1058.90625 1004.132812 1061.933594 C 1005.710938 1064.964844 1007 1068.117188 1007.996094 1071.386719 C 1008.597656 1073.308594 1009.097656 1075.253906 1009.5 1077.230469 L 1046.453125 1050.414062 C 1047.511719 1049.640625 1048.601562 1048.910156 1049.71875 1048.222656 C 1050.832031 1047.535156 1051.976562 1046.890625 1053.144531 1046.292969 C 1054.3125 1045.695312 1055.5 1045.144531 1056.710938 1044.640625 C 1057.921875 1044.136719 1059.148438 1043.679688 1060.398438 1043.273438 C 1061.644531 1042.867188 1062.90625 1042.507812 1064.179688 1042.203125 C 1065.453125 1041.894531 1066.738281 1041.636719 1068.035156 1041.429688 C 1069.332031 1041.226562 1070.632812 1041.070312 1071.9375 1040.96875 C 1073.246094 1040.863281 1074.554688 1040.8125 1075.867188 1040.8125 C 1077.179688 1040.8125 1078.488281 1040.863281 1079.796875 1040.96875 C 1081.105469 1041.070312 1082.40625 1041.226562 1083.699219 1041.429688 C 1084.996094 1041.636719 1086.28125 1041.894531 1087.554688 1042.203125 C 1088.832031 1042.507812 1090.09375 1042.867188 1091.339844 1043.273438 C 1092.585938 1043.679688 1093.8125 1044.136719 1095.023438 1044.640625 C 1096.234375 1045.144531 1097.425781 1045.695312 1098.59375 1046.292969 C 1099.761719 1046.890625 1100.902344 1047.535156 1102.019531 1048.222656 C 1103.136719 1048.910156 1104.222656 1049.640625 1105.28125 1050.414062 L 1177.386719 1102.796875 C 1177.902344 1103.175781 1178.460938 1103.46875 1179.070312 1103.667969 C 1179.675781 1103.871094 1180.300781 1103.972656 1180.9375 1103.976562 C 1181.578125 1103.980469 1182.203125 1103.882812 1182.8125 1103.683594 C 1183.421875 1103.488281 1183.984375 1103.203125 1184.5 1102.828125 C 1185.019531 1102.449219 1185.464844 1102.003906 1185.839844 1101.484375 C 1186.214844 1100.964844 1186.5 1100.402344 1186.695312 1099.792969 C 1186.886719 1099.183594 1186.984375 1098.558594 1186.980469 1097.917969 C 1186.976562 1097.28125 1186.871094 1096.65625 1186.667969 1096.050781 L 1159.125 1011.3125 C 1158.71875 1010.066406 1158.363281 1008.808594 1158.054688 1007.535156 C 1157.75 1006.261719 1157.492188 1004.980469 1157.289062 1003.6875 C 1157.082031 1002.394531 1156.929688 1001.09375 1156.824219 999.789062 C 1156.722656 998.484375 1156.671875 997.175781 1156.671875 995.867188 C 1156.671875 994.558594 1156.722656 993.25 1156.824219 991.945312 C 1156.925781 990.640625 1157.082031 989.339844 1157.285156 988.046875 C 1157.492188 986.753906 1157.746094 985.472656 1158.050781 984.199219 C 1158.359375 982.925781 1158.714844 981.667969 1159.117188 980.421875 C 1159.523438 979.175781 1159.976562 977.949219 1160.480469 976.738281 C 1160.980469 975.53125 1161.527344 974.34375 1162.125 973.175781 C 1162.71875 972.011719 1163.359375 970.871094 1164.042969 969.753906 C 1164.730469 968.636719 1165.457031 967.550781 1166.226562 966.492188 C 1167 965.433594 1167.808594 964.40625 1168.660156 963.414062 C 1169.511719 962.417969 1170.402344 961.460938 1171.328125 960.535156 C 1172.257812 959.609375 1173.21875 958.722656 1174.214844 957.875 C 1175.210938 957.027344 1176.242188 956.21875 1177.300781 955.449219 L 1249.40625 903.066406 C 1249.917969 902.691406 1250.359375 902.246094 1250.734375 901.734375 C 1251.105469 901.21875 1251.386719 900.65625 1251.582031 900.054688 C 1251.777344 899.449219 1251.871094 898.828125 1251.871094 898.195312 C 1251.867188 897.558594 1251.769531 896.941406 1251.570312 896.335938 C 1251.371094 895.734375 1251.085938 895.175781 1250.710938 894.664062 C 1250.335938 894.148438 1249.890625 893.707031 1249.378906 893.335938 C 1248.863281 892.964844 1248.304688 892.679688 1247.699219 892.484375 C 1247.09375 892.289062 1246.476562 892.195312 1245.839844 892.195312 Z M 1156.761719 892.410156 " fill-opacity="1" fill-rule="nonzero"/><path fill="#1676bb" d="M 342.246094 683.269531 C 340.933594 683.265625 339.632812 683.148438 338.339844 682.910156 C 337.050781 682.675781 335.792969 682.328125 334.5625 681.867188 C 333.335938 681.410156 332.15625 680.84375 331.03125 680.171875 C 329.902344 679.503906 328.84375 678.738281 327.851562 677.882812 C 326.859375 677.023438 325.953125 676.082031 325.128906 675.0625 C 324.304688 674.042969 323.574219 672.957031 322.945312 671.808594 C 322.3125 670.65625 321.789062 669.460938 321.371094 668.21875 C 320.953125 666.972656 320.648438 665.703125 320.457031 664.40625 C 317.535156 643.871094 316.105469 623.230469 316.160156 602.484375 C 316.164062 593.742188 316.4375 585.003906 316.976562 576.277344 C 317.519531 567.546875 318.328125 558.84375 319.40625 550.167969 C 320.480469 541.488281 321.824219 532.851562 323.433594 524.253906 C 325.042969 515.660156 326.914062 507.121094 329.046875 498.640625 C 331.179688 490.160156 333.574219 481.753906 336.226562 473.421875 C 338.878906 465.089844 341.78125 456.84375 344.941406 448.691406 C 348.101562 440.535156 351.507812 432.488281 355.164062 424.542969 C 358.816406 416.597656 362.710938 408.773438 366.847656 401.066406 C 370.984375 393.363281 375.355469 385.792969 379.957031 378.355469 C 384.558594 370.921875 389.382812 363.632812 394.433594 356.496094 C 399.484375 349.355469 404.75 342.378906 410.230469 335.566406 C 415.710938 328.75 421.398438 322.109375 427.285156 315.644531 C 433.175781 309.179688 439.257812 302.902344 445.53125 296.8125 C 451.808594 290.722656 458.265625 284.832031 464.902344 279.140625 C 471.539062 273.445312 478.347656 267.960938 485.324219 262.6875 C 492.296875 257.414062 499.429688 252.359375 506.714844 247.527344 C 514.003906 242.691406 521.429688 238.085938 529 233.707031 C 536.570312 229.328125 544.269531 225.1875 552.09375 221.285156 C 559.917969 217.382812 567.859375 213.722656 575.90625 210.308594 C 583.957031 206.890625 592.105469 203.726562 600.351562 200.8125 C 608.597656 197.898438 616.921875 195.242188 625.332031 192.839844 C 633.742188 190.441406 642.214844 188.300781 650.757812 186.421875 C 659.296875 184.542969 667.886719 182.925781 676.527344 181.578125 C 685.167969 180.226562 693.839844 179.140625 702.546875 178.324219 C 711.253906 177.507812 719.976562 176.960938 728.71875 176.679688 C 737.457031 176.402344 746.199219 176.390625 754.9375 176.648438 C 763.679688 176.90625 772.40625 177.433594 781.113281 178.230469 C 789.820312 179.023438 798.496094 180.085938 807.140625 181.417969 C 815.785156 182.746094 824.378906 184.339844 832.921875 186.199219 C 841.46875 188.058594 849.949219 190.175781 858.363281 192.558594 C 866.777344 194.9375 875.109375 197.574219 883.363281 200.46875 C 891.613281 203.363281 899.769531 206.507812 907.828125 209.902344 C 908.492188 210.183594 909.144531 210.496094 909.777344 210.839844 C 910.410156 211.1875 911.023438 211.5625 911.621094 211.96875 C 912.21875 212.375 912.792969 212.808594 913.347656 213.269531 C 913.902344 213.730469 914.429688 214.21875 914.9375 214.734375 C 915.441406 215.25 915.921875 215.785156 916.375 216.347656 C 916.828125 216.910156 917.253906 217.492188 917.648438 218.09375 C 918.046875 218.699219 918.410156 219.320312 918.746094 219.957031 C 919.082031 220.597656 919.382812 221.25 919.652344 221.917969 C 919.925781 222.589844 920.160156 223.269531 920.367188 223.960938 C 920.570312 224.652344 920.738281 225.351562 920.875 226.0625 C 921.007812 226.769531 921.109375 227.484375 921.175781 228.203125 C 921.238281 228.921875 921.269531 229.640625 921.261719 230.363281 C 921.257812 231.082031 921.214844 231.804688 921.140625 232.519531 C 921.0625 233.238281 920.949219 233.949219 920.804688 234.65625 C 920.65625 235.363281 920.476562 236.058594 920.261719 236.75 C 920.046875 237.4375 919.800781 238.113281 919.515625 238.777344 C 919.234375 239.441406 918.921875 240.089844 918.578125 240.726562 C 918.230469 241.359375 917.855469 241.972656 917.449219 242.570312 C 917.046875 243.167969 916.613281 243.742188 916.148438 244.296875 C 915.6875 244.851562 915.199219 245.378906 914.683594 245.886719 C 914.171875 246.390625 913.632812 246.871094 913.070312 247.324219 C 912.511719 247.777344 911.925781 248.203125 911.324219 248.597656 C 910.722656 248.992188 910.101562 249.359375 909.460938 249.695312 C 908.824219 250.027344 908.167969 250.332031 907.5 250.601562 C 906.832031 250.875 906.152344 251.109375 905.457031 251.316406 C 904.765625 251.519531 904.066406 251.6875 903.359375 251.824219 C 902.648438 251.957031 901.933594 252.058594 901.21875 252.121094 C 900.5 252.1875 899.777344 252.21875 899.058594 252.210938 C 898.335938 252.207031 897.617188 252.164062 896.898438 252.085938 C 896.179688 252.011719 895.46875 251.898438 894.761719 251.753906 C 894.058594 251.605469 893.359375 251.425781 892.671875 251.210938 C 891.980469 250.996094 891.304688 250.746094 890.640625 250.464844 C 883.414062 247.421875 876.101562 244.605469 868.703125 242.007812 C 861.300781 239.414062 853.832031 237.050781 846.285156 234.917969 C 838.738281 232.785156 831.136719 230.882812 823.472656 229.21875 C 815.8125 227.550781 808.105469 226.125 800.355469 224.929688 C 792.605469 223.738281 784.828125 222.789062 777.019531 222.074219 C 769.210938 221.359375 761.386719 220.890625 753.546875 220.65625 C 745.710938 220.425781 737.875 220.4375 730.035156 220.6875 C 722.199219 220.9375 714.378906 221.429688 706.570312 222.160156 C 698.761719 222.894531 690.988281 223.863281 683.238281 225.074219 C 675.492188 226.285156 667.789062 227.734375 660.132812 229.417969 C 652.472656 231.105469 644.875 233.023438 637.335938 235.175781 C 629.796875 237.328125 622.328125 239.710938 614.933594 242.320312 C 607.542969 244.933594 600.234375 247.769531 593.019531 250.832031 C 585.800781 253.894531 578.679688 257.175781 571.664062 260.675781 C 564.648438 264.171875 557.746094 267.886719 550.957031 271.808594 C 544.167969 275.734375 537.507812 279.863281 530.972656 284.199219 C 524.4375 288.53125 518.042969 293.0625 511.789062 297.792969 C 505.535156 302.519531 499.429688 307.4375 493.476562 312.539062 C 487.523438 317.644531 481.734375 322.925781 476.105469 328.386719 C 470.476562 333.84375 465.023438 339.472656 459.742188 345.269531 C 454.460938 351.0625 449.363281 357.015625 444.445312 363.125 C 439.53125 369.234375 434.808594 375.492188 430.28125 381.890625 C 425.75 388.289062 421.421875 394.824219 417.292969 401.492188 C 413.164062 408.15625 409.246094 414.945312 405.535156 421.851562 C 401.824219 428.757812 398.328125 435.773438 395.050781 442.898438 C 391.773438 450.019531 388.714844 457.238281 385.882812 464.546875 C 383.046875 471.859375 380.441406 479.25 378.0625 486.722656 C 375.679688 494.191406 373.535156 501.730469 371.617188 509.332031 C 369.703125 516.9375 368.023438 524.59375 366.578125 532.300781 C 365.132812 540.007812 363.925781 547.75 362.957031 555.53125 C 361.992188 563.3125 361.261719 571.117188 360.773438 578.941406 C 360.285156 586.765625 360.039062 594.601562 360.035156 602.441406 C 360.042969 621.058594 361.390625 639.582031 364.074219 658.003906 C 364.179688 658.71875 364.246094 659.4375 364.28125 660.15625 C 364.316406 660.878906 364.3125 661.597656 364.277344 662.320312 C 364.238281 663.042969 364.167969 663.757812 364.058594 664.472656 C 363.953125 665.1875 363.808594 665.894531 363.632812 666.59375 C 363.453125 667.292969 363.242188 667.984375 363 668.660156 C 362.753906 669.339844 362.476562 670.007812 362.164062 670.660156 C 361.855469 671.308594 361.511719 671.945312 361.140625 672.5625 C 360.765625 673.179688 360.363281 673.777344 359.929688 674.359375 C 359.5 674.9375 359.039062 675.492188 358.550781 676.023438 C 358.066406 676.558594 357.554688 677.066406 357.015625 677.550781 C 356.480469 678.03125 355.921875 678.488281 355.339844 678.914062 C 354.757812 679.34375 354.15625 679.742188 353.535156 680.109375 C 352.914062 680.476562 352.277344 680.816406 351.625 681.121094 C 350.96875 681.425781 350.300781 681.699219 349.621094 681.941406 C 348.941406 682.179688 348.25 682.386719 347.546875 682.558594 C 346.847656 682.730469 346.140625 682.867188 345.425781 682.96875 C 344.371094 683.152344 343.3125 683.253906 342.246094 683.269531 Z M 342.246094 683.269531 " fill-opacity="1" fill-rule="nonzero"/><path fill="#1676bb" d="M 1141.808594 683.269531 C 1140.726562 683.269531 1139.652344 683.183594 1138.582031 683.011719 C 1137.871094 682.910156 1137.164062 682.769531 1136.464844 682.597656 C 1135.761719 682.425781 1135.074219 682.21875 1134.394531 681.976562 C 1133.714844 681.734375 1133.046875 681.460938 1132.394531 681.15625 C 1131.742188 680.847656 1131.105469 680.511719 1130.484375 680.140625 C 1129.867188 679.773438 1129.265625 679.375 1128.6875 678.945312 C 1128.105469 678.515625 1127.546875 678.0625 1127.011719 677.578125 C 1126.476562 677.097656 1125.964844 676.585938 1125.480469 676.054688 C 1124.992188 675.519531 1124.535156 674.964844 1124.105469 674.386719 C 1123.671875 673.808594 1123.273438 673.210938 1122.898438 672.59375 C 1122.527344 671.976562 1122.1875 671.339844 1121.878906 670.6875 C 1121.566406 670.039062 1121.289062 669.375 1121.046875 668.695312 C 1120.800781 668.015625 1120.589844 667.328125 1120.414062 666.628906 C 1120.238281 665.929688 1120.097656 665.222656 1119.988281 664.507812 C 1119.882812 663.796875 1119.808594 663.078125 1119.773438 662.359375 C 1119.734375 661.636719 1119.734375 660.917969 1119.769531 660.199219 C 1119.804688 659.476562 1119.871094 658.761719 1119.976562 658.046875 C 1122.648438 639.621094 1123.980469 621.101562 1123.972656 602.484375 C 1123.984375 583.222656 1122.550781 564.070312 1119.671875 545.027344 C 1116.789062 525.984375 1112.496094 507.265625 1106.785156 488.871094 C 1106.535156 488.171875 1106.324219 487.460938 1106.148438 486.742188 C 1105.96875 486.023438 1105.828125 485.296875 1105.726562 484.5625 C 1105.621094 483.828125 1105.554688 483.09375 1105.527344 482.351562 C 1105.496094 481.609375 1105.503906 480.871094 1105.550781 480.132812 C 1105.597656 479.390625 1105.679688 478.65625 1105.796875 477.925781 C 1105.917969 477.191406 1106.074219 476.46875 1106.269531 475.753906 C 1106.460938 475.039062 1106.691406 474.335938 1106.953125 473.640625 C 1107.21875 472.949219 1107.515625 472.273438 1107.847656 471.609375 C 1108.179688 470.949219 1108.546875 470.304688 1108.945312 469.679688 C 1109.34375 469.054688 1109.769531 468.449219 1110.230469 467.867188 C 1110.6875 467.285156 1111.175781 466.726562 1111.691406 466.195312 C 1112.203125 465.664062 1112.746094 465.15625 1113.3125 464.679688 C 1113.878906 464.199219 1114.464844 463.75 1115.078125 463.332031 C 1115.6875 462.914062 1116.320312 462.527344 1116.96875 462.171875 C 1117.621094 461.816406 1118.289062 461.496094 1118.96875 461.207031 C 1119.652344 460.921875 1120.347656 460.667969 1121.058594 460.449219 C 1121.765625 460.234375 1122.484375 460.050781 1123.210938 459.90625 C 1123.9375 459.761719 1124.671875 459.65625 1125.40625 459.585938 C 1126.144531 459.511719 1126.886719 459.480469 1127.625 459.484375 C 1128.367188 459.488281 1129.105469 459.527344 1129.84375 459.605469 C 1130.578125 459.6875 1131.3125 459.800781 1132.035156 459.953125 C 1132.761719 460.105469 1133.476562 460.296875 1134.183594 460.519531 C 1134.890625 460.746094 1135.582031 461.003906 1136.261719 461.300781 C 1136.941406 461.59375 1137.605469 461.921875 1138.253906 462.285156 C 1138.898438 462.644531 1139.527344 463.039062 1140.132812 463.464844 C 1140.738281 463.890625 1141.324219 464.34375 1141.886719 464.828125 C 1142.445312 465.3125 1142.980469 465.824219 1143.492188 466.363281 C 1144 466.902344 1144.480469 467.464844 1144.933594 468.050781 C 1145.386719 468.636719 1145.808594 469.246094 1146.199219 469.875 C 1146.589844 470.503906 1146.949219 471.152344 1147.273438 471.816406 C 1147.597656 472.484375 1147.890625 473.164062 1148.148438 473.859375 C 1148.40625 474.554688 1148.625 475.261719 1148.8125 475.976562 C 1155.179688 496.496094 1159.972656 517.375 1163.183594 538.613281 C 1166.398438 559.855469 1167.996094 581.21875 1167.976562 602.699219 C 1168.03125 623.445312 1166.601562 644.085938 1163.679688 664.621094 C 1163.476562 665.914062 1163.164062 667.179688 1162.738281 668.414062 C 1162.3125 669.652344 1161.777344 670.839844 1161.140625 671.980469 C 1160.503906 673.125 1159.769531 674.199219 1158.9375 675.210938 C 1158.109375 676.222656 1157.195312 677.152344 1156.199219 678 C 1155.207031 678.851562 1154.144531 679.605469 1153.011719 680.261719 C 1151.882812 680.921875 1150.703125 681.476562 1149.476562 681.925781 C 1148.246094 682.375 1146.988281 682.714844 1145.703125 682.941406 C 1144.414062 683.164062 1143.113281 683.277344 1141.808594 683.269531 Z M 1141.808594 683.269531 " fill-opacity="1" fill-rule="nonzero"/><path fill="#1676bb" d="M 742.003906 808.488281 C 736.800781 808.496094 731.640625 808.019531 726.527344 807.0625 C 721.410156 806.101562 716.429688 804.679688 711.582031 802.789062 C 706.734375 800.902344 702.101562 798.578125 697.6875 795.824219 C 693.273438 793.066406 689.152344 789.925781 685.324219 786.402344 L 459.855469 577.777344 C 458.84375 576.851562 457.851562 575.898438 456.886719 574.925781 C 455.921875 573.949219 454.980469 572.953125 454.0625 571.929688 C 453.144531 570.910156 452.253906 569.863281 451.386719 568.800781 C 450.523438 567.734375 449.683594 566.648438 448.871094 565.542969 C 448.058594 564.433594 447.273438 563.308594 446.519531 562.164062 C 445.761719 561.019531 445.035156 559.855469 444.335938 558.671875 C 443.632812 557.492188 442.964844 556.292969 442.324219 555.082031 C 441.683594 553.867188 441.074219 552.636719 440.496094 551.390625 C 439.914062 550.148438 439.367188 548.890625 438.847656 547.617188 C 438.332031 546.347656 437.84375 545.0625 437.390625 543.769531 C 436.933594 542.472656 436.511719 541.167969 436.121094 539.851562 C 435.730469 538.535156 435.375 537.210938 435.050781 535.878906 C 434.726562 534.542969 434.433594 533.203125 434.175781 531.855469 C 433.914062 530.507812 433.691406 529.152344 433.496094 527.792969 C 433.304688 526.433594 433.148438 525.070312 433.023438 523.703125 C 432.898438 522.335938 432.804688 520.96875 432.746094 519.597656 C 432.691406 518.222656 432.667969 516.851562 432.675781 515.480469 C 432.6875 514.105469 432.730469 512.734375 432.808594 511.363281 C 432.886719 509.996094 432.996094 508.625 433.144531 507.261719 C 433.289062 505.894531 433.464844 504.535156 433.679688 503.179688 C 433.890625 501.824219 434.136719 500.472656 434.414062 499.128906 C 434.691406 497.785156 435.003906 496.449219 435.347656 495.121094 C 435.695312 493.789062 436.070312 492.472656 436.480469 491.160156 C 436.890625 489.851562 437.332031 488.550781 437.804688 487.261719 C 438.277344 485.972656 438.785156 484.699219 439.320312 483.433594 C 439.855469 482.171875 440.421875 480.921875 441.019531 479.6875 C 441.621094 478.449219 442.246094 477.230469 442.90625 476.023438 C 443.5625 474.820312 444.25 473.632812 444.96875 472.460938 C 445.683594 471.292969 446.429688 470.136719 447.203125 469.003906 C 447.976562 467.871094 448.777344 466.757812 449.605469 465.660156 C 450.433594 464.566406 451.289062 463.492188 452.167969 462.441406 C 453.050781 461.386719 453.957031 460.359375 454.890625 459.351562 C 455.820312 458.34375 456.777344 457.359375 457.757812 456.398438 C 458.738281 455.4375 459.742188 454.5 460.769531 453.589844 C 461.796875 452.675781 462.84375 451.792969 463.914062 450.933594 C 464.984375 450.074219 466.074219 449.238281 467.1875 448.433594 C 468.296875 447.628906 469.429688 446.851562 470.578125 446.101562 C 471.726562 445.351562 472.894531 444.628906 474.082031 443.9375 C 475.265625 443.242188 476.46875 442.578125 477.683594 441.945312 C 478.902344 441.3125 480.136719 440.710938 481.382812 440.136719 C 482.628906 439.5625 483.890625 439.023438 485.164062 438.511719 C 486.441406 438 487.726562 437.523438 489.023438 437.074219 C 490.320312 436.628906 491.628906 436.214844 492.949219 435.832031 C 494.265625 435.449219 495.59375 435.097656 496.929688 434.78125 C 498.265625 434.460938 499.605469 434.179688 500.957031 433.925781 C 502.304688 433.675781 503.660156 433.457031 505.019531 433.273438 C 506.382812 433.089844 507.746094 432.9375 509.113281 432.820312 C 510.480469 432.703125 511.851562 432.621094 513.222656 432.570312 C 514.59375 432.519531 515.964844 432.503906 517.339844 432.523438 C 518.710938 432.539062 520.082031 432.59375 521.453125 432.675781 C 522.824219 432.761719 524.191406 432.882812 525.554688 433.035156 C 526.917969 433.1875 528.277344 433.375 529.632812 433.59375 C 530.988281 433.8125 532.335938 434.066406 533.679688 434.351562 C 535.023438 434.636719 536.355469 434.957031 537.683594 435.308594 C 539.011719 435.660156 540.328125 436.046875 541.636719 436.464844 C 542.945312 436.878906 544.242188 437.328125 545.527344 437.808594 C 546.8125 438.289062 548.085938 438.800781 549.347656 439.347656 C 550.605469 439.890625 551.851562 440.464844 553.085938 441.070312 C 554.316406 441.671875 555.535156 442.308594 556.734375 442.972656 C 557.9375 443.636719 559.121094 444.332031 560.285156 445.054688 C 561.453125 445.777344 562.601562 446.53125 563.730469 447.308594 C 564.863281 448.089844 565.972656 448.898438 567.0625 449.730469 C 568.152344 450.566406 569.21875 451.425781 570.265625 452.3125 C 571.316406 453.203125 572.339844 454.113281 573.34375 455.050781 L 731.777344 601.625 L 1049.332031 191.425781 C 1050.179688 190.371094 1051.054688 189.339844 1051.953125 188.332031 C 1052.851562 187.320312 1053.773438 186.332031 1054.71875 185.367188 C 1055.664062 184.402344 1056.632812 183.460938 1057.625 182.542969 C 1058.617188 181.625 1059.628906 180.730469 1060.664062 179.863281 C 1061.699219 178.992188 1062.753906 178.148438 1063.832031 177.332031 C 1064.90625 176.511719 1066 175.722656 1067.113281 174.957031 C 1068.230469 174.191406 1069.363281 173.453125 1070.511719 172.746094 C 1071.660156 172.035156 1072.828125 171.351562 1074.011719 170.699219 C 1075.195312 170.046875 1076.390625 169.421875 1077.605469 168.824219 C 1078.820312 168.230469 1080.046875 167.664062 1081.285156 167.128906 C 1082.527344 166.59375 1083.78125 166.085938 1085.046875 165.613281 C 1086.308594 165.136719 1087.585938 164.691406 1088.871094 164.28125 C 1090.160156 163.867188 1091.457031 163.484375 1092.761719 163.132812 C 1094.066406 162.785156 1095.378906 162.464844 1096.699219 162.179688 C 1098.019531 161.890625 1099.347656 161.636719 1100.679688 161.414062 C 1102.011719 161.191406 1103.351562 161.003906 1104.695312 160.84375 C 1106.035156 160.6875 1107.382812 160.5625 1108.730469 160.46875 C 1110.078125 160.378906 1111.425781 160.320312 1112.777344 160.292969 C 1114.128906 160.265625 1115.480469 160.269531 1116.832031 160.308594 C 1118.183594 160.347656 1119.53125 160.417969 1120.878906 160.523438 C 1122.226562 160.628906 1123.570312 160.765625 1124.910156 160.933594 C 1126.253906 161.101562 1127.589844 161.304688 1128.917969 161.539062 C 1130.25 161.773438 1131.574219 162.039062 1132.894531 162.335938 C 1134.210938 162.632812 1135.523438 162.964844 1136.824219 163.324219 C 1138.125 163.6875 1139.417969 164.082031 1140.703125 164.503906 C 1141.984375 164.929688 1143.257812 165.386719 1144.519531 165.871094 C 1145.777344 166.355469 1147.027344 166.875 1148.261719 167.421875 C 1149.5 167.964844 1150.722656 168.542969 1151.929688 169.148438 C 1153.136719 169.753906 1154.332031 170.390625 1155.507812 171.054688 C 1156.683594 171.714844 1157.84375 172.410156 1158.988281 173.128906 C 1160.132812 173.847656 1161.257812 174.59375 1162.367188 175.371094 C 1163.472656 176.144531 1164.5625 176.945312 1165.628906 177.773438 C 1166.699219 178.601562 1167.746094 179.453125 1168.773438 180.332031 C 1169.800781 181.210938 1170.808594 182.113281 1171.789062 183.039062 C 1172.773438 183.964844 1173.734375 184.914062 1174.671875 185.890625 C 1175.609375 186.863281 1176.523438 187.859375 1177.414062 188.875 C 1178.300781 189.894531 1179.164062 190.933594 1180.003906 191.992188 C 1180.84375 193.050781 1181.65625 194.128906 1182.441406 195.230469 C 1183.230469 196.328125 1183.988281 197.445312 1184.722656 198.582031 C 1185.453125 199.71875 1186.15625 200.871094 1186.835938 202.039062 C 1187.511719 203.210938 1188.160156 204.394531 1188.777344 205.597656 C 1189.394531 206.800781 1189.984375 208.015625 1190.546875 209.246094 C 1191.105469 210.476562 1191.636719 211.71875 1192.136719 212.972656 C 1192.636719 214.230469 1193.105469 215.496094 1193.542969 216.773438 C 1193.980469 218.050781 1194.386719 219.339844 1194.765625 220.640625 C 1195.140625 221.9375 1195.484375 223.242188 1195.796875 224.558594 C 1196.109375 225.875 1196.390625 227.195312 1196.636719 228.523438 C 1196.886719 229.851562 1197.101562 231.1875 1197.285156 232.523438 C 1197.472656 233.863281 1197.621094 235.207031 1197.742188 236.550781 C 1197.859375 237.898438 1197.945312 239.246094 1198 240.597656 C 1198.050781 241.949219 1198.074219 243.296875 1198.058594 244.648438 C 1198.046875 246 1198.003906 247.351562 1197.925781 248.699219 C 1197.847656 250.050781 1197.738281 251.398438 1197.59375 252.742188 C 1197.453125 254.085938 1197.277344 255.425781 1197.070312 256.757812 C 1196.859375 258.09375 1196.621094 259.425781 1196.347656 260.75 C 1196.074219 262.070312 1195.773438 263.386719 1195.433594 264.699219 C 1195.097656 266.007812 1194.730469 267.304688 1194.332031 268.597656 C 1193.933594 269.890625 1193.503906 271.167969 1193.042969 272.441406 C 1192.582031 273.710938 1192.089844 274.96875 1191.566406 276.214844 C 1191.042969 277.460938 1190.492188 278.695312 1189.910156 279.914062 C 1189.328125 281.132812 1188.714844 282.339844 1188.074219 283.527344 C 1187.433594 284.71875 1186.765625 285.894531 1186.070312 287.050781 C 1185.371094 288.207031 1184.644531 289.347656 1183.894531 290.46875 C 1183.140625 291.59375 1182.359375 292.695312 1181.554688 293.78125 L 808.09375 776.089844 C 806.320312 778.371094 804.4375 780.554688 802.4375 782.640625 C 800.441406 784.726562 798.339844 786.703125 796.136719 788.574219 C 793.933594 790.445312 791.640625 792.195312 789.257812 793.828125 C 786.875 795.457031 784.414062 796.964844 781.875 798.339844 C 779.332031 799.71875 776.730469 800.960938 774.0625 802.070312 C 771.394531 803.179688 768.675781 804.144531 765.910156 804.972656 C 763.140625 805.800781 760.335938 806.480469 757.5 807.019531 C 754.660156 807.558594 751.800781 807.945312 748.921875 808.1875 C 746.644531 808.402344 744.324219 808.488281 742.003906 808.488281 Z M 516.621094 477.007812 L 515.03125 477.007812 C 513.078125 477.074219 511.136719 477.285156 509.214844 477.640625 C 507.292969 477.992188 505.40625 478.488281 503.554688 479.121094 C 501.707031 479.753906 499.914062 480.519531 498.179688 481.421875 C 496.441406 482.320312 494.78125 483.34375 493.199219 484.488281 C 491.613281 485.632812 490.121094 486.890625 488.726562 488.257812 C 487.328125 489.625 486.039062 491.089844 484.855469 492.644531 C 483.675781 494.203125 482.617188 495.84375 481.679688 497.558594 C 480.742188 499.273438 479.933594 501.046875 479.261719 502.882812 C 478.585938 504.71875 478.050781 506.59375 477.65625 508.507812 C 477.257812 510.421875 477.003906 512.355469 476.894531 514.308594 C 476.785156 516.261719 476.820312 518.210938 477 520.15625 C 477.179688 522.105469 477.503906 524.027344 477.96875 525.925781 C 478.433594 527.824219 479.039062 529.679688 479.777344 531.488281 C 480.519531 533.300781 481.386719 535.042969 482.386719 536.726562 C 483.386719 538.40625 484.503906 540.003906 485.738281 541.519531 C 486.976562 543.03125 488.316406 544.449219 489.765625 545.761719 L 715.40625 753.914062 C 717.410156 755.78125 719.589844 757.417969 721.9375 758.832031 C 724.289062 760.242188 726.757812 761.394531 729.347656 762.289062 C 731.9375 763.1875 734.589844 763.804688 737.308594 764.144531 C 740.027344 764.484375 742.753906 764.542969 745.484375 764.3125 C 748.21875 764.078125 750.898438 763.566406 753.523438 762.777344 C 756.152344 761.988281 758.667969 760.9375 761.078125 759.628906 C 763.488281 758.320312 765.742188 756.78125 767.832031 755.007812 C 769.925781 753.234375 771.816406 751.265625 773.5 749.101562 L 1146.921875 266.753906 C 1147.734375 265.730469 1148.496094 264.671875 1149.207031 263.574219 C 1149.914062 262.476562 1150.570312 261.347656 1151.167969 260.183594 C 1151.761719 259.023438 1152.300781 257.832031 1152.78125 256.617188 C 1153.261719 255.402344 1153.679688 254.167969 1154.035156 252.910156 C 1154.394531 251.652344 1154.6875 250.382812 1154.917969 249.09375 C 1155.148438 247.808594 1155.316406 246.515625 1155.417969 245.210938 C 1155.519531 243.910156 1155.558594 242.605469 1155.53125 241.300781 C 1155.503906 239.992188 1155.414062 238.691406 1155.257812 237.394531 C 1155.101562 236.097656 1154.882812 234.808594 1154.597656 233.535156 C 1154.316406 232.257812 1153.96875 231 1153.5625 229.757812 C 1153.152344 228.519531 1152.683594 227.300781 1152.15625 226.105469 C 1151.625 224.910156 1151.039062 223.746094 1150.394531 222.609375 C 1149.75 221.472656 1149.050781 220.371094 1148.296875 219.300781 C 1147.542969 218.234375 1146.738281 217.207031 1145.882812 216.21875 C 1145.027344 215.234375 1144.125 214.289062 1143.175781 213.390625 C 1142.226562 212.496094 1141.234375 211.644531 1140.203125 210.847656 C 1139.167969 210.046875 1138.097656 209.300781 1136.992188 208.605469 C 1135.882812 207.914062 1134.746094 207.277344 1133.574219 206.695312 C 1132.402344 206.113281 1131.207031 205.59375 1129.984375 205.132812 C 1128.761719 204.667969 1127.519531 204.269531 1126.257812 203.929688 C 1124.996094 203.589844 1123.722656 203.316406 1122.433594 203.101562 C 1121.140625 202.890625 1119.847656 202.742188 1118.542969 202.660156 C 1117.238281 202.574219 1115.933594 202.554688 1114.628906 202.601562 C 1113.320312 202.648438 1112.019531 202.757812 1110.726562 202.929688 C 1109.429688 203.105469 1108.148438 203.34375 1106.875 203.644531 C 1105.605469 203.949219 1104.351562 204.3125 1103.117188 204.738281 C 1101.882812 205.164062 1100.671875 205.648438 1099.484375 206.195312 C 1098.296875 206.742188 1097.140625 207.34375 1096.011719 208.007812 C 1094.886719 208.667969 1093.792969 209.382812 1092.738281 210.152344 C 1091.679688 210.921875 1090.664062 211.738281 1089.691406 212.609375 C 1088.714844 213.480469 1087.785156 214.394531 1086.902344 215.355469 C 1086.015625 216.320312 1085.183594 217.320312 1084.398438 218.367188 L 752.101562 647.5625 C 751.636719 648.164062 751.140625 648.738281 750.613281 649.289062 C 750.089844 649.839844 749.535156 650.359375 748.957031 650.851562 C 748.375 651.347656 747.769531 651.808594 747.144531 652.238281 C 746.515625 652.667969 745.867188 653.066406 745.199219 653.429688 C 744.53125 653.792969 743.84375 654.117188 743.140625 654.410156 C 742.4375 654.703125 741.722656 654.957031 740.992188 655.175781 C 740.265625 655.394531 739.527344 655.574219 738.777344 655.714844 C 738.03125 655.855469 737.277344 655.960938 736.519531 656.023438 C 735.761719 656.085938 735 656.109375 734.238281 656.09375 C 733.476562 656.078125 732.71875 656.023438 731.964844 655.929688 C 731.210938 655.835938 730.460938 655.707031 729.71875 655.535156 C 728.976562 655.363281 728.246094 655.152344 727.527344 654.90625 C 726.808594 654.660156 726.101562 654.375 725.410156 654.054688 C 724.722656 653.738281 724.050781 653.382812 723.394531 652.992188 C 722.742188 652.601562 722.109375 652.179688 721.5 651.726562 C 720.890625 651.269531 720.304688 650.785156 719.746094 650.269531 L 543.519531 487.367188 C 541.703125 485.699219 539.746094 484.214844 537.648438 482.917969 C 535.550781 481.617188 533.351562 480.527344 531.050781 479.640625 C 528.75 478.753906 526.386719 478.089844 523.960938 477.648438 C 521.535156 477.203125 519.085938 476.992188 516.621094 477.007812 Z M 516.621094 477.007812 " fill-opacity="1" fill-rule="nonzero"/></svg>