<svg xmlns="http://www.w3.org/2000/svg" xmlns:xlink="http://www.w3.org/1999/xlink" width="2000" zoomAndPan="magnify" viewBox="0 0 1500 1499.999933" height="2000" preserveAspectRatio="xMidYMid meet" version="1.0"><defs><clipPath id="a859d335f0"><path d="M 1152 1315 L 1393.839844 1315 L 1393.839844 1468 L 1152 1468 Z M 1152 1315 " clip-rule="nonzero"/></clipPath></defs><path fill="#1676bb" d="M 278.378906 749.253906 C 209.621094 749.253906 157.78125 782.015625 157.78125 825.453125 C 157.78125 868.890625 209.621094 901.65625 278.378906 901.65625 C 347.136719 901.65625 398.976562 868.890625 398.976562 825.453125 C 398.976562 782.015625 347.136719 749.253906 278.378906 749.253906 Z M 278.378906 858.113281 C 232.246094 858.113281 201.636719 838.457031 201.636719 825.453125 C 201.636719 812.453125 232.246094 792.796875 278.378906 792.796875 C 324.511719 792.796875 355.121094 812.453125 355.121094 825.453125 C 355.121094 838.457031 324.511719 858.113281 278.378906 858.113281 Z M 278.378906 858.113281 " fill-opacity="1" fill-rule="nonzero"/><path fill="#1676bb" d="M 1108.851562 820.914062 C 1039.164062 820.914062 986.605469 854.074219 986.605469 898.03125 C 986.605469 941.988281 1039.164062 975.136719 1108.851562 975.136719 C 1178.539062 975.136719 1231.097656 941.988281 1231.097656 898.03125 C 1231.097656 854.074219 1178.539062 820.914062 1108.851562 820.914062 Z M 1108.851562 931.59375 C 1061.722656 931.59375 1030.460938 911.394531 1030.460938 898.03125 C 1030.460938 884.667969 1061.722656 864.460938 1108.851562 864.460938 C 1155.980469 864.460938 1187.246094 884.667969 1187.246094 898.03125 C 1187.246094 911.394531 1155.980469 931.59375 1108.851562 931.59375 Z M 1108.851562 931.59375 " fill-opacity="1" fill-rule="nonzero"/><g clip-path="url(#a859d335f0)"><path fill="#1676bb" d="M 1273.300781 1315.324219 C 1204.546875 1315.324219 1152.707031 1348.085938 1152.707031 1391.523438 C 1152.707031 1434.960938 1204.546875 1467.726562 1273.300781 1467.726562 C 1342.058594 1467.726562 1393.898438 1434.960938 1393.898438 1391.523438 C 1393.898438 1348.085938 1342.058594 1315.324219 1273.300781 1315.324219 Z M 1273.300781 1424.183594 C 1227.167969 1424.183594 1196.558594 1404.527344 1196.558594 1391.523438 C 1196.558594 1378.523438 1227.167969 1358.867188 1273.300781 1358.867188 C 1319.4375 1358.867188 1350.046875 1378.523438 1350.046875 1391.523438 C 1350.046875 1404.527344 1319.4375 1424.183594 1273.300781 1424.183594 Z M 1273.300781 1424.183594 " fill-opacity="1" fill-rule="nonzero"/></g><path fill="#1676bb" d="M 728.929688 1246.671875 L 1112.714844 1364.863281 C 1116.828125 1350.652344 1124.210938 1337.554688 1134.296875 1325.921875 L 750.507812 1207.726562 C 746.398438 1221.9375 739.015625 1235.035156 728.929688 1246.671875 Z M 728.929688 1246.671875 " fill-opacity="1" fill-rule="nonzero"/><path fill="#1676bb" d="M 589.925781 1104.863281 C 521.167969 1104.863281 469.328125 1137.628906 469.328125 1181.066406 C 469.328125 1224.503906 521.167969 1257.269531 589.925781 1257.269531 C 658.679688 1257.269531 710.519531 1224.503906 710.519531 1181.066406 C 710.519531 1137.628906 658.679688 1104.863281 589.925781 1104.863281 Z M 589.925781 1213.722656 C 543.789062 1213.722656 513.179688 1194.066406 513.179688 1181.066406 C 513.179688 1168.066406 543.789062 1148.410156 589.925781 1148.410156 C 636.058594 1148.410156 666.667969 1168.066406 666.667969 1181.066406 C 666.667969 1194.066406 636.058594 1213.722656 589.925781 1213.722656 Z M 589.925781 1213.722656 " fill-opacity="1" fill-rule="nonzero"/><path fill="#1676bb" d="M 495.292969 525.792969 C 495.558594 522.507812 495.992188 519.171875 496.84375 515.769531 L 506.664062 476.589844 C 453.136719 490.714844 412.679688 513.359375 412.679688 548.320312 C 412.679688 621.214844 588.414062 640.660156 692.246094 640.660156 C 796.074219 640.660156 971.808594 621.214844 971.808594 548.320312 C 971.808594 513.359375 931.347656 490.714844 877.820312 476.589844 L 887.636719 515.769531 C 888.550781 519.410156 888.804688 522.632812 888.808594 525.675781 C 912.210938 533.710938 925.703125 542.070312 927.882812 548.320312 C 922.023438 565.105469 834.757812 597.117188 692.246094 597.117188 C 548.703125 597.117188 461.210938 564.636719 456.488281 548.679688 C 458.257812 542.421875 471.660156 533.945312 495.292969 525.792969 Z M 495.292969 525.792969 " fill-opacity="1" fill-rule="nonzero"/><path fill="#1676bb" d="M 578.113281 440.195312 C 568.039062 440.195312 559.269531 447.007812 556.839844 456.714844 L 539.410156 526.28125 C 537.773438 532.777344 539.25 539.667969 543.402344 544.9375 C 547.570312 550.222656 553.9375 553.304688 560.683594 553.304688 L 823.804688 553.304688 C 830.550781 553.304688 836.921875 550.222656 841.085938 544.9375 C 845.238281 539.667969 846.714844 532.777344 845.078125 526.28125 L 827.648438 456.714844 C 825.21875 447.007812 816.449219 440.195312 806.375 440.195312 L 794.347656 440.195312 C 777.683594 418.222656 769.222656 384.039062 769.222656 338.285156 C 769.222656 285.707031 780.367188 248.382812 802.339844 227.34375 C 808.785156 221.1875 810.808594 211.757812 807.457031 203.53125 C 804.117188 195.292969 796.066406 189.902344 787.125 189.902344 L 714.171875 189.902344 L 714.171875 168.660156 L 745.003906 168.660156 C 757.113281 168.660156 766.933594 158.914062 766.933594 146.890625 C 766.933594 134.867188 757.113281 125.117188 745.003906 125.117188 L 714.171875 125.117188 L 714.171875 96.097656 C 714.171875 84.074219 704.351562 74.324219 692.246094 74.324219 C 680.136719 74.324219 670.316406 84.074219 670.316406 96.097656 L 670.316406 125.117188 L 639.484375 125.117188 C 627.375 125.117188 617.558594 134.867188 617.558594 146.890625 C 617.558594 158.914062 627.375 168.660156 639.484375 168.660156 L 670.316406 168.660156 L 670.316406 189.902344 L 597.363281 189.902344 C 588.425781 189.902344 580.375 195.292969 577.035156 203.53125 C 573.683594 211.757812 575.707031 221.1875 582.152344 227.34375 C 604.121094 248.382812 615.265625 285.707031 615.265625 338.285156 C 615.265625 384.039062 606.808594 418.222656 590.140625 440.195312 Z M 745.015625 233.445312 C 731.835938 260.714844 725.371094 295.414062 725.371094 338.285156 C 725.371094 379.667969 731.457031 413.375 743.726562 440.195312 L 640.761719 440.195312 C 653.03125 413.375 659.121094 379.667969 659.121094 338.285156 C 659.121094 295.414062 652.652344 260.714844 639.472656 233.445312 Z M 789.234375 483.738281 L 795.753906 509.761719 L 588.734375 509.761719 L 595.253906 483.738281 Z M 789.234375 483.738281 " fill-opacity="1" fill-rule="nonzero"/><path fill="#1676bb" d="M 240.949219 1042.972656 C 234.300781 1032.9375 220.671875 1030.160156 210.574219 1036.796875 L 176.96875 1058.816406 L 143.359375 1036.796875 C 133.265625 1030.160156 119.644531 1032.9375 112.984375 1042.972656 C 106.316406 1053.007812 109.097656 1066.507812 119.207031 1073.132812 L 137.164062 1084.898438 L 119.207031 1096.667969 C 109.097656 1103.292969 106.316406 1116.792969 112.984375 1126.828125 C 117.195312 1133.175781 124.183594 1136.609375 131.304688 1136.609375 C 135.449219 1136.609375 139.644531 1135.449219 143.359375 1133.003906 L 176.96875 1110.980469 L 210.574219 1133.003906 C 214.289062 1135.449219 218.488281 1136.609375 222.628906 1136.609375 C 229.75 1136.609375 236.742188 1133.175781 240.949219 1126.828125 C 247.617188 1116.792969 244.835938 1103.292969 234.730469 1096.667969 L 216.769531 1084.898438 L 234.730469 1073.132812 C 244.835938 1066.507812 247.617188 1053.007812 240.949219 1042.972656 Z M 240.949219 1042.972656 " fill-opacity="1" fill-rule="nonzero"/><path fill="#1676bb" d="M 1335.453125 1070.1875 C 1328.78125 1060.152344 1315.195312 1057.367188 1305.078125 1064.011719 L 1271.476562 1086.03125 L 1237.875 1064.011719 C 1227.777344 1057.367188 1214.160156 1060.152344 1207.5 1070.1875 C 1200.832031 1080.222656 1203.613281 1093.722656 1213.722656 1100.347656 L 1231.675781 1112.113281 L 1213.722656 1123.882812 C 1203.613281 1130.507812 1200.832031 1144.007812 1207.5 1154.042969 C 1211.71875 1160.390625 1218.699219 1163.824219 1225.820312 1163.824219 C 1229.960938 1163.824219 1234.160156 1162.664062 1237.875 1160.21875 L 1271.476562 1138.199219 L 1305.078125 1160.21875 C 1308.792969 1162.664062 1312.992188 1163.824219 1317.132812 1163.824219 C 1324.253906 1163.824219 1331.246094 1160.390625 1335.453125 1154.042969 C 1342.125 1144.007812 1339.339844 1130.507812 1329.234375 1123.882812 L 1311.277344 1112.113281 L 1329.234375 1100.347656 C 1339.339844 1093.722656 1342.125 1080.222656 1335.453125 1070.1875 Z M 1335.453125 1070.1875 " fill-opacity="1" fill-rule="nonzero"/><path fill="#1676bb" d="M 1064.109375 640.191406 C 1057.449219 630.15625 1043.84375 627.382812 1033.734375 634.015625 L 1000.132812 656.035156 L 966.53125 634.015625 C 956.445312 627.382812 942.816406 630.15625 936.15625 640.191406 C 929.488281 650.226562 932.269531 663.726562 942.378906 670.351562 L 960.335938 682.121094 L 942.378906 693.886719 C 932.269531 700.511719 929.488281 714.011719 936.15625 724.046875 C 940.375 730.394531 947.355469 733.828125 954.476562 733.828125 C 958.621094 733.828125 962.816406 732.667969 966.53125 730.222656 L 1000.132812 708.203125 L 1033.734375 730.222656 C 1037.453125 732.667969 1041.648438 733.828125 1045.792969 733.828125 C 1052.910156 733.828125 1059.902344 730.394531 1064.109375 724.046875 C 1070.78125 714.011719 1067.996094 700.511719 1057.890625 693.886719 L 1039.933594 682.121094 L 1057.890625 670.351562 C 1067.996094 663.726562 1070.78125 650.226562 1064.109375 640.191406 Z M 1064.109375 640.191406 " fill-opacity="1" fill-rule="nonzero"/><path fill="#1676bb" d="M 999.265625 990.046875 C 985.296875 981.34375 973.519531 970.925781 964.371094 959.136719 L 706.449219 1095.027344 C 719.453125 1104.355469 730.078125 1115.386719 738.078125 1127.65625 Z M 999.265625 990.046875 " fill-opacity="1" fill-rule="nonzero"/><path fill="#1676bb" d="M 943.164062 904.339844 C 943.027344 902.234375 942.753906 900.167969 942.753906 898.03125 C 942.753906 885.078125 945.292969 872.730469 950.035156 861.210938 L 442.367188 818.316406 C 442.542969 820.6875 442.828125 823.035156 442.828125 825.453125 C 442.828125 838.113281 440.375 850.183594 435.820312 861.464844 Z M 943.164062 904.339844 " fill-opacity="1" fill-rule="nonzero"/><path fill="#1676bb" d="M 532.03125 670.1875 L 393.910156 738.761719 C 407.132812 748.085938 417.992188 759.117188 426.148438 771.445312 L 609.046875 680.640625 C 584.695312 678.546875 558.226562 675.253906 532.03125 670.1875 Z M 532.03125 670.1875 " fill-opacity="1" fill-rule="nonzero"/></svg>