<svg xmlns="http://www.w3.org/2000/svg" xmlns:xlink="http://www.w3.org/1999/xlink" width="2000" zoomAndPan="magnify" viewBox="0 0 1500 1499.999933" height="2000" preserveAspectRatio="xMidYMid meet" version="1.0"><defs><clipPath id="96f933fe96"><path d="M 668 458 L 1396 458 L 1396 1383.503906 L 668 1383.503906 Z M 668 458 " clip-rule="nonzero"/></clipPath><clipPath id="af781b8748"><path d="M 103.800781 458 L 695 458 L 695 964 L 103.800781 964 Z M 103.800781 458 " clip-rule="nonzero"/></clipPath><clipPath id="c679e300a7"><path d="M 502 38.753906 L 1009 38.753906 L 1009 706 L 502 706 Z M 502 38.753906 " clip-rule="nonzero"/></clipPath></defs><g clip-path="url(#96f933fe96)"><path fill="#1676bb" d="M 1390.429688 697.523438 L 1149.582031 463.722656 C 1144.097656 458.398438 1136.105469 456.988281 1129.210938 459.964844 C 1122.160156 462.941406 1117.773438 469.679688 1117.773438 477.359375 L 1117.773438 621.207031 C 1001.96875 629.828125 893.21875 679.816406 810.796875 762.238281 C 718.96875 854.066406 668.355469 976.136719 668.355469 1105.882812 L 668.355469 1364.441406 C 668.355469 1374.78125 676.816406 1383.246094 687.160156 1383.246094 C 697.5 1383.246094 705.964844 1374.78125 705.964844 1364.441406 L 705.964844 1105.882812 C 705.964844 986.164062 752.660156 873.496094 837.277344 788.722656 C 917.507812 708.492188 1024.066406 661.949219 1137.203125 657.71875 C 1147.390625 657.40625 1155.378906 649.101562 1155.378906 638.914062 L 1155.378906 521.703125 L 1350.472656 711 L 1155.222656 900.292969 L 1155.222656 784.019531 C 1155.222656 778.851562 1153.03125 773.835938 1149.269531 770.386719 C 1145.507812 766.941406 1140.492188 765.058594 1135.324219 765.214844 C 1048.355469 769.917969 967.339844 807.527344 907.011719 870.988281 C 846.523438 934.609375 813.144531 1017.976562 813.144531 1105.726562 L 813.144531 1364.285156 C 813.144531 1374.625 821.609375 1383.085938 831.949219 1383.085938 C 842.292969 1383.085938 850.753906 1374.625 850.753906 1364.285156 L 850.753906 1105.726562 C 850.753906 951.0625 964.988281 822.726562 1117.617188 804.546875 L 1117.617188 944.796875 C 1117.617188 952.316406 1122.160156 959.210938 1129.054688 962.1875 C 1135.949219 965.167969 1144.097656 963.601562 1149.425781 958.429688 L 1390.273438 724.632812 C 1393.878906 721.183594 1395.914062 716.167969 1395.914062 711.15625 C 1396.074219 705.984375 1394.035156 701.125 1390.429688 697.523438 Z M 1390.429688 697.523438 " fill-opacity="1" fill-rule="nonzero"/></g><g clip-path="url(#af781b8748)"><path fill="#1676bb" d="M 362.789062 657.71875 C 475.925781 661.949219 582.484375 708.492188 662.714844 788.722656 C 670.078125 796.085938 681.988281 796.085938 689.351562 788.722656 C 696.71875 781.355469 696.71875 769.449219 689.351562 762.082031 C 606.929688 679.65625 498.175781 629.671875 382.375 621.050781 L 382.375 477.199219 C 382.375 469.679688 377.832031 462.785156 370.9375 459.808594 C 364.042969 456.828125 355.894531 458.398438 350.566406 463.566406 L 109.558594 697.523438 C 105.957031 700.96875 103.917969 705.984375 103.917969 711 C 103.917969 716.011719 105.957031 721.027344 109.558594 724.472656 L 350.410156 958.273438 C 354.011719 961.71875 358.558594 963.601562 363.570312 963.601562 C 366.078125 963.601562 368.585938 963.128906 370.9375 962.191406 C 377.988281 959.210938 382.375 952.472656 382.375 944.796875 L 382.375 804.546875 C 476.238281 815.988281 560.386719 871.304688 608.339844 953.882812 C 610.84375 958.273438 614.917969 961.40625 619.777344 962.660156 C 624.636719 963.914062 629.648438 963.285156 634.039062 960.777344 C 642.96875 955.609375 646.101562 944.011719 640.773438 935.082031 C 582.640625 835.105469 479.375 771.640625 364.511719 765.375 C 359.339844 765.058594 354.328125 766.941406 350.566406 770.542969 C 346.804688 774.148438 344.609375 779.007812 344.609375 784.175781 L 344.609375 900.449219 L 149.675781 711 L 344.769531 521.703125 L 344.769531 638.914062 C 344.609375 649.101562 352.601562 657.25 362.789062 657.71875 Z M 362.789062 657.71875 " fill-opacity="1" fill-rule="nonzero"/></g><g clip-path="url(#c679e300a7)"><path fill="#1676bb" d="M 521.683594 317.050781 L 668.199219 317.050781 L 668.199219 687.023438 C 668.199219 697.367188 676.660156 705.828125 687.003906 705.828125 C 697.34375 705.828125 705.804688 697.367188 705.804688 687.023438 L 705.804688 298.25 C 705.804688 287.90625 697.34375 279.445312 687.003906 279.445312 L 566.1875 279.445312 L 755.480469 84.351562 L 944.773438 279.445312 L 822.863281 279.445312 C 812.519531 279.445312 804.058594 287.90625 804.058594 298.25 L 804.058594 687.023438 C 804.058594 697.367188 812.519531 705.828125 822.863281 705.828125 C 833.203125 705.828125 841.664062 697.367188 841.664062 687.023438 L 841.664062 317.050781 L 989.277344 317.050781 C 996.800781 317.050781 1003.695312 312.507812 1006.671875 305.613281 C 1009.648438 298.71875 1008.082031 290.570312 1002.910156 285.242188 L 768.957031 44.394531 C 765.507812 40.789062 760.496094 38.753906 755.480469 38.753906 C 750.464844 38.753906 745.453125 40.789062 742.003906 44.394531 L 508.207031 285.242188 C 502.878906 290.726562 501.46875 298.71875 504.445312 305.613281 C 507.421875 312.664062 514.160156 317.050781 521.683594 317.050781 Z M 521.683594 317.050781 " fill-opacity="1" fill-rule="nonzero"/></g></svg>