<svg xmlns="http://www.w3.org/2000/svg" xmlns:xlink="http://www.w3.org/1999/xlink" width="2000" zoomAndPan="magnify" viewBox="0 0 1500 1499.999933" height="2000" preserveAspectRatio="xMidYMid meet" version="1.0"><path fill="#1676bb" d="M 1349.992188 746.042969 C 1349.992188 737.519531 1349.992188 728.996094 1349.042969 720.472656 C 1342.414062 629.558594 1299.796875 547.164062 1230.664062 487.5 C 1226.875 483.714844 1222.140625 480.871094 1218.351562 477.085938 L 1236.347656 453.40625 L 1253.390625 467.613281 C 1257.179688 470.453125 1260.96875 472.347656 1265.703125 472.347656 C 1271.386719 472.347656 1276.121094 470.453125 1279.910156 465.71875 C 1286.539062 458.144531 1285.59375 445.832031 1277.070312 439.203125 L 1220.246094 391.851562 C 1212.667969 385.222656 1200.359375 386.167969 1193.730469 394.691406 C 1187.101562 403.214844 1188.046875 414.578125 1196.570312 421.207031 L 1207.933594 430.679688 L 1188.046875 457.195312 C 1151.113281 434.46875 1109.441406 419.316406 1066.824219 411.738281 L 1066.824219 368.175781 C 1082.925781 364.386719 1095.238281 349.234375 1095.238281 331.238281 L 1095.238281 312.300781 C 1095.238281 291.464844 1078.191406 274.417969 1057.355469 274.417969 L 961.703125 274.417969 C 940.871094 274.417969 923.824219 291.464844 923.824219 312.300781 L 923.824219 331.238281 C 923.824219 349.234375 936.132812 363.4375 952.234375 368.175781 L 952.234375 412.683594 C 903.933594 421.207031 859.421875 439.203125 819.648438 464.773438 L 801.65625 440.148438 L 813.019531 430.679688 C 820.59375 424.050781 822.488281 411.738281 815.859375 404.160156 C 809.230469 396.585938 796.917969 394.691406 789.34375 401.320312 L 732.519531 448.671875 C 724.945312 455.300781 723.050781 467.613281 729.679688 475.191406 C 733.46875 479.925781 739.148438 481.820312 743.886719 481.820312 C 748.621094 481.820312 752.40625 479.925781 756.195312 477.085938 L 773.242188 462.878906 L 790.289062 485.609375 C 715.472656 549.058594 668.121094 642.816406 668.121094 746.042969 C 668.121094 746.042969 668.121094 746.992188 668.121094 746.992188 C 668.121094 746.992188 668.121094 747.9375 668.121094 747.9375 C 668.121094 756.460938 668.121094 764.984375 669.070312 773.507812 C 675.699219 864.421875 718.316406 946.816406 787.449219 1006.480469 C 849.953125 1059.515625 927.609375 1088.871094 1009.054688 1088.871094 C 1017.578125 1088.871094 1027.050781 1088.871094 1035.574219 1087.925781 C 1126.488281 1081.296875 1208.882812 1038.679688 1268.546875 969.542969 C 1321.578125 907.039062 1349.992188 829.382812 1349.992188 748.882812 C 1349.992188 746.992188 1349.992188 746.992188 1349.992188 746.042969 C 1349.992188 746.992188 1349.992188 746.042969 1349.992188 746.042969 Z M 990.117188 368.175781 L 1027.996094 368.175781 L 1027.996094 406.054688 L 990.117188 406.054688 Z M 961.703125 311.351562 L 1056.40625 311.351562 L 1056.40625 330.292969 L 961.703125 330.292969 Z M 1032.730469 1049.097656 C 1030.839844 1049.097656 1029.890625 1049.097656 1027.996094 1049.097656 L 1027.996094 1012.160156 C 1027.996094 1001.746094 1019.472656 993.222656 1009.054688 993.222656 C 998.640625 993.222656 990.117188 1001.746094 990.117188 1012.160156 L 990.117188 1049.097656 C 924.769531 1045.308594 862.265625 1020.683594 812.070312 977.121094 C 750.515625 925.035156 713.578125 851.164062 706.949219 770.667969 C 706.949219 768.773438 706.949219 767.824219 706.949219 765.929688 L 743.886719 765.929688 C 754.300781 765.929688 762.824219 757.40625 762.824219 746.992188 C 762.824219 736.574219 754.300781 728.050781 743.886719 728.050781 L 706.949219 728.050781 C 716.421875 579.363281 833.855469 456.25 986.328125 444.882812 C 988.222656 444.882812 989.167969 444.882812 991.0625 444.882812 L 991.0625 481.820312 C 991.0625 492.238281 999.585938 500.761719 1010.003906 500.761719 C 1020.421875 500.761719 1028.945312 492.238281 1028.945312 481.820312 L 1028.945312 444.882812 C 1094.289062 448.671875 1156.792969 473.296875 1206.988281 516.859375 C 1268.546875 569.894531 1305.480469 642.816406 1312.109375 723.316406 C 1312.109375 725.207031 1312.109375 726.15625 1312.109375 728.050781 L 1274.226562 728.050781 C 1263.808594 728.050781 1255.285156 736.574219 1255.285156 746.992188 C 1255.285156 757.40625 1263.808594 765.929688 1274.226562 765.929688 L 1311.160156 765.929688 C 1302.636719 914.617188 1185.207031 1037.730469 1032.730469 1049.097656 Z M 1032.730469 1049.097656 " fill-opacity="1" fill-rule="nonzero"/><path fill="#1676bb" d="M 893.085938 508.257812 C 893.398438 508.796875 893.679688 509.347656 893.9375 509.914062 C 894.191406 510.476562 894.417969 511.054688 894.617188 511.640625 C 894.816406 512.230469 894.988281 512.824219 895.128906 513.429688 C 895.269531 514.03125 895.382812 514.640625 895.460938 515.257812 C 895.542969 515.871094 895.59375 516.488281 895.613281 517.109375 C 895.632812 517.730469 895.625 518.347656 895.582031 518.96875 C 895.542969 519.585938 895.472656 520.203125 895.371094 520.816406 C 895.269531 521.425781 895.140625 522.03125 894.980469 522.632812 C 894.816406 523.230469 894.628906 523.820312 894.410156 524.402344 C 894.191406 524.980469 893.945312 525.550781 893.671875 526.105469 C 893.394531 526.664062 893.09375 527.203125 892.769531 527.730469 C 892.441406 528.257812 892.085938 528.769531 891.710938 529.261719 C 891.332031 529.753906 890.929688 530.226562 890.507812 530.675781 C 890.082031 531.128906 889.636719 531.5625 889.171875 531.96875 C 888.707031 532.378906 888.21875 532.765625 887.714844 533.125 C 887.210938 533.488281 886.691406 533.824219 886.152344 534.132812 C 885.617188 534.441406 885.066406 534.726562 884.5 534.980469 C 883.933594 535.238281 883.359375 535.464844 882.769531 535.664062 C 882.183594 535.863281 881.589844 536.035156 880.984375 536.175781 C 880.378906 536.316406 879.769531 536.425781 879.15625 536.507812 C 878.539062 536.589844 877.921875 536.640625 877.304688 536.660156 C 876.683594 536.679688 876.0625 536.671875 875.445312 536.628906 C 874.824219 536.589844 874.210938 536.519531 873.597656 536.417969 C 872.984375 536.316406 872.378906 536.1875 871.78125 536.023438 C 871.183594 535.863281 870.59375 535.675781 870.011719 535.457031 C 869.429688 535.238281 868.863281 534.992188 868.304688 534.71875 C 867.75 534.441406 867.207031 534.140625 866.679688 533.8125 C 866.15625 533.488281 865.644531 533.132812 865.152344 532.757812 C 864.660156 532.378906 864.1875 531.976562 863.734375 531.554688 C 863.28125 531.128906 862.851562 530.683594 862.441406 530.21875 C 862.035156 529.75 861.648438 529.265625 861.289062 528.761719 C 860.925781 528.257812 860.589844 527.738281 860.28125 527.199219 C 859.96875 526.664062 859.6875 526.113281 859.429688 525.546875 C 859.175781 524.980469 858.945312 524.40625 858.746094 523.816406 C 858.546875 523.230469 858.378906 522.632812 858.238281 522.03125 C 858.097656 521.425781 857.984375 520.816406 857.90625 520.203125 C 857.824219 519.585938 857.773438 518.96875 857.753906 518.347656 C 857.730469 517.730469 857.742188 517.109375 857.78125 516.492188 C 857.824219 515.871094 857.894531 515.257812 857.996094 514.644531 C 858.097656 514.03125 858.226562 513.425781 858.386719 512.828125 C 858.546875 512.226562 858.738281 511.636719 858.957031 511.058594 C 859.175781 510.476562 859.421875 509.910156 859.695312 509.351562 C 859.96875 508.796875 860.269531 508.253906 860.597656 507.726562 C 860.925781 507.199219 861.277344 506.691406 861.65625 506.199219 C 862.035156 505.707031 862.433594 505.234375 862.859375 504.78125 C 863.28125 504.328125 863.726562 503.898438 864.195312 503.488281 C 864.660156 503.082031 865.144531 502.695312 865.652344 502.332031 C 866.15625 501.972656 866.675781 501.636719 867.210938 501.328125 C 867.75 501.015625 868.300781 500.734375 868.867188 500.476562 C 869.429688 500.222656 870.007812 499.992188 870.59375 499.792969 C 871.183594 499.59375 871.777344 499.425781 872.382812 499.285156 C 872.984375 499.144531 873.597656 499.03125 874.210938 498.949219 C 874.824219 498.871094 875.445312 498.820312 876.0625 498.800781 C 876.683594 498.777344 877.304688 498.789062 877.921875 498.828125 C 878.542969 498.871094 879.15625 498.941406 879.769531 499.042969 C 880.378906 499.144531 880.984375 499.273438 881.585938 499.433594 C 882.183594 499.59375 882.773438 499.785156 883.355469 500.003906 C 883.9375 500.222656 884.503906 500.46875 885.058594 500.742188 C 885.617188 501.015625 886.160156 501.316406 886.683594 501.644531 C 887.210938 501.972656 887.722656 502.324219 888.214844 502.703125 C 888.707031 503.082031 889.179688 503.480469 889.632812 503.90625 C 890.082031 504.328125 890.515625 504.773438 890.921875 505.242188 C 891.332031 505.707031 891.71875 506.191406 892.078125 506.695312 C 892.441406 507.203125 892.777344 507.722656 893.085938 508.257812 Z M 893.085938 508.257812 " fill-opacity="1" fill-rule="nonzero"/><path fill="#1676bb" d="M 789.09375 597.609375 C 789.632812 597.917969 790.152344 598.253906 790.65625 598.617188 C 791.160156 598.976562 791.644531 599.363281 792.113281 599.773438 C 792.578125 600.179688 793.023438 600.613281 793.449219 601.066406 C 793.871094 601.515625 794.273438 601.988281 794.652344 602.480469 C 795.027344 602.972656 795.382812 603.484375 795.707031 604.011719 C 796.035156 604.539062 796.335938 605.078125 796.613281 605.636719 C 796.886719 606.191406 797.132812 606.761719 797.351562 607.339844 C 797.570312 607.921875 797.757812 608.511719 797.917969 609.109375 C 798.078125 609.710938 798.210938 610.316406 798.3125 610.925781 C 798.414062 611.539062 798.484375 612.15625 798.523438 612.773438 C 798.566406 613.394531 798.574219 614.011719 798.554688 614.632812 C 798.535156 615.253906 798.484375 615.871094 798.402344 616.484375 C 798.320312 617.101562 798.210938 617.710938 798.070312 618.3125 C 797.929688 618.917969 797.757812 619.511719 797.558594 620.101562 C 797.359375 620.6875 797.132812 621.265625 796.875 621.828125 C 796.621094 622.394531 796.335938 622.945312 796.027344 623.484375 C 795.71875 624.019531 795.382812 624.539062 795.019531 625.046875 C 794.660156 625.550781 794.273438 626.035156 793.863281 626.5 C 793.457031 626.96875 793.023438 627.414062 792.570312 627.835938 C 792.117188 628.261719 791.648438 628.660156 791.152344 629.039062 C 790.664062 629.417969 790.152344 629.769531 789.625 630.097656 C 789.097656 630.425781 788.558594 630.726562 788 631 C 787.445312 631.273438 786.875 631.519531 786.296875 631.738281 C 785.714844 631.957031 785.125 632.148438 784.527344 632.308594 C 783.925781 632.46875 783.320312 632.597656 782.710938 632.699219 C 782.097656 632.800781 781.480469 632.871094 780.863281 632.914062 C 780.242188 632.953125 779.625 632.964844 779.003906 632.941406 C 778.382812 632.921875 777.765625 632.871094 777.152344 632.792969 C 776.535156 632.710938 775.925781 632.597656 775.324219 632.457031 C 774.71875 632.316406 774.121094 632.148438 773.535156 631.949219 C 772.949219 631.75 772.371094 631.519531 771.808594 631.265625 C 771.242188 631.007812 770.691406 630.726562 770.152344 630.414062 C 769.617188 630.105469 769.09375 629.769531 768.589844 629.410156 C 768.085938 629.046875 767.601562 628.660156 767.136719 628.253906 C 766.667969 627.84375 766.222656 627.414062 765.800781 626.960938 C 765.375 626.507812 764.976562 626.035156 764.597656 625.542969 C 764.21875 625.050781 763.867188 624.542969 763.539062 624.015625 C 763.210938 623.488281 762.910156 622.945312 762.636719 622.390625 C 762.363281 621.832031 762.117188 621.265625 761.898438 620.683594 C 761.679688 620.105469 761.488281 619.515625 761.328125 618.914062 C 761.167969 618.316406 761.039062 617.710938 760.9375 617.097656 C 760.835938 616.484375 760.765625 615.871094 760.722656 615.25 C 760.683594 614.632812 760.671875 614.011719 760.691406 613.394531 C 760.714844 612.773438 760.765625 612.15625 760.84375 611.539062 C 760.925781 610.925781 761.039062 610.316406 761.179688 609.710938 C 761.320312 609.105469 761.488281 608.511719 761.6875 607.925781 C 761.886719 607.335938 762.117188 606.761719 762.371094 606.195312 C 762.628906 605.628906 762.910156 605.078125 763.222656 604.542969 C 763.53125 604.003906 763.867188 603.484375 764.226562 602.980469 C 764.589844 602.476562 764.972656 601.992188 765.382812 601.523438 C 765.792969 601.058594 766.222656 600.613281 766.675781 600.1875 C 767.128906 599.765625 767.601562 599.363281 768.09375 598.984375 C 768.585938 598.609375 769.09375 598.253906 769.621094 597.929688 C 770.148438 597.601562 770.691406 597.300781 771.246094 597.023438 C 771.804688 596.75 772.371094 596.503906 772.953125 596.285156 C 773.53125 596.066406 774.121094 595.878906 774.722656 595.71875 C 775.320312 595.554688 775.925781 595.425781 776.539062 595.324219 C 777.152344 595.222656 777.765625 595.152344 778.386719 595.113281 C 779.003906 595.070312 779.625 595.0625 780.242188 595.082031 C 780.863281 595.101562 781.480469 595.152344 782.097656 595.234375 C 782.710938 595.316406 783.320312 595.425781 783.925781 595.566406 C 784.527344 595.707031 785.125 595.878906 785.710938 596.078125 C 786.300781 596.277344 786.875 596.503906 787.441406 596.761719 C 788.007812 597.015625 788.558594 597.300781 789.09375 597.609375 Z M 789.09375 597.609375 " fill-opacity="1" fill-rule="nonzero"/><path fill="#1676bb" d="M 796.199219 869.851562 C 796.507812 870.390625 796.789062 870.941406 797.046875 871.507812 C 797.304688 872.070312 797.53125 872.648438 797.730469 873.234375 C 797.929688 873.820312 798.097656 874.417969 798.242188 875.023438 C 798.382812 875.625 798.492188 876.234375 798.574219 876.851562 C 798.652344 877.464844 798.703125 878.082031 798.726562 878.703125 C 798.746094 879.324219 798.734375 879.941406 798.695312 880.5625 C 798.652344 881.179688 798.582031 881.796875 798.480469 882.410156 C 798.382812 883.019531 798.25 883.625 798.089844 884.226562 C 797.929688 884.824219 797.738281 885.414062 797.519531 885.996094 C 797.300781 886.574219 797.054688 887.144531 796.78125 887.699219 C 796.507812 888.257812 796.207031 888.796875 795.878906 889.324219 C 795.550781 889.851562 795.199219 890.359375 794.820312 890.851562 C 794.445312 891.34375 794.042969 891.816406 793.617188 892.269531 C 793.195312 892.722656 792.75 893.15625 792.28125 893.5625 C 791.816406 893.972656 791.332031 894.359375 790.828125 894.71875 C 790.324219 895.082031 789.800781 895.417969 789.265625 895.726562 C 788.726562 896.035156 788.175781 896.320312 787.613281 896.574219 C 787.046875 896.832031 786.46875 897.058594 785.882812 897.257812 C 785.296875 897.457031 784.699219 897.628906 784.09375 897.769531 C 783.492188 897.910156 782.882812 898.019531 782.265625 898.101562 C 781.652344 898.183594 781.035156 898.234375 780.414062 898.253906 C 779.792969 898.273438 779.175781 898.265625 778.554688 898.222656 C 777.9375 898.183594 777.320312 898.113281 776.710938 898.011719 C 776.097656 897.910156 775.492188 897.777344 774.890625 897.617188 C 774.292969 897.457031 773.703125 897.269531 773.121094 897.050781 C 772.542969 896.832031 771.972656 896.585938 771.417969 896.308594 C 770.859375 896.035156 770.320312 895.734375 769.792969 895.40625 C 769.265625 895.078125 768.757812 894.726562 768.265625 894.351562 C 767.773438 893.972656 767.300781 893.570312 766.847656 893.148438 C 766.394531 892.722656 765.960938 892.277344 765.554688 891.8125 C 765.144531 891.34375 764.761719 890.859375 764.398438 890.355469 C 764.039062 889.851562 763.703125 889.332031 763.390625 888.792969 C 763.082031 888.257812 762.796875 887.707031 762.542969 887.140625 C 762.285156 886.574219 762.058594 886 761.859375 885.410156 C 761.660156 884.824219 761.488281 884.226562 761.347656 883.625 C 761.207031 883.019531 761.097656 882.410156 761.015625 881.796875 C 760.933594 881.179688 760.882812 880.5625 760.863281 879.941406 C 760.84375 879.324219 760.851562 878.703125 760.894531 878.085938 C 760.933594 877.464844 761.003906 876.851562 761.105469 876.238281 C 761.207031 875.625 761.339844 875.019531 761.5 874.421875 C 761.660156 873.820312 761.847656 873.230469 762.066406 872.652344 C 762.285156 872.070312 762.53125 871.503906 762.808594 870.945312 C 763.082031 870.390625 763.382812 869.847656 763.710938 869.320312 C 764.039062 868.792969 764.390625 868.285156 764.765625 867.792969 C 765.144531 867.300781 765.546875 866.828125 765.96875 866.375 C 766.394531 865.921875 766.839844 865.492188 767.304688 865.082031 C 767.773438 864.671875 768.257812 864.289062 768.761719 863.925781 C 769.265625 863.566406 769.785156 863.230469 770.324219 862.917969 C 770.859375 862.609375 771.414062 862.328125 771.976562 862.070312 C 772.542969 861.816406 773.117188 861.585938 773.707031 861.386719 C 774.292969 861.1875 774.890625 861.019531 775.492188 860.878906 C 776.097656 860.734375 776.707031 860.625 777.320312 860.542969 C 777.9375 860.464844 778.554688 860.414062 779.175781 860.390625 C 779.792969 860.371094 780.414062 860.382812 781.03125 860.421875 C 781.652344 860.464844 782.269531 860.535156 782.878906 860.636719 C 783.492188 860.734375 784.097656 860.867188 784.695312 861.027344 C 785.296875 861.1875 785.886719 861.378906 786.464844 861.597656 C 787.046875 861.816406 787.617188 862.0625 788.171875 862.335938 C 788.726562 862.609375 789.269531 862.910156 789.796875 863.238281 C 790.324219 863.566406 790.832031 863.917969 791.324219 864.296875 C 791.816406 864.675781 792.289062 865.074219 792.742188 865.5 C 793.195312 865.921875 793.625 866.367188 794.035156 866.835938 C 794.445312 867.300781 794.828125 867.785156 795.191406 868.289062 C 795.550781 868.792969 795.886719 869.316406 796.199219 869.851562 Z M 796.199219 869.851562 " fill-opacity="1" fill-rule="nonzero"/><path fill="#1676bb" d="M 885.515625 960.015625 C 886.050781 960.328125 886.574219 960.664062 887.078125 961.023438 C 887.582031 961.386719 888.066406 961.769531 888.53125 962.179688 C 889 962.589844 889.445312 963.019531 889.867188 963.472656 C 890.292969 963.925781 890.691406 964.398438 891.070312 964.890625 C 891.449219 965.382812 891.800781 965.890625 892.128906 966.417969 C 892.457031 966.945312 892.757812 967.488281 893.03125 968.042969 C 893.304688 968.597656 893.550781 969.167969 893.769531 969.75 C 893.988281 970.328125 894.179688 970.917969 894.339844 971.519531 C 894.5 972.117188 894.628906 972.722656 894.730469 973.335938 C 894.832031 973.945312 894.902344 974.5625 894.945312 975.183594 C 894.984375 975.800781 894.996094 976.421875 894.972656 977.039062 C 894.953125 977.660156 894.902344 978.277344 894.824219 978.894531 C 894.742188 979.507812 894.628906 980.117188 894.488281 980.722656 C 894.347656 981.324219 894.179688 981.921875 893.980469 982.507812 C 893.78125 983.097656 893.550781 983.671875 893.296875 984.238281 C 893.039062 984.800781 892.757812 985.355469 892.445312 985.890625 C 892.136719 986.429688 891.800781 986.949219 891.441406 987.453125 C 891.078125 987.957031 890.695312 988.441406 890.285156 988.910156 C 889.875 989.375 889.445312 989.820312 888.992188 990.246094 C 888.539062 990.667969 888.066406 991.070312 887.574219 991.445312 C 887.082031 991.824219 886.574219 992.175781 886.046875 992.503906 C 885.519531 992.832031 884.976562 993.132812 884.421875 993.40625 C 883.863281 993.683594 883.296875 993.929688 882.714844 994.148438 C 882.136719 994.367188 881.546875 994.554688 880.945312 994.714844 C 880.347656 994.875 879.742188 995.007812 879.128906 995.109375 C 878.515625 995.210938 877.902344 995.28125 877.28125 995.320312 C 876.664062 995.359375 876.042969 995.371094 875.425781 995.351562 C 874.804688 995.332031 874.1875 995.28125 873.570312 995.199219 C 872.957031 995.117188 872.347656 995.007812 871.742188 994.867188 C 871.140625 994.726562 870.542969 994.554688 869.957031 994.355469 C 869.367188 994.15625 868.792969 993.929688 868.226562 993.671875 C 867.660156 993.417969 867.109375 993.132812 866.574219 992.824219 C 866.035156 992.511719 865.515625 992.179688 865.011719 991.816406 C 864.507812 991.457031 864.023438 991.070312 863.554688 990.660156 C 863.089844 990.253906 862.644531 989.820312 862.21875 989.367188 C 861.796875 988.914062 861.394531 988.441406 861.015625 987.949219 C 860.640625 987.457031 860.285156 986.949219 859.960938 986.421875 C 859.632812 985.894531 859.332031 985.355469 859.054688 984.796875 C 858.78125 984.242188 858.535156 983.671875 858.316406 983.09375 C 858.097656 982.511719 857.910156 981.921875 857.75 981.324219 C 857.589844 980.722656 857.457031 980.117188 857.355469 979.507812 C 857.253906 978.894531 857.183594 978.277344 857.144531 977.660156 C 857.101562 977.039062 857.09375 976.421875 857.113281 975.800781 C 857.132812 975.179688 857.183594 974.5625 857.265625 973.949219 C 857.347656 973.332031 857.457031 972.722656 857.597656 972.121094 C 857.738281 971.515625 857.910156 970.917969 858.109375 970.332031 C 858.308594 969.746094 858.535156 969.167969 858.792969 968.601562 C 859.046875 968.039062 859.332031 967.488281 859.640625 966.949219 C 859.949219 966.414062 860.285156 965.890625 860.648438 965.386719 C 861.007812 964.882812 861.394531 964.398438 861.804688 963.933594 C 862.210938 963.464844 862.644531 963.019531 863.097656 962.597656 C 863.550781 962.171875 864.019531 961.769531 864.511719 961.394531 C 865.003906 961.015625 865.515625 960.664062 866.042969 960.335938 C 866.570312 960.007812 867.109375 959.707031 867.667969 959.433594 C 868.222656 959.160156 868.792969 958.914062 869.371094 958.695312 C 869.953125 958.476562 870.542969 958.285156 871.140625 958.125 C 871.742188 957.964844 872.347656 957.832031 872.957031 957.734375 C 873.570312 957.632812 874.1875 957.5625 874.804688 957.519531 C 875.425781 957.480469 876.042969 957.46875 876.664062 957.488281 C 877.285156 957.511719 877.902344 957.5625 878.515625 957.640625 C 879.132812 957.722656 879.742188 957.832031 880.34375 957.972656 C 880.949219 958.117188 881.542969 958.285156 882.132812 958.484375 C 882.71875 958.683594 883.296875 958.910156 883.859375 959.167969 C 884.425781 959.425781 884.976562 959.707031 885.515625 960.015625 Z M 885.515625 960.015625 " fill-opacity="1" fill-rule="nonzero"/><path fill="#1676bb" d="M 1157.789062 966.738281 C 1158.101562 967.273438 1158.382812 967.824219 1158.640625 968.390625 C 1158.894531 968.953125 1159.121094 969.53125 1159.320312 970.117188 C 1159.523438 970.707031 1159.691406 971.300781 1159.832031 971.90625 C 1159.972656 972.511719 1160.085938 973.121094 1160.164062 973.734375 C 1160.246094 974.351562 1160.296875 974.96875 1160.316406 975.585938 C 1160.335938 976.207031 1160.328125 976.828125 1160.285156 977.445312 C 1160.246094 978.066406 1160.175781 978.679688 1160.074219 979.292969 C 1159.972656 979.90625 1159.84375 980.511719 1159.683594 981.109375 C 1159.519531 981.707031 1159.332031 982.296875 1159.113281 982.878906 C 1158.894531 983.460938 1158.648438 984.027344 1158.375 984.585938 C 1158.101562 985.140625 1157.796875 985.683594 1157.472656 986.210938 C 1157.144531 986.734375 1156.789062 987.246094 1156.414062 987.738281 C 1156.035156 988.230469 1155.636719 988.703125 1155.210938 989.15625 C 1154.785156 989.609375 1154.339844 990.039062 1153.875 990.449219 C 1153.410156 990.855469 1152.921875 991.242188 1152.417969 991.601562 C 1151.914062 991.964844 1151.394531 992.300781 1150.855469 992.609375 C 1150.320312 992.921875 1149.769531 993.203125 1149.203125 993.460938 C 1148.636719 993.714844 1148.0625 993.941406 1147.476562 994.144531 C 1146.886719 994.34375 1146.292969 994.511719 1145.6875 994.652344 C 1145.082031 994.792969 1144.472656 994.90625 1143.859375 994.984375 C 1143.242188 995.066406 1142.625 995.117188 1142.007812 995.136719 C 1141.386719 995.15625 1140.765625 995.148438 1140.148438 995.105469 C 1139.527344 995.066406 1138.914062 994.996094 1138.300781 994.894531 C 1137.6875 994.792969 1137.082031 994.664062 1136.484375 994.503906 C 1135.886719 994.34375 1135.296875 994.152344 1134.714844 993.933594 C 1134.132812 993.714844 1133.566406 993.46875 1133.007812 993.195312 C 1132.453125 992.921875 1131.910156 992.621094 1131.382812 992.292969 C 1130.859375 991.964844 1130.347656 991.613281 1129.855469 991.234375 C 1129.363281 990.855469 1128.890625 990.457031 1128.4375 990.03125 C 1127.984375 989.605469 1127.554688 989.160156 1127.144531 988.695312 C 1126.738281 988.230469 1126.351562 987.742188 1125.992188 987.238281 C 1125.628906 986.734375 1125.292969 986.214844 1124.984375 985.675781 C 1124.671875 985.140625 1124.390625 984.589844 1124.132812 984.023438 C 1123.878906 983.460938 1123.648438 982.882812 1123.449219 982.296875 C 1123.25 981.707031 1123.082031 981.113281 1122.941406 980.507812 C 1122.800781 979.902344 1122.6875 979.292969 1122.609375 978.679688 C 1122.527344 978.0625 1122.476562 977.445312 1122.457031 976.828125 C 1122.433594 976.207031 1122.445312 975.585938 1122.484375 974.96875 C 1122.527344 974.347656 1122.597656 973.734375 1122.699219 973.121094 C 1122.800781 972.507812 1122.929688 971.902344 1123.089844 971.304688 C 1123.25 970.707031 1123.441406 970.117188 1123.660156 969.535156 C 1123.878906 968.953125 1124.125 968.386719 1124.398438 967.828125 C 1124.671875 967.273438 1124.972656 966.730469 1125.300781 966.207031 C 1125.628906 965.679688 1125.980469 965.167969 1126.359375 964.675781 C 1126.738281 964.183594 1127.136719 963.710938 1127.5625 963.257812 C 1127.988281 962.804688 1128.433594 962.375 1128.898438 961.964844 C 1129.363281 961.558594 1129.851562 961.171875 1130.355469 960.8125 C 1130.859375 960.449219 1131.378906 960.113281 1131.917969 959.804688 C 1132.453125 959.492188 1133.003906 959.210938 1133.570312 958.953125 C 1134.132812 958.699219 1134.710938 958.472656 1135.296875 958.273438 C 1135.886719 958.070312 1136.480469 957.902344 1137.085938 957.761719 C 1137.691406 957.621094 1138.300781 957.507812 1138.914062 957.429688 C 1139.527344 957.347656 1140.148438 957.296875 1140.765625 957.277344 C 1141.386719 957.257812 1142.007812 957.265625 1142.625 957.308594 C 1143.246094 957.347656 1143.859375 957.417969 1144.472656 957.519531 C 1145.082031 957.621094 1145.691406 957.75 1146.289062 957.910156 C 1146.886719 958.070312 1147.476562 958.261719 1148.058594 958.480469 C 1148.640625 958.699219 1149.207031 958.945312 1149.765625 959.21875 C 1150.320312 959.492188 1150.863281 959.792969 1151.386719 960.121094 C 1151.914062 960.449219 1152.425781 960.800781 1152.917969 961.179688 C 1153.410156 961.558594 1153.882812 961.957031 1154.335938 962.382812 C 1154.785156 962.808594 1155.21875 963.253906 1155.625 963.71875 C 1156.035156 964.183594 1156.421875 964.671875 1156.78125 965.175781 C 1157.144531 965.679688 1157.480469 966.199219 1157.789062 966.738281 Z M 1157.789062 966.738281 " fill-opacity="1" fill-rule="nonzero"/><path fill="#1676bb" d="M 1247.921875 863.597656 C 1248.460938 863.90625 1248.980469 864.242188 1249.484375 864.605469 C 1249.988281 864.964844 1250.472656 865.351562 1250.941406 865.761719 C 1251.40625 866.167969 1251.851562 866.601562 1252.277344 867.050781 C 1252.699219 867.503906 1253.101562 867.976562 1253.480469 868.46875 C 1253.855469 868.960938 1254.207031 869.472656 1254.535156 870 C 1254.863281 870.523438 1255.164062 871.066406 1255.4375 871.625 C 1255.714844 872.179688 1255.960938 872.746094 1256.179688 873.328125 C 1256.398438 873.910156 1256.585938 874.5 1256.746094 875.097656 C 1256.90625 875.695312 1257.039062 876.304688 1257.140625 876.914062 C 1257.242188 877.527344 1257.3125 878.140625 1257.351562 878.761719 C 1257.394531 879.378906 1257.402344 880 1257.382812 880.621094 C 1257.363281 881.238281 1257.3125 881.859375 1257.230469 882.472656 C 1257.148438 883.085938 1257.039062 883.695312 1256.898438 884.300781 C 1256.757812 884.90625 1256.585938 885.5 1256.386719 886.089844 C 1256.1875 886.675781 1255.960938 887.253906 1255.703125 887.816406 C 1255.449219 888.382812 1255.164062 888.933594 1254.855469 889.472656 C 1254.546875 890.007812 1254.210938 890.527344 1253.847656 891.03125 C 1253.488281 891.539062 1253.101562 892.023438 1252.691406 892.488281 C 1252.285156 892.957031 1251.851562 893.402344 1251.398438 893.824219 C 1250.945312 894.25 1250.472656 894.648438 1249.980469 895.027344 C 1249.488281 895.40625 1248.980469 895.757812 1248.453125 896.085938 C 1247.925781 896.414062 1247.386719 896.714844 1246.828125 896.988281 C 1246.273438 897.261719 1245.703125 897.507812 1245.125 897.726562 C 1244.542969 897.945312 1243.953125 898.136719 1243.355469 898.296875 C 1242.753906 898.457031 1242.148438 898.585938 1241.539062 898.6875 C 1240.925781 898.789062 1240.308594 898.859375 1239.691406 898.902344 C 1239.070312 898.941406 1238.453125 898.953125 1237.832031 898.929688 C 1237.210938 898.910156 1236.59375 898.859375 1235.980469 898.777344 C 1235.363281 898.699219 1234.753906 898.585938 1234.152344 898.445312 C 1233.546875 898.304688 1232.949219 898.136719 1232.363281 897.9375 C 1231.777344 897.738281 1231.199219 897.507812 1230.636719 897.253906 C 1230.070312 896.996094 1229.519531 896.714844 1228.980469 896.402344 C 1228.445312 896.09375 1227.921875 895.757812 1227.417969 895.394531 C 1226.914062 895.035156 1226.429688 894.648438 1225.964844 894.242188 C 1225.496094 893.832031 1225.050781 893.402344 1224.628906 892.949219 C 1224.203125 892.496094 1223.804688 892.023438 1223.425781 891.53125 C 1223.046875 891.039062 1222.695312 890.527344 1222.367188 890.003906 C 1222.039062 889.476562 1221.738281 888.933594 1221.464844 888.378906 C 1221.191406 887.820312 1220.945312 887.253906 1220.726562 886.671875 C 1220.507812 886.089844 1220.316406 885.5 1220.15625 884.902344 C 1219.996094 884.304688 1219.863281 883.699219 1219.765625 883.085938 C 1219.664062 882.472656 1219.59375 881.859375 1219.550781 881.238281 C 1219.511719 880.621094 1219.5 880 1219.519531 879.378906 C 1219.542969 878.761719 1219.59375 878.144531 1219.671875 877.527344 C 1219.753906 876.914062 1219.863281 876.304688 1220.007812 875.699219 C 1220.148438 875.09375 1220.316406 874.5 1220.515625 873.910156 C 1220.714844 873.324219 1220.945312 872.75 1221.199219 872.183594 C 1221.457031 871.617188 1221.738281 871.066406 1222.046875 870.53125 C 1222.359375 869.992188 1222.695312 869.472656 1223.054688 868.96875 C 1223.417969 868.464844 1223.800781 867.976562 1224.210938 867.511719 C 1224.621094 867.046875 1225.050781 866.601562 1225.503906 866.175781 C 1225.957031 865.753906 1226.429688 865.351562 1226.921875 864.972656 C 1227.414062 864.597656 1227.921875 864.242188 1228.449219 863.914062 C 1228.976562 863.589844 1229.519531 863.289062 1230.074219 863.011719 C 1230.632812 862.738281 1231.199219 862.492188 1231.78125 862.273438 C 1232.359375 862.054688 1232.949219 861.867188 1233.550781 861.703125 C 1234.148438 861.542969 1234.753906 861.414062 1235.367188 861.3125 C 1235.980469 861.210938 1236.59375 861.140625 1237.214844 861.101562 C 1237.832031 861.058594 1238.453125 861.050781 1239.070312 861.070312 C 1239.691406 861.089844 1240.308594 861.140625 1240.925781 861.222656 C 1241.539062 861.300781 1242.148438 861.414062 1242.753906 861.554688 C 1243.355469 861.695312 1243.953125 861.867188 1244.539062 862.066406 C 1245.128906 862.265625 1245.703125 862.492188 1246.269531 862.746094 C 1246.835938 863.003906 1247.386719 863.285156 1247.921875 863.597656 Z M 1247.921875 863.597656 " fill-opacity="1" fill-rule="nonzero"/><path fill="#1676bb" d="M 1254.675781 605.148438 C 1254.984375 605.6875 1255.269531 606.238281 1255.523438 606.800781 C 1255.78125 607.367188 1256.007812 607.945312 1256.207031 608.53125 C 1256.40625 609.117188 1256.578125 609.714844 1256.71875 610.320312 C 1256.859375 610.921875 1256.96875 611.53125 1257.050781 612.148438 C 1257.132812 612.761719 1257.183594 613.378906 1257.203125 614 C 1257.222656 614.621094 1257.210938 615.238281 1257.171875 615.859375 C 1257.132812 616.476562 1257.0625 617.09375 1256.960938 617.703125 C 1256.859375 618.316406 1256.726562 618.921875 1256.566406 619.523438 C 1256.40625 620.121094 1256.21875 620.710938 1256 621.292969 C 1255.78125 621.871094 1255.535156 622.441406 1255.257812 622.996094 C 1254.984375 623.554688 1254.683594 624.09375 1254.355469 624.621094 C 1254.027344 625.148438 1253.675781 625.65625 1253.296875 626.148438 C 1252.921875 626.640625 1252.519531 627.113281 1252.097656 627.566406 C 1251.671875 628.019531 1251.226562 628.453125 1250.761719 628.859375 C 1250.292969 629.269531 1249.808594 629.65625 1249.304688 630.015625 C 1248.800781 630.378906 1248.28125 630.710938 1247.742188 631.023438 C 1247.207031 631.332031 1246.652344 631.617188 1246.089844 631.871094 C 1245.523438 632.128906 1244.949219 632.355469 1244.359375 632.554688 C 1243.773438 632.753906 1243.175781 632.925781 1242.574219 633.066406 C 1241.96875 633.207031 1241.359375 633.316406 1240.742188 633.398438 C 1240.128906 633.480469 1239.511719 633.53125 1238.890625 633.550781 C 1238.273438 633.570312 1237.652344 633.558594 1237.03125 633.519531 C 1236.414062 633.480469 1235.796875 633.410156 1235.1875 633.308594 C 1234.574219 633.207031 1233.96875 633.074219 1233.371094 632.914062 C 1232.769531 632.753906 1232.179688 632.566406 1231.601562 632.347656 C 1231.019531 632.128906 1230.449219 631.882812 1229.894531 631.605469 C 1229.339844 631.332031 1228.796875 631.03125 1228.269531 630.703125 C 1227.742188 630.375 1227.234375 630.023438 1226.742188 629.644531 C 1226.25 629.269531 1225.777344 628.867188 1225.324219 628.445312 C 1224.871094 628.019531 1224.441406 627.574219 1224.03125 627.109375 C 1223.621094 626.640625 1223.238281 626.15625 1222.875 625.652344 C 1222.515625 625.148438 1222.179688 624.628906 1221.867188 624.089844 C 1221.558594 623.554688 1221.277344 623 1221.019531 622.4375 C 1220.761719 621.871094 1220.535156 621.296875 1220.335938 620.707031 C 1220.136719 620.121094 1219.964844 619.523438 1219.824219 618.921875 C 1219.683594 618.316406 1219.574219 617.707031 1219.492188 617.09375 C 1219.414062 616.476562 1219.363281 615.859375 1219.339844 615.238281 C 1219.320312 614.621094 1219.332031 614 1219.371094 613.382812 C 1219.414062 612.761719 1219.484375 612.144531 1219.585938 611.535156 C 1219.683594 610.921875 1219.816406 610.316406 1219.976562 609.71875 C 1220.136719 609.117188 1220.328125 608.527344 1220.546875 607.949219 C 1220.765625 607.367188 1221.011719 606.796875 1221.285156 606.242188 C 1221.558594 605.6875 1221.859375 605.144531 1222.1875 604.617188 C 1222.515625 604.089844 1222.867188 603.582031 1223.246094 603.089844 C 1223.621094 602.597656 1224.023438 602.125 1224.449219 601.671875 C 1224.871094 601.21875 1225.316406 600.789062 1225.785156 600.378906 C 1226.25 599.96875 1226.734375 599.585938 1227.238281 599.222656 C 1227.742188 598.863281 1228.265625 598.527344 1228.800781 598.214844 C 1229.339844 597.90625 1229.890625 597.625 1230.457031 597.367188 C 1231.019531 597.109375 1231.597656 596.882812 1232.183594 596.683594 C 1232.769531 596.484375 1233.367188 596.316406 1233.972656 596.171875 C 1234.574219 596.03125 1235.183594 595.921875 1235.800781 595.839844 C 1236.414062 595.761719 1237.03125 595.710938 1237.652344 595.6875 C 1238.273438 595.667969 1238.890625 595.679688 1239.511719 595.71875 C 1240.128906 595.761719 1240.746094 595.832031 1241.359375 595.933594 C 1241.96875 596.03125 1242.574219 596.164062 1243.175781 596.324219 C 1243.773438 596.484375 1244.363281 596.675781 1244.945312 596.894531 C 1245.523438 597.113281 1246.09375 597.359375 1246.648438 597.632812 C 1247.207031 597.90625 1247.746094 598.207031 1248.273438 598.535156 C 1248.800781 598.863281 1249.308594 599.214844 1249.800781 599.59375 C 1250.292969 599.96875 1250.765625 600.371094 1251.21875 600.796875 C 1251.671875 601.21875 1252.101562 601.664062 1252.511719 602.132812 C 1252.921875 602.597656 1253.308594 603.082031 1253.667969 603.585938 C 1254.03125 604.089844 1254.363281 604.613281 1254.675781 605.148438 Z M 1254.675781 605.148438 " fill-opacity="1" fill-rule="nonzero"/><path fill="#1676bb" d="M 1151.492188 501.195312 C 1152.03125 501.503906 1152.550781 501.839844 1153.054688 502.199219 C 1153.558594 502.5625 1154.046875 502.949219 1154.511719 503.355469 C 1154.980469 503.765625 1155.425781 504.195312 1155.847656 504.648438 C 1156.273438 505.101562 1156.671875 505.574219 1157.050781 506.066406 C 1157.429688 506.558594 1157.78125 507.070312 1158.109375 507.59375 C 1158.4375 508.121094 1158.738281 508.664062 1159.011719 509.21875 C 1159.285156 509.777344 1159.53125 510.34375 1159.75 510.925781 C 1159.96875 511.503906 1160.160156 512.097656 1160.320312 512.695312 C 1160.480469 513.292969 1160.609375 513.898438 1160.710938 514.511719 C 1160.8125 515.125 1160.882812 515.738281 1160.925781 516.359375 C 1160.964844 516.976562 1160.972656 517.597656 1160.953125 518.21875 C 1160.933594 518.835938 1160.882812 519.453125 1160.800781 520.070312 C 1160.722656 520.683594 1160.609375 521.292969 1160.46875 521.898438 C 1160.328125 522.503906 1160.160156 523.097656 1159.960938 523.683594 C 1159.761719 524.273438 1159.53125 524.847656 1159.277344 525.414062 C 1159.019531 525.980469 1158.738281 526.53125 1158.425781 527.066406 C 1158.117188 527.605469 1157.78125 528.125 1157.417969 528.628906 C 1157.058594 529.132812 1156.671875 529.621094 1156.265625 530.085938 C 1155.855469 530.550781 1155.425781 530.996094 1154.972656 531.421875 C 1154.519531 531.84375 1154.046875 532.246094 1153.554688 532.625 C 1153.0625 533 1152.550781 533.355469 1152.027344 533.683594 C 1151.5 534.007812 1150.957031 534.308594 1150.402344 534.585938 C 1149.84375 534.859375 1149.277344 535.105469 1148.695312 535.324219 C 1148.113281 535.542969 1147.523438 535.730469 1146.925781 535.894531 C 1146.328125 536.054688 1145.722656 536.183594 1145.109375 536.285156 C 1144.496094 536.386719 1143.882812 536.457031 1143.261719 536.496094 C 1142.644531 536.539062 1142.023438 536.546875 1141.402344 536.527344 C 1140.785156 536.507812 1140.167969 536.457031 1139.550781 536.375 C 1138.9375 536.296875 1138.328125 536.183594 1137.722656 536.042969 C 1137.117188 535.902344 1136.523438 535.730469 1135.933594 535.53125 C 1135.347656 535.332031 1134.773438 535.105469 1134.207031 534.851562 C 1133.640625 534.59375 1133.089844 534.308594 1132.554688 534 C 1132.015625 533.691406 1131.496094 533.355469 1130.992188 532.992188 C 1130.488281 532.632812 1130 532.246094 1129.535156 531.835938 C 1129.070312 531.429688 1128.625 530.996094 1128.199219 530.546875 C 1127.773438 530.09375 1127.375 529.621094 1126.996094 529.128906 C 1126.621094 528.636719 1126.265625 528.125 1125.9375 527.597656 C 1125.613281 527.074219 1125.308594 526.53125 1125.035156 525.976562 C 1124.761719 525.417969 1124.515625 524.851562 1124.296875 524.269531 C 1124.078125 523.6875 1123.890625 523.097656 1123.726562 522.5 C 1123.566406 521.898438 1123.4375 521.292969 1123.335938 520.683594 C 1123.234375 520.070312 1123.164062 519.457031 1123.125 518.835938 C 1123.082031 518.21875 1123.074219 517.597656 1123.09375 516.976562 C 1123.113281 516.359375 1123.164062 515.738281 1123.246094 515.125 C 1123.324219 514.511719 1123.4375 513.898438 1123.578125 513.296875 C 1123.71875 512.691406 1123.890625 512.097656 1124.089844 511.507812 C 1124.289062 510.921875 1124.515625 510.34375 1124.769531 509.78125 C 1125.027344 509.214844 1125.308594 508.664062 1125.621094 508.125 C 1125.929688 507.589844 1126.265625 507.070312 1126.628906 506.566406 C 1126.988281 506.058594 1127.375 505.574219 1127.785156 505.109375 C 1128.191406 504.640625 1128.625 504.195312 1129.074219 503.773438 C 1129.527344 503.347656 1130 502.949219 1130.492188 502.570312 C 1130.984375 502.191406 1131.496094 501.839844 1132.023438 501.511719 C 1132.546875 501.183594 1133.089844 500.882812 1133.644531 500.609375 C 1134.203125 500.335938 1134.769531 500.089844 1135.351562 499.871094 C 1135.933594 499.652344 1136.523438 499.460938 1137.121094 499.300781 C 1137.71875 499.140625 1138.328125 499.011719 1138.9375 498.910156 C 1139.550781 498.808594 1140.164062 498.738281 1140.785156 498.695312 C 1141.402344 498.65625 1142.023438 498.644531 1142.644531 498.667969 C 1143.261719 498.6875 1143.882812 498.738281 1144.496094 498.820312 C 1145.109375 498.898438 1145.71875 499.011719 1146.324219 499.152344 C 1146.929688 499.292969 1147.523438 499.460938 1148.113281 499.660156 C 1148.699219 499.859375 1149.277344 500.089844 1149.839844 500.34375 C 1150.40625 500.601562 1150.957031 500.882812 1151.492188 501.195312 Z M 1151.492188 501.195312 " fill-opacity="1" fill-rule="nonzero"/><path fill="#1676bb" d="M 1025.15625 702.480469 C 1019.472656 700.585938 1014.738281 699.636719 1009.054688 699.636719 C 982.539062 699.636719 961.703125 720.472656 961.703125 746.992188 C 961.703125 773.507812 982.539062 794.34375 1009.054688 794.34375 C 1035.574219 794.34375 1056.40625 773.507812 1056.40625 746.992188 C 1056.40625 734.679688 1051.671875 723.316406 1043.148438 714.792969 L 1099.023438 639.027344 L 1107.546875 588.835938 L 1066.824219 619.140625 Z M 1009.054688 756.460938 C 1003.375 756.460938 999.585938 752.671875 999.585938 746.992188 C 999.585938 741.308594 1003.375 737.519531 1009.054688 737.519531 C 1014.738281 737.519531 1018.527344 741.308594 1018.527344 746.992188 C 1018.527344 752.671875 1014.738281 756.460938 1009.054688 756.460938 Z M 1009.054688 756.460938 " fill-opacity="1" fill-rule="nonzero"/><path fill="#1676bb" d="M 615.085938 564.210938 C 634.027344 569.894531 654.863281 568.945312 677.59375 563.265625 C 688.007812 545.269531 699.375 527.277344 712.632812 511.175781 C 711.683594 510.230469 709.792969 509.285156 708.84375 508.335938 C 675.699219 527.277344 647.285156 533.90625 624.558594 527.277344 C 592.359375 517.808594 577.207031 484.660156 569.628906 468.5625 C 564.894531 459.089844 562.054688 451.515625 551.636719 448.671875 C 545.953125 447.726562 539.324219 449.621094 534.589844 453.40625 C 479.660156 503.601562 472.085938 563.265625 474.925781 603.039062 C 425.679688 579.363281 330.976562 557.582031 223.011719 644.710938 C 61.070312 775.402344 180.394531 951.550781 181.34375 953.445312 C 185.132812 959.128906 192.707031 961.96875 199.335938 961.023438 C 205.964844 960.074219 212.59375 955.339844 214.488281 948.710938 C 228.695312 907.039062 249.53125 883.363281 276.046875 877.683594 C 337.605469 864.421875 424.730469 940.1875 454.089844 970.492188 C 635.921875 1166.53125 810.175781 1182.628906 862.265625 1182.628906 C 869.839844 1182.628906 874.578125 1182.628906 876.46875 1181.683594 C 978.75 1177.894531 1054.515625 1150.429688 1109.441406 1111.601562 C 1086.714844 1118.230469 1063.039062 1122.019531 1039.363281 1123.914062 C 1027.996094 1125.804688 1018.527344 1125.804688 1008.109375 1125.804688 C 1004.320312 1125.804688 999.585938 1125.804688 995.796875 1125.804688 C 960.757812 1136.222656 920.980469 1142.851562 874.578125 1144.746094 C 874.578125 1144.746094 873.628906 1144.746094 873.628906 1144.746094 C 871.734375 1144.746094 681.378906 1159.898438 482.5 944.921875 C 477.765625 940.1875 381.167969 838.851562 292.148438 838.851562 C 284.570312 838.851562 276.992188 839.800781 269.417969 841.695312 C 238.164062 847.375 213.542969 867.265625 194.601562 899.464844 C 172.820312 850.21875 149.144531 752.671875 246.6875 674.070312 C 382.117188 565.160156 485.34375 652.285156 489.132812 656.074219 C 495.761719 661.757812 505.230469 662.703125 512.808594 657.96875 C 520.382812 653.234375 523.222656 643.761719 520.382812 636.1875 C 520.382812 635.238281 494.8125 563.265625 544.058594 500.761719 C 555.425781 522.542969 577.207031 552.847656 615.085938 564.210938 Z M 615.085938 564.210938 " fill-opacity="1" fill-rule="nonzero"/></svg>