<svg xmlns="http://www.w3.org/2000/svg" xmlns:xlink="http://www.w3.org/1999/xlink" width="2000" zoomAndPan="magnify" viewBox="0 0 1500 1499.999933" height="2000" preserveAspectRatio="xMidYMid meet" version="1.0"><defs><clipPath id="8f75f558b6"><path d="M 30.011719 44 L 1452.761719 44 L 1452.761719 1203.175781 L 30.011719 1203.175781 Z M 30.011719 44 " clip-rule="nonzero"/></clipPath></defs><g clip-path="url(#8f75f558b6)"><path fill="#1676bb" d="M 1452.800781 349.6875 C 1452.789062 325.351562 1443.222656 303.894531 1425.125 287.632812 L 1208.816406 93.191406 C 1181.910156 69.011719 1147.988281 44.300781 1100.292969 44.300781 C 1100.277344 44.300781 1100.257812 44.300781 1100.242188 44.300781 C 1052.515625 44.316406 1018.589844 69.0625 991.699219 93.269531 L 775.527344 287.859375 C 757.441406 304.132812 747.890625 325.601562 747.898438 349.9375 L 747.996094 599.671875 L 604.433594 599.671875 C 630.417969 545.714844 648.515625 460.480469 628.191406 396.65625 C 613.886719 351.734375 582.386719 322.125 537.097656 311.015625 C 531.316406 309.597656 525.210938 310.558594 520.144531 313.679688 C 515.078125 316.796875 511.472656 321.824219 510.136719 327.621094 C 507.671875 338.332031 505.386719 348.371094 503.246094 357.804688 C 476.539062 475.417969 473.105469 490.53125 399.335938 538.746094 C 347.21875 572.808594 343.519531 577.207031 311.109375 624.492188 C 307.796875 629.320312 304.144531 634.648438 300.058594 640.5625 C 286.933594 659.546875 270.140625 668.105469 245.742188 668.320312 L 243.859375 668.328125 L 243.859375 663 C 243.859375 635.304688 221.328125 612.777344 193.632812 612.777344 L 80.238281 612.777344 C 52.542969 612.777344 30.011719 635.304688 30.011719 663 L 30.011719 1152.917969 C 30.011719 1180.617188 52.542969 1203.148438 80.238281 1203.148438 L 193.632812 1203.148438 C 221.328125 1203.148438 243.863281 1180.617188 243.863281 1152.917969 L 243.863281 1130.128906 C 253.886719 1133.625 263.90625 1137.355469 274.222656 1141.207031 C 324.738281 1160.074219 381.992188 1181.457031 467.003906 1181.457031 L 762.171875 1181.457031 C 774.753906 1181.457031 786.730469 1178.832031 797.597656 1174.121094 C 808.273438 1178.921875 819.835938 1181.457031 831.691406 1181.457031 C 831.695312 1181.457031 831.699219 1181.457031 831.710938 1181.457031 L 1369.648438 1181.273438 C 1415.683594 1181.253906 1453.117188 1143.789062 1453.097656 1097.753906 Z M 199.390625 1152.917969 C 199.390625 1156.039062 196.753906 1158.675781 193.632812 1158.675781 L 80.238281 1158.675781 C 77.117188 1158.675781 74.484375 1156.039062 74.484375 1152.917969 L 74.484375 663 C 74.484375 659.882812 77.117188 657.246094 80.238281 657.246094 L 193.632812 657.246094 C 196.753906 657.246094 199.390625 659.882812 199.390625 663 Z M 467.003906 1136.988281 C 390.027344 1136.988281 339.066406 1117.949219 289.785156 1099.542969 C 274.90625 1093.988281 259.648438 1088.289062 243.863281 1083.203125 L 243.863281 712.796875 L 246.007812 712.792969 C 284.851562 712.453125 315.347656 696.65625 336.644531 665.847656 C 340.769531 659.882812 344.449219 654.507812 347.792969 649.632812 C 377.683594 606.027344 377.683594 606.027344 423.667969 575.96875 C 512.492188 517.914062 519.039062 489.066406 546.613281 367.652344 C 547.023438 365.851562 547.4375 364.023438 547.855469 362.175781 C 566.179688 371.902344 578.6875 387.753906 585.816406 410.144531 C 606.796875 476.03125 573.714844 577.460938 547.828125 607.351562 C 542.128906 613.929688 540.796875 623.230469 544.410156 631.148438 C 548.03125 639.066406 555.933594 644.144531 564.636719 644.144531 L 818.847656 644.144531 C 843.621094 644.144531 863.777344 664.296875 863.777344 689.070312 C 863.777344 713.84375 843.621094 734.003906 818.847656 734.003906 L 643.589844 734.003906 C 631.308594 734.003906 621.351562 743.957031 621.351562 756.238281 C 621.351562 768.519531 631.308594 778.472656 643.589844 778.472656 L 855.578125 778.472656 C 880.351562 778.472656 900.503906 798.628906 900.503906 823.402344 C 900.503906 848.175781 880.351562 868.332031 855.578125 868.332031 L 643.589844 868.332031 C 631.308594 868.332031 621.351562 878.289062 621.351562 890.566406 C 621.351562 902.847656 631.308594 912.804688 643.589844 912.804688 L 832.492188 912.804688 C 857.265625 912.804688 877.417969 932.957031 877.417969 957.730469 C 877.417969 982.503906 857.265625 1002.65625 832.492188 1002.65625 L 643.589844 1002.65625 C 631.308594 1002.65625 621.351562 1012.613281 621.351562 1024.894531 C 621.351562 1037.171875 631.308594 1047.128906 643.589844 1047.128906 L 762.175781 1047.128906 C 786.949219 1047.128906 807.105469 1067.285156 807.105469 1092.058594 C 807.105469 1116.832031 786.953125 1136.988281 762.175781 1136.988281 Z M 1369.632812 1136.800781 L 839.417969 1136.984375 C 847.128906 1123.773438 851.574219 1108.429688 851.574219 1092.058594 C 851.574219 1075.585938 847.097656 1060.140625 839.292969 1046.875 C 885.421875 1043.382812 921.890625 1004.734375 921.890625 957.730469 C 921.890625 935.917969 914.039062 915.90625 901.011719 900.375 C 927.304688 884.792969 944.976562 856.117188 944.976562 823.402344 C 944.976562 786.789062 922.847656 755.246094 891.269531 741.4375 C 901.945312 726.710938 908.246094 708.613281 908.246094 689.070312 C 908.246094 639.777344 868.144531 599.671875 818.847656 599.671875 L 792.472656 599.671875 L 792.371094 349.921875 C 792.367188 338.226562 796.589844 328.738281 805.28125 320.914062 L 1021.453125 126.324219 C 1051.074219 99.660156 1073.90625 88.785156 1100.261719 88.773438 C 1100.273438 88.773438 1100.285156 88.773438 1100.296875 88.773438 C 1126.628906 88.773438 1149.464844 99.636719 1179.09375 126.265625 L 1395.402344 320.707031 C 1404.101562 328.523438 1408.332031 338.011719 1408.335938 349.707031 L 1408.628906 1097.769531 C 1408.640625 1119.285156 1391.144531 1136.792969 1369.632812 1136.800781 Z M 1233.835938 835.886719 C 1237.09375 862.722656 1229.902344 887.214844 1213.039062 906.714844 C 1193.203125 929.644531 1160.246094 945.015625 1122.738281 949.332031 L 1122.738281 977.613281 C 1122.738281 989.894531 1112.78125 999.851562 1100.5 999.851562 C 1088.222656 999.851562 1078.265625 989.894531 1078.265625 977.613281 L 1078.265625 949.007812 C 1022.71875 941.375 979.542969 906.253906 967.042969 856.117188 C 964.074219 844.203125 971.324219 832.132812 983.242188 829.164062 C 995.164062 826.210938 1007.222656 833.445312 1010.195312 845.359375 C 1021.714844 891.550781 1068.199219 906.964844 1104.527344 906.058594 C 1135.714844 905.316406 1165.105469 894.15625 1179.40625 877.625 C 1188.082031 867.59375 1191.449219 855.691406 1189.695312 841.246094 C 1185.542969 807.058594 1157.023438 787.433594 1097.21875 777.613281 C 1002.039062 761.984375 979.875 713.714844 978.046875 675.976562 C 975.503906 623.679688 1012.117188 579.847656 1069.148438 566.910156 C 1072.140625 566.234375 1075.183594 565.648438 1078.269531 565.164062 L 1078.269531 536.242188 C 1078.269531 523.964844 1088.226562 514.007812 1100.507812 514.007812 C 1112.785156 514.007812 1122.742188 523.964844 1122.742188 536.242188 L 1122.742188 564.972656 C 1163.453125 571.003906 1203.613281 594.585938 1223.679688 642.378906 C 1228.429688 653.699219 1223.109375 666.738281 1211.785156 671.488281 C 1200.460938 676.246094 1187.429688 670.917969 1182.675781 659.597656 C 1163.390625 613.664062 1116.703125 601.734375 1078.984375 610.289062 C 1050.484375 616.75 1020.667969 636.835938 1022.46875 673.824219 C 1023.027344 685.40625 1024.738281 720.652344 1104.425781 733.734375 C 1133.949219 738.578125 1223.816406 753.332031 1233.835938 835.886719 Z M 1100.316406 342.464844 C 1143.980469 342.464844 1179.503906 306.941406 1179.503906 263.277344 C 1179.503906 219.609375 1143.984375 184.089844 1100.316406 184.089844 C 1056.652344 184.089844 1021.128906 219.609375 1021.128906 263.277344 C 1021.128906 306.941406 1056.652344 342.464844 1100.316406 342.464844 Z M 1100.316406 228.558594 C 1119.460938 228.558594 1135.03125 244.132812 1135.03125 263.273438 C 1135.03125 282.414062 1119.460938 297.988281 1100.316406 297.988281 C 1081.175781 297.988281 1065.597656 282.414062 1065.597656 263.273438 C 1065.597656 244.132812 1081.175781 228.558594 1100.316406 228.558594 Z M 1100.316406 228.558594 " fill-opacity="1" fill-rule="nonzero"/></g></svg>