<svg xmlns="http://www.w3.org/2000/svg" xmlns:xlink="http://www.w3.org/1999/xlink" width="2000" zoomAndPan="magnify" viewBox="0 0 1500 1499.999933" height="2000" preserveAspectRatio="xMidYMid meet" version="1.0"><defs><clipPath id="af83411186"><path d="M 122 97.402344 L 1375 97.402344 L 1375 1349.902344 L 122 1349.902344 Z M 122 97.402344 " clip-rule="nonzero"/></clipPath></defs><g clip-path="url(#af83411186)"><path fill="#1676bb" d="M 1362.152344 823.816406 C 1348.386719 797.421875 1325.082031 777.914062 1296.507812 768.925781 C 1267.933594 759.9375 1237.667969 762.5625 1211.277344 776.304688 L 907.496094 934.636719 C 908.300781 929.984375 908.820312 925.257812 909.03125 920.453125 C 910.328125 890.707031 899.886719 862.183594 879.625 840.105469 C 859.386719 818.023438 831.851562 805.164062 802.105469 803.890625 L 536.488281 792.410156 C 517.136719 791.578125 500.144531 795.34375 483 804.28125 L 305.601562 896.734375 L 285.859375 858.859375 C 280.949219 849.429688 272.609375 842.441406 262.425781 839.246094 C 252.21875 836.027344 241.410156 836.988281 231.980469 841.898438 L 144.101562 887.695312 C 134.671875 892.605469 127.683594 900.941406 124.488281 911.125 C 121.265625 921.308594 122.226562 932.140625 127.136719 941.570312 L 328.644531 1328.269531 C 333.554688 1337.699219 341.890625 1344.6875 352.074219 1347.882812 C 356.050781 1349.132812 360.128906 1349.753906 364.15625 1349.753906 C 370.492188 1349.753906 376.753906 1348.246094 382.519531 1345.234375 L 470.402344 1299.4375 C 479.832031 1294.527344 486.820312 1286.1875 490.015625 1276.003906 C 493.234375 1265.820312 492.273438 1254.988281 487.363281 1245.558594 L 467.621094 1207.683594 L 486.039062 1198.074219 C 493.574219 1194.148438 501.914062 1194.851562 513.785156 1197.398438 L 710.355469 1239.585938 C 726.488281 1243.039062 743.945312 1246.234375 761.996094 1246.234375 C 780.726562 1246.234375 800.105469 1242.804688 819.382812 1232.777344 L 1314.613281 974.691406 C 1341.007812 960.925781 1360.515625 937.625 1369.503906 909.046875 C 1378.542969 880.5 1375.921875 850.234375 1362.152344 823.816406 Z M 460.296875 1266.652344 C 459.59375 1268.914062 458.0625 1270.730469 456.011719 1271.796875 L 368.128906 1317.59375 C 366.078125 1318.660156 363.710938 1318.867188 361.453125 1318.164062 C 359.191406 1317.464844 357.375 1315.933594 356.308594 1313.878906 L 154.804688 927.179688 C 152.59375 922.972656 154.308594 917.542969 158.519531 915.335938 L 246.398438 869.535156 C 247.644531 868.886719 248.996094 868.550781 250.398438 868.550781 C 251.308594 868.550781 252.191406 868.679688 253.101562 868.964844 C 255.359375 869.667969 257.179688 871.199219 258.246094 873.25 L 459.75 1259.949219 C 460.816406 1262.027344 461.023438 1264.394531 460.296875 1266.652344 Z M 1339.8125 899.695312 C 1333.316406 920.324219 1319.265625 937.128906 1300.25 947.054688 L 805.015625 1205.136719 C 779.117188 1218.648438 752.101562 1216.671875 716.925781 1209.140625 L 520.355469 1166.953125 C 504.925781 1163.625 488.328125 1161.78125 471.648438 1170.457031 L 453.230469 1180.070312 L 319.992188 924.402344 L 497.390625 831.949219 C 509.652344 825.558594 521.316406 822.984375 535.136719 823.558594 L 800.757812 835.039062 C 822.1875 835.972656 842.035156 845.246094 856.632812 861.199219 C 871.257812 877.121094 878.792969 897.695312 877.855469 919.128906 C 876.921875 940.558594 867.648438 960.40625 851.699219 975.003906 C 835.746094 989.628906 815.148438 997.136719 793.769531 996.226562 L 615.019531 988.511719 C 606.445312 988.175781 599.144531 994.824219 598.78125 1003.425781 C 598.417969 1012.023438 605.070312 1019.296875 613.691406 1019.660156 L 792.445312 1027.375 C 794.078125 1027.453125 795.714844 1027.480469 797.351562 1027.480469 C 825.304688 1027.480469 851.929688 1017.113281 872.792969 997.96875 C 879.105469 992.175781 884.636719 985.757812 889.390625 978.902344 L 889.519531 979.136719 L 1225.667969 803.96875 C 1244.683594 794.046875 1266.53125 792.175781 1287.128906 798.671875 C 1307.757812 805.164062 1324.5625 819.21875 1334.488281 838.234375 C 1344.410156 857.25 1346.308594 879.070312 1339.8125 899.695312 Z M 853.542969 348.898438 C 922.824219 348.898438 979.167969 292.554688 979.167969 223.273438 C 979.167969 153.988281 922.824219 97.644531 853.542969 97.644531 C 784.261719 97.644531 727.914062 154.015625 727.914062 223.273438 C 727.914062 292.527344 784.261719 348.898438 853.542969 348.898438 Z M 853.542969 128.816406 C 905.625 128.816406 947.996094 171.1875 947.996094 223.273438 C 947.996094 275.355469 905.625 317.726562 853.542969 317.726562 C 801.457031 317.726562 759.089844 275.355469 759.089844 223.273438 C 759.089844 171.1875 801.457031 128.816406 853.542969 128.816406 Z M 612.652344 650.339844 C 612.652344 685.667969 641.386719 714.398438 676.714844 714.398438 L 1030.394531 714.398438 C 1065.726562 714.398438 1094.457031 685.667969 1094.457031 650.339844 L 1094.457031 638.726562 C 1094.457031 505.90625 986.390625 397.839844 853.566406 397.839844 C 720.746094 397.839844 612.679688 505.90625 612.679688 638.726562 L 612.679688 650.339844 Z M 643.828125 638.726562 C 643.828125 523.078125 737.917969 429.011719 853.542969 429.011719 C 969.191406 429.011719 1063.257812 523.101562 1063.257812 638.726562 L 1063.257812 650.339844 C 1063.257812 668.472656 1048.503906 683.226562 1030.371094 683.226562 L 676.6875 683.226562 C 658.554688 683.226562 643.800781 668.472656 643.800781 650.339844 L 643.800781 638.726562 Z M 437.617188 481.046875 L 491.15625 504.320312 L 514.433594 557.859375 C 516.902344 563.550781 522.511719 567.238281 528.722656 567.238281 C 534.929688 567.238281 540.539062 563.550781 543.007812 557.859375 L 566.285156 504.320312 L 619.824219 481.046875 C 625.511719 478.578125 629.203125 472.964844 629.203125 466.757812 C 629.203125 460.550781 625.511719 454.9375 619.824219 452.46875 L 566.285156 429.195312 L 543.007812 375.65625 C 540.539062 369.964844 534.929688 366.277344 528.722656 366.277344 C 522.511719 366.277344 516.902344 369.964844 514.433594 375.65625 L 491.15625 429.195312 L 437.617188 452.46875 C 431.929688 454.9375 428.242188 460.550781 428.242188 466.757812 C 428.242188 472.964844 431.929688 478.550781 437.617188 481.046875 Z M 509.210938 455.300781 C 512.824219 453.71875 515.707031 450.832031 517.292969 447.222656 L 528.722656 420.933594 L 540.152344 447.222656 C 541.734375 450.832031 544.621094 453.71875 548.230469 455.300781 L 574.519531 466.730469 L 548.230469 478.160156 C 544.621094 479.746094 541.734375 482.628906 540.152344 486.242188 L 528.722656 512.53125 L 517.292969 486.242188 C 515.707031 482.628906 512.824219 479.746094 509.210938 478.160156 L 482.921875 466.730469 Z M 1043.4375 274.550781 L 1096.976562 297.828125 L 1120.25 351.367188 C 1122.71875 357.054688 1128.332031 360.742188 1134.539062 360.742188 C 1140.746094 360.742188 1146.359375 357.054688 1148.828125 351.367188 L 1172.101562 297.828125 L 1225.640625 274.550781 C 1231.332031 272.082031 1235.019531 266.472656 1235.019531 260.261719 C 1235.019531 254.054688 1231.332031 248.445312 1225.640625 245.976562 L 1172.101562 222.699219 L 1148.828125 169.160156 C 1146.359375 163.472656 1140.746094 159.78125 1134.539062 159.78125 C 1128.332031 159.78125 1122.71875 163.472656 1120.25 169.160156 L 1096.976562 222.699219 L 1043.4375 245.976562 C 1037.746094 248.445312 1034.058594 254.054688 1034.058594 260.261719 C 1034.058594 266.472656 1037.746094 272.082031 1043.4375 274.550781 Z M 1115.03125 248.832031 C 1118.640625 247.25 1121.523438 244.367188 1123.109375 240.753906 L 1134.539062 214.464844 L 1145.96875 240.753906 C 1147.554688 244.367188 1150.4375 247.25 1154.046875 248.832031 L 1180.335938 260.261719 L 1154.023438 271.695312 C 1150.410156 273.277344 1147.527344 276.160156 1145.941406 279.773438 L 1134.511719 306.0625 L 1123.082031 279.773438 C 1121.5 276.160156 1118.613281 273.277344 1115.003906 271.695312 L 1088.714844 260.261719 Z M 1115.03125 248.832031 " fill-opacity="1" fill-rule="nonzero"/></g></svg>