<svg xmlns="http://www.w3.org/2000/svg" xmlns:xlink="http://www.w3.org/1999/xlink" width="2000" zoomAndPan="magnify" viewBox="0 0 1500 1499.999933" height="2000" preserveAspectRatio="xMidYMid meet" version="1.0"><defs><filter x="0%" y="0%" width="100%" height="100%" id="c657277d17"><feColorMatrix values="0 0 0 0 1 0 0 0 0 1 0 0 0 0 1 0 0 0 1 0" color-interpolation-filters="sRGB"/></filter><mask id="a8bcb31746"><g filter="url(#c657277d17)"><rect x="-150" width="1800" fill="#000000" y="-149.999993" height="1799.99992" fill-opacity="0.27"/></g></mask><clipPath id="c28ea4c7ae"><path d="M 127 213 L 1058 213 L 1058 1292 L 127 1292 Z M 127 213 " clip-rule="nonzero"/></clipPath><clipPath id="177a4ace6e"><path d="M 0 1167.671875 L 154.640625 2.640625 L 1269.859375 150.671875 L 1115.21875 1315.703125 Z M 0 1167.671875 " clip-rule="nonzero"/></clipPath><clipPath id="98a933a74f"><path d="M 0 1167.671875 L 154.640625 2.640625 L 1269.859375 150.671875 L 1115.21875 1315.703125 Z M 0 1167.671875 " clip-rule="nonzero"/></clipPath><clipPath id="fcddb3d23e"><path d="M 1136 1117 L 1141 1117 L 1141 1125 L 1136 1125 Z M 1136 1117 " clip-rule="nonzero"/></clipPath><clipPath id="9af3d0ae8b"><path d="M 0 1167.671875 L 154.640625 2.640625 L 1269.859375 150.671875 L 1115.21875 1315.703125 Z M 0 1167.671875 " clip-rule="nonzero"/></clipPath><clipPath id="456232b580"><path d="M 0 1167.671875 L 154.640625 2.640625 L 1269.859375 150.671875 L 1115.21875 1315.703125 Z M 0 1167.671875 " clip-rule="nonzero"/></clipPath><clipPath id="41d4b48a2a"><path d="M 1120 1079 L 1146 1079 L 1146 1121 L 1120 1121 Z M 1120 1079 " clip-rule="nonzero"/></clipPath><clipPath id="457013dd8c"><path d="M 0 1167.671875 L 154.640625 2.640625 L 1269.859375 150.671875 L 1115.21875 1315.703125 Z M 0 1167.671875 " clip-rule="nonzero"/></clipPath><clipPath id="2dc044f2f5"><path d="M 0 1167.671875 L 154.640625 2.640625 L 1269.859375 150.671875 L 1115.21875 1315.703125 Z M 0 1167.671875 " clip-rule="nonzero"/></clipPath><clipPath id="c01adfe228"><path d="M 1088 998 L 1157 998 L 1157 1077 L 1088 1077 Z M 1088 998 " clip-rule="nonzero"/></clipPath><clipPath id="340982cce0"><path d="M 0 1167.671875 L 154.640625 2.640625 L 1269.859375 150.671875 L 1115.21875 1315.703125 Z M 0 1167.671875 " clip-rule="nonzero"/></clipPath><clipPath id="115aa242f0"><path d="M 0 1167.671875 L 154.640625 2.640625 L 1269.859375 150.671875 L 1115.21875 1315.703125 Z M 0 1167.671875 " clip-rule="nonzero"/></clipPath><clipPath id="31da2e9811"><path d="M 1055 917 L 1168 917 L 1168 1033 L 1055 1033 Z M 1055 917 " clip-rule="nonzero"/></clipPath><clipPath id="483be98946"><path d="M 0 1167.671875 L 154.640625 2.640625 L 1269.859375 150.671875 L 1115.21875 1315.703125 Z M 0 1167.671875 " clip-rule="nonzero"/></clipPath><clipPath id="65871bb24c"><path d="M 0 1167.671875 L 154.640625 2.640625 L 1269.859375 150.671875 L 1115.21875 1315.703125 Z M 0 1167.671875 " clip-rule="nonzero"/></clipPath><clipPath id="7f17d3c264"><path d="M 1022 836 L 1179 836 L 1179 989 L 1022 989 Z M 1022 836 " clip-rule="nonzero"/></clipPath><clipPath id="18e1903ba0"><path d="M 0 1167.671875 L 154.640625 2.640625 L 1269.859375 150.671875 L 1115.21875 1315.703125 Z M 0 1167.671875 " clip-rule="nonzero"/></clipPath><clipPath id="a15ab46876"><path d="M 0 1167.671875 L 154.640625 2.640625 L 1269.859375 150.671875 L 1115.21875 1315.703125 Z M 0 1167.671875 " clip-rule="nonzero"/></clipPath><clipPath id="ff1bb875cd"><path d="M 989 755 L 1189 755 L 1189 945 L 989 945 Z M 989 755 " clip-rule="nonzero"/></clipPath><clipPath id="c2607b010d"><path d="M 0 1167.671875 L 154.640625 2.640625 L 1269.859375 150.671875 L 1115.21875 1315.703125 Z M 0 1167.671875 " clip-rule="nonzero"/></clipPath><clipPath id="a5c9b70580"><path d="M 0 1167.671875 L 154.640625 2.640625 L 1269.859375 150.671875 L 1115.21875 1315.703125 Z M 0 1167.671875 " clip-rule="nonzero"/></clipPath><clipPath id="78d05e49cb"><path d="M 956 674 L 1200 674 L 1200 901 L 956 901 Z M 956 674 " clip-rule="nonzero"/></clipPath><clipPath id="de053890b6"><path d="M 0 1167.671875 L 154.640625 2.640625 L 1269.859375 150.671875 L 1115.21875 1315.703125 Z M 0 1167.671875 " clip-rule="nonzero"/></clipPath><clipPath id="33cd660796"><path d="M 0 1167.671875 L 154.640625 2.640625 L 1269.859375 150.671875 L 1115.21875 1315.703125 Z M 0 1167.671875 " clip-rule="nonzero"/></clipPath><clipPath id="e97477e9cb"><path d="M 923 593 L 1211 593 L 1211 857 L 923 857 Z M 923 593 " clip-rule="nonzero"/></clipPath><clipPath id="59cb4155a0"><path d="M 0 1167.671875 L 154.640625 2.640625 L 1269.859375 150.671875 L 1115.21875 1315.703125 Z M 0 1167.671875 " clip-rule="nonzero"/></clipPath><clipPath id="6620ae362e"><path d="M 0 1167.671875 L 154.640625 2.640625 L 1269.859375 150.671875 L 1115.21875 1315.703125 Z M 0 1167.671875 " clip-rule="nonzero"/></clipPath><clipPath id="7ba9060c84"><path d="M 890 512 L 1221 512 L 1221 813 L 890 813 Z M 890 512 " clip-rule="nonzero"/></clipPath><clipPath id="1100cdf203"><path d="M 0 1167.671875 L 154.640625 2.640625 L 1269.859375 150.671875 L 1115.21875 1315.703125 Z M 0 1167.671875 " clip-rule="nonzero"/></clipPath><clipPath id="ab0b641b58"><path d="M 0 1167.671875 L 154.640625 2.640625 L 1269.859375 150.671875 L 1115.21875 1315.703125 Z M 0 1167.671875 " clip-rule="nonzero"/></clipPath><clipPath id="4b6a34c0f8"><path d="M 857 431 L 1232 431 L 1232 768 L 857 768 Z M 857 431 " clip-rule="nonzero"/></clipPath><clipPath id="f9a80a67d8"><path d="M 0 1167.671875 L 154.640625 2.640625 L 1269.859375 150.671875 L 1115.21875 1315.703125 Z M 0 1167.671875 " clip-rule="nonzero"/></clipPath><clipPath id="12f781f8f2"><path d="M 0 1167.671875 L 154.640625 2.640625 L 1269.859375 150.671875 L 1115.21875 1315.703125 Z M 0 1167.671875 " clip-rule="nonzero"/></clipPath><clipPath id="8711367caf"><path d="M 825 350 L 1243 350 L 1243 724 L 825 724 Z M 825 350 " clip-rule="nonzero"/></clipPath><clipPath id="43af79d89a"><path d="M 0 1167.671875 L 154.640625 2.640625 L 1269.859375 150.671875 L 1115.21875 1315.703125 Z M 0 1167.671875 " clip-rule="nonzero"/></clipPath><clipPath id="3173da88b5"><path d="M 0 1167.671875 L 154.640625 2.640625 L 1269.859375 150.671875 L 1115.21875 1315.703125 Z M 0 1167.671875 " clip-rule="nonzero"/></clipPath><clipPath id="30a796d8b8"><path d="M 792 269 L 1254 269 L 1254 680 L 792 680 Z M 792 269 " clip-rule="nonzero"/></clipPath><clipPath id="9486a1a1b1"><path d="M 0 1167.671875 L 154.640625 2.640625 L 1269.859375 150.671875 L 1115.21875 1315.703125 Z M 0 1167.671875 " clip-rule="nonzero"/></clipPath><clipPath id="a08d84d704"><path d="M 0 1167.671875 L 154.640625 2.640625 L 1269.859375 150.671875 L 1115.21875 1315.703125 Z M 0 1167.671875 " clip-rule="nonzero"/></clipPath><clipPath id="d63279e4df"><path d="M 759 188 L 1264 188 L 1264 636 L 759 636 Z M 759 188 " clip-rule="nonzero"/></clipPath><clipPath id="4989c54407"><path d="M 0 1167.671875 L 154.640625 2.640625 L 1269.859375 150.671875 L 1115.21875 1315.703125 Z M 0 1167.671875 " clip-rule="nonzero"/></clipPath><clipPath id="00d92ecdf3"><path d="M 0 1167.671875 L 154.640625 2.640625 L 1269.859375 150.671875 L 1115.21875 1315.703125 Z M 0 1167.671875 " clip-rule="nonzero"/></clipPath><clipPath id="aaece0e2de"><path d="M 726 145 L 1266 145 L 1266 592 L 726 592 Z M 726 145 " clip-rule="nonzero"/></clipPath><clipPath id="e82dcca9a4"><path d="M 0 1167.671875 L 154.640625 2.640625 L 1269.859375 150.671875 L 1115.21875 1315.703125 Z M 0 1167.671875 " clip-rule="nonzero"/></clipPath><clipPath id="f3265cd153"><path d="M 0 1167.671875 L 154.640625 2.640625 L 1269.859375 150.671875 L 1115.21875 1315.703125 Z M 0 1167.671875 " clip-rule="nonzero"/></clipPath><clipPath id="1d0919f4dd"><path d="M 694 136 L 1194 136 L 1194 549 L 694 549 Z M 694 136 " clip-rule="nonzero"/></clipPath><clipPath id="86f4125cc1"><path d="M 0 1167.671875 L 154.640625 2.640625 L 1269.859375 150.671875 L 1115.21875 1315.703125 Z M 0 1167.671875 " clip-rule="nonzero"/></clipPath><clipPath id="044d812b21"><path d="M 0 1167.671875 L 154.640625 2.640625 L 1269.859375 150.671875 L 1115.21875 1315.703125 Z M 0 1167.671875 " clip-rule="nonzero"/></clipPath><clipPath id="73749dea17"><path d="M 661 126 L 1120 126 L 1120 505 L 661 505 Z M 661 126 " clip-rule="nonzero"/></clipPath><clipPath id="23504044ff"><path d="M 0 1167.671875 L 154.640625 2.640625 L 1269.859375 150.671875 L 1115.21875 1315.703125 Z M 0 1167.671875 " clip-rule="nonzero"/></clipPath><clipPath id="a907ce9586"><path d="M 0 1167.671875 L 154.640625 2.640625 L 1269.859375 150.671875 L 1115.21875 1315.703125 Z M 0 1167.671875 " clip-rule="nonzero"/></clipPath><clipPath id="99fbda3b6b"><path d="M 628 116 L 1047 116 L 1047 461 L 628 461 Z M 628 116 " clip-rule="nonzero"/></clipPath><clipPath id="8b182ecb44"><path d="M 0 1167.671875 L 154.640625 2.640625 L 1269.859375 150.671875 L 1115.21875 1315.703125 Z M 0 1167.671875 " clip-rule="nonzero"/></clipPath><clipPath id="ef1dfc6f39"><path d="M 0 1167.671875 L 154.640625 2.640625 L 1269.859375 150.671875 L 1115.21875 1315.703125 Z M 0 1167.671875 " clip-rule="nonzero"/></clipPath><clipPath id="0181b75874"><path d="M 595 106 L 973 106 L 973 417 L 595 417 Z M 595 106 " clip-rule="nonzero"/></clipPath><clipPath id="432b1fd73c"><path d="M 0 1167.671875 L 154.640625 2.640625 L 1269.859375 150.671875 L 1115.21875 1315.703125 Z M 0 1167.671875 " clip-rule="nonzero"/></clipPath><clipPath id="52b96408b1"><path d="M 0 1167.671875 L 154.640625 2.640625 L 1269.859375 150.671875 L 1115.21875 1315.703125 Z M 0 1167.671875 " clip-rule="nonzero"/></clipPath><clipPath id="0e8bf8d505"><path d="M 562 97 L 900 97 L 900 373 L 562 373 Z M 562 97 " clip-rule="nonzero"/></clipPath><clipPath id="bdd063c2d7"><path d="M 0 1167.671875 L 154.640625 2.640625 L 1269.859375 150.671875 L 1115.21875 1315.703125 Z M 0 1167.671875 " clip-rule="nonzero"/></clipPath><clipPath id="2ddc62caa9"><path d="M 0 1167.671875 L 154.640625 2.640625 L 1269.859375 150.671875 L 1115.21875 1315.703125 Z M 0 1167.671875 " clip-rule="nonzero"/></clipPath><clipPath id="d2510a8e43"><path d="M 529 87 L 826 87 L 826 329 L 529 329 Z M 529 87 " clip-rule="nonzero"/></clipPath><clipPath id="407ac8cd6e"><path d="M 0 1167.671875 L 154.640625 2.640625 L 1269.859375 150.671875 L 1115.21875 1315.703125 Z M 0 1167.671875 " clip-rule="nonzero"/></clipPath><clipPath id="5d07bf6b3a"><path d="M 0 1167.671875 L 154.640625 2.640625 L 1269.859375 150.671875 L 1115.21875 1315.703125 Z M 0 1167.671875 " clip-rule="nonzero"/></clipPath><clipPath id="5c88a89eea"><path d="M 497 77 L 752 77 L 752 285 L 497 285 Z M 497 77 " clip-rule="nonzero"/></clipPath><clipPath id="a202845806"><path d="M 0 1167.671875 L 154.640625 2.640625 L 1269.859375 150.671875 L 1115.21875 1315.703125 Z M 0 1167.671875 " clip-rule="nonzero"/></clipPath><clipPath id="14c99d8055"><path d="M 0 1167.671875 L 154.640625 2.640625 L 1269.859375 150.671875 L 1115.21875 1315.703125 Z M 0 1167.671875 " clip-rule="nonzero"/></clipPath><clipPath id="9cab55075d"><path d="M 464 67 L 679 67 L 679 240 L 464 240 Z M 464 67 " clip-rule="nonzero"/></clipPath><clipPath id="714712b6ae"><path d="M 0 1167.671875 L 154.640625 2.640625 L 1269.859375 150.671875 L 1115.21875 1315.703125 Z M 0 1167.671875 " clip-rule="nonzero"/></clipPath><clipPath id="b7124326e5"><path d="M 0 1167.671875 L 154.640625 2.640625 L 1269.859375 150.671875 L 1115.21875 1315.703125 Z M 0 1167.671875 " clip-rule="nonzero"/></clipPath><clipPath id="2d9d3931b3"><path d="M 431 58 L 605 58 L 605 196 L 431 196 Z M 431 58 " clip-rule="nonzero"/></clipPath><clipPath id="09ae1547f7"><path d="M 0 1167.671875 L 154.640625 2.640625 L 1269.859375 150.671875 L 1115.21875 1315.703125 Z M 0 1167.671875 " clip-rule="nonzero"/></clipPath><clipPath id="b9f7340ae1"><path d="M 0 1167.671875 L 154.640625 2.640625 L 1269.859375 150.671875 L 1115.21875 1315.703125 Z M 0 1167.671875 " clip-rule="nonzero"/></clipPath><clipPath id="c3cad3bcc1"><path d="M 398 48 L 532 48 L 532 152 L 398 152 Z M 398 48 " clip-rule="nonzero"/></clipPath><clipPath id="75d9880054"><path d="M 0 1167.671875 L 154.640625 2.640625 L 1269.859375 150.671875 L 1115.21875 1315.703125 Z M 0 1167.671875 " clip-rule="nonzero"/></clipPath><clipPath id="1325863cb5"><path d="M 0 1167.671875 L 154.640625 2.640625 L 1269.859375 150.671875 L 1115.21875 1315.703125 Z M 0 1167.671875 " clip-rule="nonzero"/></clipPath><clipPath id="ffecec2ee3"><path d="M 365 38 L 458 38 L 458 108 L 365 108 Z M 365 38 " clip-rule="nonzero"/></clipPath><clipPath id="4cede3c497"><path d="M 0 1167.671875 L 154.640625 2.640625 L 1269.859375 150.671875 L 1115.21875 1315.703125 Z M 0 1167.671875 " clip-rule="nonzero"/></clipPath><clipPath id="5a3df58c77"><path d="M 0 1167.671875 L 154.640625 2.640625 L 1269.859375 150.671875 L 1115.21875 1315.703125 Z M 0 1167.671875 " clip-rule="nonzero"/></clipPath><clipPath id="169d062d56"><path d="M 332 28 L 385 28 L 385 64 L 332 64 Z M 332 28 " clip-rule="nonzero"/></clipPath><clipPath id="37005a5a0d"><path d="M 0 1167.671875 L 154.640625 2.640625 L 1269.859375 150.671875 L 1115.21875 1315.703125 Z M 0 1167.671875 " clip-rule="nonzero"/></clipPath><clipPath id="c1044c6486"><path d="M 0 1167.671875 L 154.640625 2.640625 L 1269.859375 150.671875 L 1115.21875 1315.703125 Z M 0 1167.671875 " clip-rule="nonzero"/></clipPath><clipPath id="19565657a5"><rect x="0" width="1271" y="0" height="1316"/></clipPath></defs><g mask="url(#a8bcb31746)"><g transform="matrix(1, 0, 0, 1, 150, 74)"><g clip-path="url(#19565657a5)"><g clip-path="url(#c28ea4c7ae)"><g clip-path="url(#177a4ace6e)"><g clip-path="url(#98a933a74f)"><path fill="#d8eaf8" d="M 127.511719 213.550781 L 1057.933594 337.050781 L 931.269531 1291.285156 Z M 127.511719 213.550781 " fill-opacity="1" fill-rule="nonzero"/></g></g></g><g clip-path="url(#fcddb3d23e)"><g clip-path="url(#9af3d0ae8b)"><g clip-path="url(#456232b580)"><path fill="#1676bb" d="M 1139.722656 1124.84375 L 1140.703125 1117.460938 L 1136.625 1120.796875 Z M 1139.722656 1124.84375 " fill-opacity="1" fill-rule="nonzero"/></g></g></g><g clip-path="url(#41d4b48a2a)"><g clip-path="url(#457013dd8c)"><g clip-path="url(#2dc044f2f5)"><path fill="#1676bb" d="M 1136.625 1120.796875 L 1140.703125 1117.460938 L 1145.789062 1079.121094 L 1120.992188 1099.820312 Z M 1136.625 1120.796875 " fill-opacity="1" fill-rule="nonzero"/></g></g></g><g clip-path="url(#c01adfe228)"><g clip-path="url(#340982cce0)"><g clip-path="url(#115aa242f0)"><path fill="#1676bb" d="M 1103.703125 1076.683594 L 1151.449219 1036.492188 L 1156.539062 998.152344 L 1088.070312 1055.707031 Z M 1103.703125 1076.683594 " fill-opacity="1" fill-rule="nonzero"/></g></g></g><g clip-path="url(#31da2e9811)"><g clip-path="url(#483be98946)"><g clip-path="url(#65871bb24c)"><path fill="#1676bb" d="M 1071.023438 1032.601562 L 1162.164062 955.761719 L 1167.285156 917.183594 L 1055.390625 1011.625 Z M 1071.023438 1032.601562 " fill-opacity="1" fill-rule="nonzero"/></g></g></g><g clip-path="url(#7f17d3c264)"><g clip-path="url(#18e1903ba0)"><g clip-path="url(#a15ab46876)"><path fill="#1676bb" d="M 1038.105469 988.488281 L 1172.910156 874.792969 L 1178.03125 836.214844 L 1022.472656 967.511719 Z M 1038.105469 988.488281 " fill-opacity="1" fill-rule="nonzero"/></g></g></g><g clip-path="url(#ff1bb875cd)"><g clip-path="url(#c2607b010d)"><g clip-path="url(#a5c9b70580)"><path fill="#1676bb" d="M 1005.1875 944.375 L 1183.660156 793.824219 L 1188.75 755.484375 L 989.554688 923.398438 Z M 1005.1875 944.375 " fill-opacity="1" fill-rule="nonzero"/></g></g></g><g clip-path="url(#78d05e49cb)"><g clip-path="url(#de053890b6)"><g clip-path="url(#33cd660796)"><path fill="#1676bb" d="M 972.269531 900.265625 L 1194.40625 712.855469 L 1199.496094 674.515625 L 956.636719 879.285156 Z M 972.269531 900.265625 " fill-opacity="1" fill-rule="nonzero"/></g></g></g><g clip-path="url(#e97477e9cb)"><g clip-path="url(#59cb4155a0)"><g clip-path="url(#6620ae362e)"><path fill="#1676bb" d="M 939.351562 856.152344 L 1205.121094 632.128906 L 1210.242188 593.546875 L 923.714844 835.171875 Z M 939.351562 856.152344 " fill-opacity="1" fill-rule="nonzero"/></g></g></g><g clip-path="url(#7ba9060c84)"><g clip-path="url(#1100cdf203)"><g clip-path="url(#ab0b641b58)"><path fill="#1676bb" d="M 906.429688 812.039062 L 1215.871094 551.160156 L 1220.992188 512.578125 L 890.796875 791.058594 Z M 906.429688 812.039062 " fill-opacity="1" fill-rule="nonzero"/></g></g></g><g clip-path="url(#4b6a34c0f8)"><g clip-path="url(#f9a80a67d8)"><g clip-path="url(#12f781f8f2)"><path fill="#1676bb" d="M 873.511719 767.925781 L 1226.617188 470.191406 L 1231.707031 431.847656 L 857.878906 746.949219 Z M 873.511719 767.925781 " fill-opacity="1" fill-rule="nonzero"/></g></g></g><g clip-path="url(#8711367caf)"><g clip-path="url(#43af79d89a)"><g clip-path="url(#3173da88b5)"><path fill="#1676bb" d="M 840.832031 723.84375 L 1237.363281 389.222656 L 1242.453125 350.882812 L 825.199219 702.867188 Z M 840.832031 723.84375 " fill-opacity="1" fill-rule="nonzero"/></g></g></g><g clip-path="url(#30a796d8b8)"><g clip-path="url(#9486a1a1b1)"><g clip-path="url(#a08d84d704)"><path fill="#1676bb" d="M 807.914062 679.730469 L 1248.082031 308.492188 L 1253.203125 269.914062 L 792.28125 658.753906 Z M 807.914062 679.730469 " fill-opacity="1" fill-rule="nonzero"/></g></g></g><g clip-path="url(#d63279e4df)"><g clip-path="url(#4989c54407)"><g clip-path="url(#00d92ecdf3)"><path fill="#1676bb" d="M 774.996094 635.617188 L 1258.828125 227.523438 L 1263.949219 188.945312 L 759.359375 614.640625 Z M 774.996094 635.617188 " fill-opacity="1" fill-rule="nonzero"/></g></g></g><g clip-path="url(#aaece0e2de)"><g clip-path="url(#e82dcca9a4)"><g clip-path="url(#f3265cd153)"><path fill="#1676bb" d="M 742.074219 591.503906 L 1265.195312 150.335938 L 1230.1875 145.691406 L 726.441406 570.527344 Z M 742.074219 591.503906 " fill-opacity="1" fill-rule="nonzero"/></g></g></g><g clip-path="url(#1d0919f4dd)"><g clip-path="url(#86f4125cc1)"><g clip-path="url(#044d812b21)"><path fill="#1676bb" d="M 709.953125 548.710938 L 1193.515625 140.820312 L 1158.507812 136.175781 L 694.316406 527.730469 Z M 709.953125 548.710938 " fill-opacity="1" fill-rule="nonzero"/></g></g></g><g clip-path="url(#73749dea17)"><g clip-path="url(#23504044ff)"><g clip-path="url(#a907ce9586)"><path fill="#1676bb" d="M 677.269531 504.628906 L 1119.929688 131.054688 L 1084.921875 126.40625 L 661.636719 483.652344 Z M 677.269531 504.628906 " fill-opacity="1" fill-rule="nonzero"/></g></g></g><g clip-path="url(#99fbda3b6b)"><g clip-path="url(#8b182ecb44)"><g clip-path="url(#ef1dfc6f39)"><path fill="#1676bb" d="M 644.351562 460.515625 L 1046.34375 121.285156 L 1011.335938 116.640625 L 628.71875 439.539062 Z M 644.351562 460.515625 " fill-opacity="1" fill-rule="nonzero"/></g></g></g><g clip-path="url(#0181b75874)"><g clip-path="url(#432b1fd73c)"><g clip-path="url(#52b96408b1)"><path fill="#1676bb" d="M 611.433594 416.402344 L 972.757812 111.519531 L 937.75 106.871094 L 595.800781 395.425781 Z M 611.433594 416.402344 " fill-opacity="1" fill-rule="nonzero"/></g></g></g><g clip-path="url(#0e8bf8d505)"><g clip-path="url(#bdd063c2d7)"><g clip-path="url(#2ddc62caa9)"><path fill="#1676bb" d="M 578.515625 372.289062 L 899.171875 101.75 L 864.164062 97.105469 L 562.882812 351.3125 Z M 578.515625 372.289062 " fill-opacity="1" fill-rule="nonzero"/></g></g></g><g clip-path="url(#d2510a8e43)"><g clip-path="url(#407ac8cd6e)"><g clip-path="url(#5d07bf6b3a)"><path fill="#1676bb" d="M 545.597656 328.175781 L 825.585938 91.984375 L 790.578125 87.335938 L 529.964844 307.199219 Z M 545.597656 328.175781 " fill-opacity="1" fill-rule="nonzero"/></g></g></g><g clip-path="url(#5c88a89eea)"><g clip-path="url(#a202845806)"><g clip-path="url(#14c99d8055)"><path fill="#1676bb" d="M 512.675781 284.0625 L 752 82.214844 L 716.992188 77.570312 L 497.042969 263.085938 Z M 512.675781 284.0625 " fill-opacity="1" fill-rule="nonzero"/></g></g></g><g clip-path="url(#9cab55075d)"><g clip-path="url(#714712b6ae)"><g clip-path="url(#b7124326e5)"><path fill="#1676bb" d="M 479.757812 239.949219 L 678.414062 72.449219 L 643.40625 67.800781 L 464.125 218.972656 Z M 479.757812 239.949219 " fill-opacity="1" fill-rule="nonzero"/></g></g></g><g clip-path="url(#2d9d3931b3)"><g clip-path="url(#09ae1547f7)"><g clip-path="url(#b9f7340ae1)"><path fill="#1676bb" d="M 447.078125 195.871094 L 604.828125 62.679688 L 569.820312 58.035156 L 431.445312 174.890625 Z M 447.078125 195.871094 " fill-opacity="1" fill-rule="nonzero"/></g></g></g><g clip-path="url(#c3cad3bcc1)"><g clip-path="url(#75d9880054)"><g clip-path="url(#1325863cb5)"><path fill="#1676bb" d="M 414.160156 151.757812 L 531.242188 52.914062 L 496.234375 48.265625 L 398.527344 130.777344 Z M 414.160156 151.757812 " fill-opacity="1" fill-rule="nonzero"/></g></g></g><g clip-path="url(#ffecec2ee3)"><g clip-path="url(#4cede3c497)"><g clip-path="url(#5a3df58c77)"><path fill="#1676bb" d="M 381.242188 107.644531 L 457.65625 43.148438 L 422.648438 38.5 L 365.609375 86.667969 Z M 381.242188 107.644531 " fill-opacity="1" fill-rule="nonzero"/></g></g></g><g clip-path="url(#169d062d56)"><g clip-path="url(#37005a5a0d)"><g clip-path="url(#c1044c6486)"><path fill="#1676bb" d="M 332.6875 42.554688 L 348.324219 63.53125 L 384.070312 33.378906 L 349.0625 28.730469 Z M 332.6875 42.554688 " fill-opacity="1" fill-rule="nonzero"/></g></g></g></g></g></g></svg>