<svg width="16" height="12" viewBox="0 0 16 12" fill="none" xmlns="http://www.w3.org/2000/svg">
<path d="M0.602 6.15302C0.602 2.97502 2.31 0.819023 4.928 0.819023C7.546 0.819023 9.268 2.97502 9.268 6.15302C9.268 9.31702 7.644 11.431 4.928 11.431C2.212 11.431 0.602 9.31702 0.602 6.15302ZM2.366 6.15302C2.366 8.51902 3.318 9.84902 4.928 9.84902C6.552 9.84902 7.504 8.51902 7.504 6.15302C7.504 3.73102 6.552 2.40102 4.928 2.40102C3.318 2.40102 2.366 3.73102 2.366 6.15302ZM13.5871 2.62502H11.3471V1.01502H15.3091V11.249H13.5871V2.62502Z" fill="#2E90FA"/>
</svg>
