<svg width="19" height="12" viewBox="0 0 19 12" fill="none" xmlns="http://www.w3.org/2000/svg">
<path d="M0.602 6.15302C0.602 2.97502 2.31 0.819023 4.928 0.819023C7.546 0.819023 9.268 2.97502 9.268 6.15302C9.268 9.31702 7.644 11.431 4.928 11.431C2.212 11.431 0.602 9.31702 0.602 6.15302ZM2.366 6.15302C2.366 8.51902 3.318 9.84902 4.928 9.84902C6.552 9.84902 7.504 8.51902 7.504 6.15302C7.504 3.73102 6.552 2.40102 4.928 2.40102C3.318 2.40102 2.366 3.73102 2.366 6.15302ZM18.6131 11.235L11.5151 11.249V9.90502L14.8611 7.07702C16.2471 5.90102 16.7091 5.22902 16.7091 4.24902C16.7091 3.08702 16.0791 2.42902 15.0011 2.42902C13.8811 2.42902 13.1811 3.21302 13.1671 4.52902H11.3891C11.4031 2.28902 12.8311 0.833023 15.0011 0.833023C17.1851 0.833023 18.5431 2.07902 18.5431 4.15102C18.5431 5.57902 17.7591 6.65702 16.2051 7.98702L14.3571 9.56902H18.6131V11.235Z" fill="#2E90FA"/>
</svg>
