<svg width="19" height="12" viewBox="0 0 19 12" fill="none" xmlns="http://www.w3.org/2000/svg">
<path d="M0.602 6.15302C0.602 2.97502 2.31 0.819023 4.928 0.819023C7.546 0.819023 9.268 2.97502 9.268 6.15302C9.268 9.31702 7.644 11.431 4.928 11.431C2.212 11.431 0.602 9.31702 0.602 6.15302ZM2.366 6.15302C2.366 8.51902 3.318 9.84902 4.928 9.84902C6.552 9.84902 7.504 8.51902 7.504 6.15302C7.504 3.73102 6.552 2.40102 4.928 2.40102C3.318 2.40102 2.366 3.73102 2.366 6.15302ZM14.4561 6.18102H13.2101V5.01902L15.8421 2.59702H11.5861V1.01502H18.0821V2.44302L15.5901 4.73902C17.1581 5.04702 18.3761 6.19502 18.3761 8.00102C18.3761 10.101 16.7381 11.431 14.6661 11.431C12.6641 11.431 11.1101 10.199 11.1101 7.98702H12.8741C12.8741 9.16302 13.6021 9.83502 14.6941 9.83502C15.8141 9.83502 16.5561 9.10702 16.5561 7.97302C16.5561 6.93702 15.8841 6.18102 14.4561 6.18102Z" fill="#2E90FA"/>
</svg>
