<?xml version="1.0" encoding="UTF-8"?>
<svg version="1.1" xmlns="http://www.w3.org/2000/svg" width="1064" height="961">
<path d="M0 0 C0.83259338 0.00093658 1.66518677 0.00187317 2.52301025 0.00283813 C93.34446047 0.22299952 181.60301985 32.93762524 254.625 86.1875 C255.65584717 86.93797607 255.65584717 86.93797607 256.70751953 87.70361328 C264.94032422 93.72294475 272.90718021 99.962978 280.62890625 106.625 C283.33379036 108.93843413 286.08794539 111.16212055 288.875 113.375 C300.68728349 123.02255044 311.45579333 133.9351816 322.25 144.6875 C323.07878662 145.51161377 323.90757324 146.33572754 324.76147461 147.18481445 C328.98817489 151.42268171 333.05556505 155.73408671 336.95849609 160.27148438 C339.7594993 163.49185841 342.69794763 166.58206771 345.625 169.6875 C349.80482778 174.14320955 353.94655355 178.61244798 357.9296875 183.24609375 C360.07655051 185.70459816 362.29037132 188.097789 364.5 190.5 C367.78932238 194.10141171 370.94517636 197.76057275 374 201.5625 C377.38888011 205.76566932 380.93761308 209.7493059 384.625 213.6875 C389.04913451 218.41734484 393.23229002 223.26765363 397.2890625 228.3203125 C399.9637423 231.60328069 402.72697997 234.80022585 405.5 238 C409.93528973 243.135083 414.19124948 248.37690512 418.34814453 253.73901367 C421.36778484 257.6224016 424.46623332 261.4277576 427.61743164 265.20507812 C435.32258077 274.44397898 442.57139177 283.97258669 449.72949219 293.63916016 C451.61140341 296.16922061 453.50950837 298.68616989 455.4140625 301.19921875 C484.3422807 339.39882247 510.32799743 379.76729734 532.625 422.1875 C533.1288623 423.14317871 533.63272461 424.09885742 534.15185547 425.08349609 C556.38737099 467.55021937 572.27148786 512.9593304 580.625 560.1875 C580.80434082 561.19087402 580.98368164 562.19424805 581.16845703 563.22802734 C586.22640323 593.14876767 586.47061933 627.37641705 580.625 657.1875 C580.42632324 658.24130859 580.22764648 659.29511719 580.02294922 660.38085938 C570.87759759 707.86818331 549.65941996 750.75904627 520.625 789.1875 C520.15352539 789.81205078 519.68205078 790.43660156 519.19628906 791.08007812 C516.08138318 795.17875485 512.87799938 799.19788449 509.625 803.1875 C509.19977051 803.71714355 508.77454102 804.24678711 508.33642578 804.79248047 C500.36773546 814.6509315 491.43321136 823.58926725 482.5 832.5625 C481.59896042 833.47144012 481.59896042 833.47144012 480.67971802 834.39874268 C473.31756755 841.81070099 465.8478022 848.72816641 457.625 855.1875 C456.40483843 856.18810629 455.18704203 857.19161051 453.97265625 858.19921875 C429.62659346 878.13232953 402.72971436 894.15339602 374.625 908.1875 C373.83528809 908.58630371 373.04557617 908.98510742 372.23193359 909.39599609 C295.92622435 947.7365546 207.20852286 961.46302691 122.5625 961.375 C120.93350769 961.37409363 120.93350769 961.37409363 119.27160645 961.37316895 C99.66444373 961.34379653 80.16698203 960.80563985 60.625 959.1875 C59.88944885 959.1266925 59.15389771 959.06588501 58.39605713 959.00323486 C-25.24148919 951.96513568 -111.46999711 933.87103556 -187.375 897.1875 C-188.43315918 896.67960938 -189.49131836 896.17171875 -190.58154297 895.6484375 C-232.48280968 875.44726275 -272.65242359 849.31382315 -306.78515625 817.56640625 C-308.15018029 816.31256064 -309.52105519 815.06377245 -310.93530273 813.86572266 C-317.73753217 808.08753395 -323.99526756 801.75330545 -330.30151367 795.44628906 C-332.29911952 793.45086586 -334.30459353 791.46358944 -336.31054688 789.4765625 C-342.74801254 783.06660353 -348.92522645 776.65058574 -354.53295898 769.4909668 C-356.41990902 767.1313414 -358.4217083 764.94170003 -360.5 762.75 C-367.06451453 755.53360859 -372.72591953 747.58850135 -378.49804688 739.73632812 C-380.22266884 737.39435969 -381.96107962 735.06339115 -383.703125 732.734375 C-396.73342668 715.17188116 -408.07899428 696.46597979 -418.375 677.1875 C-418.83438965 676.33961914 -419.2937793 675.49173828 -419.76708984 674.61816406 C-450.23133065 618.32488224 -468.75007757 557.44050921 -477.375 494.1875 C-477.55434082 492.88748047 -477.73368164 491.58746094 -477.91845703 490.24804688 C-482.94998861 451.73459559 -483.295945 410.46338074 -476.375 372.1875 C-476.05354004 370.38273193 -476.05354004 370.38273193 -475.72558594 368.54150391 C-472.56719409 351.37263292 -467.97183657 334.71334705 -462.375 318.1875 C-462.04161621 317.19862793 -461.70823242 316.20975586 -461.36474609 315.19091797 C-444.48335982 265.93516539 -415.5814716 219.94674873 -380.0078125 182.03125 C-378.01264647 179.87623388 -376.08791259 177.69905703 -374.17578125 175.47265625 C-369.81700313 170.47010195 -365.13798663 165.80432915 -360.4375 161.125 C-359.58220703 160.26583984 -358.72691406 159.40667969 -357.84570312 158.52148438 C-353.38831557 154.0708968 -348.86746808 149.7643452 -344.08862305 145.66040039 C-341.92817021 143.803439 -339.84260283 141.87030407 -337.75 139.9375 C-332.1744333 134.91271117 -326.30626385 130.32217752 -320.37011719 125.73681641 C-318.25006541 124.09048153 -316.14381825 122.42755706 -314.0390625 120.76171875 C-304.40667583 113.1598417 -294.60833203 105.95809623 -284.375 99.1875 C-283.18704834 98.40028564 -283.18704834 98.40028564 -281.97509766 97.59716797 C-271.2680435 90.52349461 -260.48882876 83.60541447 -249.375 77.1875 C-248.53001953 76.69733398 -247.68503906 76.20716797 -246.81445312 75.70214844 C-171.60858098 32.27377495 -87.84543927 -0.12883146 0 0 Z " fill="#F0F4F8" transform="translate(480.375,-0.1875)"/>
</svg>
