<svg width="24" height="25" viewBox="0 0 24 25" fill="none" xmlns="http://www.w3.org/2000/svg">
<g clip-path="url(#clip0_154_7677)">
<path d="M24 12.749C24 6.12161 18.6274 0.749023 12 0.749023C5.37258 0.749023 0 6.12161 0 12.749C0 19.3764 5.37258 24.749 12 24.749C18.6274 24.749 24 19.3764 24 12.749Z" fill="#2E90FA"/>
<path d="M16.4998 10.5498C16.5775 10.4721 16.6392 10.3798 16.6813 10.2782C16.7234 10.1766 16.745 10.0678 16.745 9.95782C16.745 9.84788 16.7234 9.73901 16.6813 9.63743C16.6392 9.53586 16.5775 9.44356 16.4998 9.36582C16.4221 9.28808 16.3298 9.22641 16.2282 9.18433C16.1266 9.14226 16.0177 9.12061 15.9078 9.12061C15.7978 9.12061 15.689 9.14226 15.5874 9.18433C15.4858 9.22641 15.3935 9.28808 15.3158 9.36582L10.3258 14.3558L8.6858 12.7158C8.52796 12.5635 8.31664 12.4792 8.0973 12.4811C7.87797 12.4831 7.66815 12.571 7.51298 12.726C7.35781 12.881 7.26971 13.0908 7.26762 13.3101C7.26552 13.5295 7.34961 13.7409 7.50179 13.8988L9.7348 16.1318C9.81252 16.2096 9.90481 16.2713 10.0064 16.3134C10.108 16.3555 10.2168 16.3771 10.3268 16.3771C10.4367 16.3771 10.5456 16.3555 10.6472 16.3134C10.7488 16.2713 10.8411 16.2096 10.9188 16.1318L16.4998 10.5498Z" fill="white"/>
</g>
<defs>
<clipPath id="clip0_154_7677">
<rect width="24" height="24" fill="white" transform="translate(0 0.749023)"/>
</clipPath>
</defs>
</svg>
